<?xml version="1.0" encoding="UTF-8"?>
<!DOCTYPE svg PUBLIC "-//W3C//DTD SVG 1.1//EN" "http://www.w3.org/Graphics/SVG/1.1/DTD/svg11.dtd">
<svg version="1.1" xmlns="http://www.w3.org/2000/svg" xmlns:xlink="http://www.w3.org/1999/xlink" x="0" y="0" width="200" height="600" viewBox="0, 0, 200, 600">
  <g id="Layer_1">
    <path d="M181.378,442.102 L199.628,457.892 L181.378,473.686 L181.378,442.102" fill="#196C9F"/>
    <path d="M181.378,473.686 L163.652,457.892 L181.378,442.102 L181.378,473.686" fill="#2372A2"/>
    <path d="M145.402,442.102 L163.652,457.892 L145.402,473.686 L145.402,442.102" fill="#156697"/>
    <path d="M145.402,473.686 L127.143,457.892 L145.402,442.102 L145.402,473.686" fill="#095785"/>
    <path d="M108.896,442.102 L127.143,457.892 L108.896,473.686 L108.896,442.102" fill="#04507D"/>
    <path d="M108.896,473.686 L90.645,457.892 L108.896,442.102 L108.896,473.686" fill="#00456F"/>
    <path d="M72.386,442.102 L90.645,457.892 L72.386,473.686 L72.386,442.102" fill="#003E69"/>
    <path d="M72.386,473.686 L54.757,457.892 L72.386,442.102 L72.386,473.686" fill="#003560"/>
    <path d="M36.501,442.102 L54.757,457.892 L36.501,473.686 L36.501,442.102" fill="#00305C"/>
    <path d="M36.501,473.686 L18.25,457.892 L36.501,442.102 L36.501,473.686" fill="#002754"/>
    <path d="M-0,442.102 L18.25,457.892 L-0,473.686 L-0,442.102" fill="#00234F"/>
    <path d="M181.378,-0 L199.628,15.79 L181.378,31.576 L181.378,-0" fill="#E9F2F9"/>
    <path d="M199.628,47.367 L181.378,31.576 L199.628,15.79 L199.628,47.367" fill="#E7F1F9"/>
    <path d="M181.378,31.576 L199.628,47.367 L181.378,63.161 L181.378,31.576" fill="#E9F2F9"/>
    <path d="M199.628,78.943 L181.378,63.161 L199.628,47.367 L199.628,78.943" fill="#D9EAF9"/>
    <path d="M181.378,63.161 L199.628,78.943 L181.378,94.737 L181.378,63.161" fill="#DDEEF9"/>
    <path d="M199.628,110.519 L181.378,94.737 L199.628,78.943 L199.628,110.519" fill="#E2EEF9"/>
    <path d="M181.378,94.737 L199.628,110.519 L181.378,126.314 L181.378,94.737" fill="#EEF4F9"/>
    <path d="M199.628,142.108 L181.378,126.314 L199.628,110.519 L199.628,142.108" fill="#EFF5F9"/>
    <path d="M181.378,126.314 L199.628,142.108 L181.378,157.898 L181.378,126.314" fill="#D9EAF9"/>
    <path d="M199.628,173.68 L181.378,157.898 L199.628,142.108 L199.628,173.68" fill="#BDDFF9"/>
    <path d="M181.378,157.898 L199.628,173.68 L181.378,189.475 L181.378,157.898" fill="#A5D5F9"/>
    <path d="M199.628,205.265 L181.378,189.475 L199.628,173.68 L199.628,205.265" fill="#93CEF9"/>
    <path d="M181.378,189.475 L199.628,205.265 L181.378,221.051 L181.378,189.475" fill="#81C7F9"/>
    <path d="M199.628,236.841 L181.378,221.051 L199.628,205.265 L199.628,236.841" fill="#7AC4F9"/>
    <path d="M181.378,221.051 L199.628,236.841 L181.378,252.636 L181.378,221.051" fill="#61BCF9"/>
    <path d="M199.628,268.417 L181.378,252.636 L199.628,236.841 L199.628,268.417" fill="#4FB6F9"/>
    <path d="M181.378,252.636 L199.628,268.417 L181.378,284.212 L181.378,252.636" fill="#3EB1F9"/>
    <path d="M199.628,299.994 L181.378,284.212 L199.628,268.417 L199.628,299.994" fill="#4EB6F9"/>
    <path d="M181.378,284.212 L199.628,299.994 L181.378,315.788 L181.378,284.212" fill="#58B7F6"/>
    <path d="M199.628,331.578 L181.378,315.788 L199.628,299.994 L199.628,331.578" fill="#58B2EE"/>
    <path d="M181.378,315.788 L199.628,331.578 L181.378,347.373 L181.378,315.788" fill="#41A2E1"/>
    <path d="M199.628,363.155 L181.378,347.373 L199.628,331.578 L199.628,363.155" fill="#439FD9"/>
    <path d="M181.378,347.373 L199.628,363.155 L181.378,378.949 L181.378,347.373" fill="#3D98D1"/>
    <path d="M199.628,394.731 L181.378,378.949 L199.628,363.155 L199.628,394.731" fill="#378FC9"/>
    <path d="M181.378,378.949 L199.628,394.731 L181.378,410.525 L181.378,378.949" fill="#2B87C1"/>
    <path d="M199.628,426.316 L181.378,410.525 L199.628,394.731 L199.628,426.316" fill="#267FB7"/>
    <path d="M181.378,410.525 L199.628,426.316 L181.378,442.102 L181.378,410.525" fill="#3A88BB"/>
    <path d="M199.628,457.892 L181.378,442.102 L199.628,426.316 L199.628,457.892" fill="#2877AA"/>
    <path d="M181.378,442.102 L199.628,457.892 L181.378,473.686 L181.378,442.102" fill="#196C9F"/>
    <path d="M199.628,489.477 L181.378,473.686 L199.628,457.892 L199.628,489.477" fill="#186999"/>
    <path d="M181.378,473.686 L199.628,489.477 L181.378,505.263 L181.378,473.686" fill="#0E6192"/>
    <path d="M199.628,521.053 L181.378,505.263 L199.628,489.477 L199.628,521.053" fill="#005788"/>
    <path d="M181.378,505.263 L199.628,521.053 L181.378,536.847 L181.378,505.263" fill="#004B7C"/>
    <path d="M199.628,552.629 L181.378,536.847 L199.628,521.053 L199.628,552.629" fill="#003E6D"/>
    <path d="M181.378,536.847 L199.628,552.629 L181.378,568.419 L181.378,536.847" fill="#003160"/>
    <path d="M199.628,584.205 L181.378,568.419 L199.628,552.629 L199.628,584.205" fill="#002655"/>
    <path d="M181.378,568.419 L199.628,584.206 L181.378,600 L181.378,568.419" fill="#001E4C"/>
    <path d="M181.378,31.576 L163.652,15.79 L181.378,-0 L181.378,31.576" fill="#EEF4F9"/>
    <path d="M163.652,15.79 L181.378,31.576 L163.652,47.367 L163.652,15.79" fill="#EAF2F9"/>
    <path d="M181.378,63.161 L163.652,47.367 L181.378,31.576 L181.378,63.161" fill="#E3EFF9"/>
    <path d="M163.652,47.367 L181.378,63.161 L163.652,78.943 L163.652,47.367" fill="#D6E9F9"/>
    <path d="M181.378,94.737 L163.652,78.943 L181.378,63.161 L181.378,94.737" fill="#D2E8F9"/>
    <path d="M163.652,78.943 L181.378,94.737 L163.652,110.519 L163.652,78.943" fill="#E3EFF9"/>
    <path d="M181.378,126.314 L163.652,110.519 L181.378,94.737 L181.378,126.314" fill="#ECF3F9"/>
    <path d="M163.652,110.519 L181.378,126.314 L163.652,142.108 L163.652,110.519" fill="#ECF3F9"/>
    <path d="M181.378,157.898 L163.652,142.108 L181.378,126.314 L181.378,157.898" fill="#E7F0F9"/>
    <path d="M163.652,142.108 L181.378,157.898 L163.652,173.68 L163.652,142.108" fill="#CBE5F9"/>
    <path d="M181.378,189.475 L163.652,173.68 L181.378,157.898 L181.378,189.475" fill="#91CEF9"/>
    <path d="M163.652,173.68 L181.378,189.475 L163.652,205.265 L163.652,173.68" fill="#8ACBF9"/>
    <path d="M181.378,221.051 L163.652,205.265 L181.378,189.475 L181.378,221.051" fill="#A2D4F9"/>
    <path d="M163.652,205.265 L181.378,221.051 L163.652,236.841 L163.652,205.265" fill="#9DD3F9"/>
    <path d="M181.378,252.636 L163.652,236.841 L181.378,221.051 L181.378,252.636" fill="#6FC1F9"/>
    <path d="M163.652,236.841 L181.378,252.636 L163.652,268.417 L163.652,236.841" fill="#4BB4F9"/>
    <path d="M181.378,284.212 L163.652,268.417 L181.378,252.636 L181.378,284.212" fill="#4EB6F9"/>
    <path d="M163.652,268.417 L181.378,284.212 L163.652,299.994 L163.652,268.417" fill="#61BCF9"/>
    <path d="M181.378,315.788 L163.652,299.994 L181.378,284.212 L181.378,315.788" fill="#7CC3F4"/>
    <path d="M163.652,299.994 L181.378,315.788 L163.652,331.578 L163.652,299.994" fill="#5BB3ED"/>
    <path d="M181.378,347.373 L163.652,331.578 L181.378,315.788 L181.378,347.373" fill="#49A5E1"/>
    <path d="M163.652,331.578 L181.378,347.373 L163.652,363.155 L163.652,331.578" fill="#50A5DC"/>
    <path d="M181.378,378.949 L163.652,363.155 L181.378,347.373 L181.378,378.949" fill="#52A0D5"/>
    <path d="M163.652,363.155 L181.378,378.949 L163.652,394.731 L163.652,363.155" fill="#4095CD"/>
    <path d="M181.378,410.525 L163.652,394.731 L181.378,378.949 L181.378,410.525" fill="#3187BF"/>
    <path d="M163.652,394.731 L181.378,410.525 L163.652,426.316 L163.652,394.731" fill="#237EB4"/>
    <path d="M181.378,442.102 L163.652,426.316 L181.378,410.525 L181.378,442.102" fill="#1F75AA"/>
    <path d="M163.652,426.316 L181.378,442.102 L163.652,457.892 L163.652,426.316" fill="#1C71A4"/>
    <path d="M181.378,473.686 L163.652,457.892 L181.378,442.102 L181.378,473.686" fill="#2372A2"/>
    <path d="M163.652,457.892 L181.378,473.686 L163.652,489.477 L163.652,457.892" fill="#18699A"/>
    <path d="M181.378,505.263 L163.652,489.477 L181.378,473.686 L181.378,505.263" fill="#0C6092"/>
    <path d="M163.652,489.477 L181.378,505.263 L163.652,521.053 L163.652,489.477" fill="#005687"/>
    <path d="M181.378,536.847 L163.652,521.053 L181.378,505.263 L181.378,536.847" fill="#004777"/>
    <path d="M163.652,521.053 L181.378,536.847 L163.652,552.629 L163.652,521.053" fill="#003D6C"/>
    <path d="M181.378,568.419 L163.652,552.629 L181.378,536.847 L181.378,568.419" fill="#002F5E"/>
    <path d="M163.652,552.629 L181.378,568.419 L163.652,584.205 L163.652,552.629" fill="#002554"/>
    <path d="M181.378,600 L163.652,584.206 L181.378,568.419 L181.378,600" fill="#001E4A"/>
    <path d="M145.402,-0 L163.652,15.79 L145.402,31.576 L145.402,-0" fill="#E4EFF9"/>
    <path d="M163.652,47.367 L145.402,31.576 L163.652,15.79 L163.652,47.367" fill="#E3EFF9"/>
    <path d="M145.402,31.576 L163.652,47.367 L145.402,63.161 L145.402,31.576" fill="#E5F0F9"/>
    <path d="M163.652,78.943 L145.402,63.161 L163.652,47.367 L163.652,78.943" fill="#E3EFF9"/>
    <path d="M145.402,63.161 L163.652,78.943 L145.402,94.737 L145.402,63.161" fill="#D2E8F9"/>
    <path d="M163.652,110.519 L145.402,94.737 L163.652,78.943 L163.652,110.519" fill="#D2E8F9"/>
    <path d="M145.402,94.737 L163.652,110.519 L145.402,126.314 L145.402,94.737" fill="#E7F1F9"/>
    <path d="M163.652,142.108 L145.402,126.314 L163.652,110.519 L163.652,142.108" fill="#DCEDF9"/>
    <path d="M145.402,126.314 L163.652,142.108 L145.402,157.898 L145.402,126.314" fill="#DEEDF9"/>
    <path d="M163.652,173.68 L145.402,157.898 L163.652,142.108 L163.652,173.68" fill="#9DD3F9"/>
    <path d="M145.402,157.898 L163.652,173.68 L145.402,189.475 L145.402,157.898" fill="#88CAF9"/>
    <path d="M163.652,205.265 L145.402,189.475 L163.652,173.68 L163.652,205.265" fill="#82C8F9"/>
    <path d="M145.402,189.475 L163.652,205.265 L145.402,221.051 L145.402,189.475" fill="#7DC6F9"/>
    <path d="M163.652,236.841 L145.402,221.051 L163.652,205.265 L163.652,236.841" fill="#61BCF9"/>
    <path d="M145.402,221.051 L163.652,236.841 L145.402,252.636 L145.402,221.051" fill="#59B8F9"/>
    <path d="M163.652,268.417 L145.402,252.636 L163.652,236.841 L163.652,268.417" fill="#52B6F9"/>
    <path d="M145.402,252.636 L163.652,268.417 L145.402,284.212 L145.402,252.636" fill="#49B4F9"/>
    <path d="M163.652,299.994 L145.402,284.212 L163.652,268.417 L163.652,299.994" fill="#4EB3F6"/>
    <path d="M145.402,284.212 L163.652,299.994 L145.402,315.788 L145.402,284.212" fill="#65B7EF"/>
    <path d="M163.652,331.578 L145.402,315.788 L163.652,299.994 L163.652,331.578" fill="#3FA4E3"/>
    <path d="M145.402,315.788 L163.652,331.578 L145.402,347.373 L145.402,315.788" fill="#49A4DE"/>
    <path d="M163.652,363.155 L145.402,347.373 L163.652,331.578 L163.652,363.155" fill="#449BD4"/>
    <path d="M145.402,347.373 L163.652,363.155 L145.402,378.949 L145.402,347.373" fill="#4498CF"/>
    <path d="M163.652,394.731 L145.402,378.949 L163.652,363.155 L163.652,394.731" fill="#3188C1"/>
    <path d="M145.402,378.949 L163.652,394.731 L145.402,410.525 L145.402,378.949" fill="#2C83BB"/>
    <path d="M163.652,426.316 L145.402,410.525 L163.652,394.731 L163.652,426.316" fill="#1E75AB"/>
    <path d="M145.402,410.525 L163.652,426.316 L145.402,442.102 L145.402,410.525" fill="#1972A6"/>
    <path d="M163.652,457.892 L145.402,442.102 L163.652,426.316 L163.652,457.892" fill="#136699"/>
    <path d="M145.402,442.102 L163.652,457.892 L145.402,473.686 L145.402,442.102" fill="#156697"/>
    <path d="M163.652,489.477 L145.402,473.686 L163.652,457.892 L163.652,489.477" fill="#0E5F8E"/>
    <path d="M145.402,473.686 L163.652,489.477 L145.402,505.263 L145.402,473.686" fill="#065A8B"/>
    <path d="M163.652,521.053 L145.402,505.263 L163.652,489.477 L163.652,521.053" fill="#004A7A"/>
    <path d="M145.402,505.263 L163.652,521.053 L145.402,536.847 L145.402,505.263" fill="#004271"/>
    <path d="M163.652,552.629 L145.402,536.847 L163.652,521.053 L163.652,552.629" fill="#003363"/>
    <path d="M145.402,536.847 L163.652,552.629 L145.402,568.419 L145.402,536.847" fill="#002D5A"/>
    <path d="M163.652,584.205 L145.402,568.419 L163.652,552.629 L163.652,584.205" fill="#001F4D"/>
    <path d="M145.402,568.419 L163.652,584.206 L145.402,600 L145.402,568.419" fill="#001847"/>
    <path d="M145.402,31.576 L127.143,15.79 L145.402,-0 L145.402,31.576" fill="#E3EFF9"/>
    <path d="M127.143,15.79 L145.402,31.576 L127.143,47.367 L127.143,15.79" fill="#E3EFF9"/>
    <path d="M145.402,63.161 L127.143,47.367 L145.402,31.576 L145.402,63.161" fill="#E7F0F9"/>
    <path d="M127.143,47.367 L145.402,63.161 L127.143,78.943 L127.143,47.367" fill="#E3EFF9"/>
    <path d="M145.402,94.737 L127.143,78.943 L145.402,63.161 L145.402,94.737" fill="#CEE6F9"/>
    <path d="M127.143,78.943 L145.402,94.737 L127.143,110.519 L127.143,78.943" fill="#CBE5F9"/>
    <path d="M145.402,126.314 L127.143,110.519 L145.402,94.737 L145.402,126.314" fill="#B5DBF9"/>
    <path d="M127.143,110.519 L145.402,126.314 L127.143,142.108 L127.143,110.519" fill="#A7D5F9"/>
    <path d="M145.402,157.898 L127.143,142.108 L145.402,126.314 L145.402,157.898" fill="#8BCCF9"/>
    <path d="M127.143,142.108 L145.402,157.898 L127.143,173.68 L127.143,142.108" fill="#8ACBF9"/>
    <path d="M145.402,189.475 L127.143,173.68 L145.402,157.898 L145.402,189.475" fill="#81C7F9"/>
    <path d="M127.143,173.68 L145.402,189.475 L127.143,205.265 L127.143,173.68" fill="#88CAF9"/>
    <path d="M145.402,221.051 L127.143,205.265 L145.402,189.475 L145.402,221.051" fill="#74C2F9"/>
    <path d="M127.143,205.265 L145.402,221.051 L127.143,236.841 L127.143,205.265" fill="#56B8F9"/>
    <path d="M145.402,252.636 L127.143,236.841 L145.402,221.051 L145.402,252.636" fill="#4FB6F9"/>
    <path d="M127.143,236.841 L145.402,252.636 L127.143,268.417 L127.143,236.841" fill="#7FC6F9"/>
    <path d="M145.402,284.212 L127.143,268.417 L145.402,252.636 L145.402,284.212" fill="#76C1F6"/>
    <path d="M127.143,268.417 L145.402,284.212 L127.143,299.994 L127.143,268.417" fill="#3BABF2"/>
    <path d="M145.402,315.788 L127.143,299.994 L145.402,284.212 L145.402,315.788" fill="#39A2E5"/>
    <path d="M127.143,299.994 L145.402,315.788 L127.143,331.578 L127.143,299.994" fill="#369CDD"/>
    <path d="M145.402,347.373 L127.143,331.578 L145.402,315.788 L145.402,347.373" fill="#3293D1"/>
    <path d="M127.143,331.578 L145.402,347.373 L127.143,363.155 L127.143,331.578" fill="#3391CD"/>
    <path d="M145.402,378.949 L127.143,363.155 L145.402,347.373 L145.402,378.949" fill="#358DC6"/>
    <path d="M127.143,363.155 L145.402,378.949 L127.143,394.731 L127.143,363.155" fill="#2A83BB"/>
    <path d="M145.402,410.525 L127.143,394.731 L145.402,378.949 L145.402,410.525" fill="#1D78AD"/>
    <path d="M127.143,394.731 L145.402,410.525 L127.143,426.316 L127.143,394.731" fill="#1972A6"/>
    <path d="M145.402,442.102 L127.143,426.316 L145.402,410.525 L145.402,442.102" fill="#136698"/>
    <path d="M127.143,426.316 L145.402,442.102 L127.143,457.892 L127.143,426.316" fill="#0C6092"/>
    <path d="M145.402,473.686 L127.143,457.892 L145.402,442.102 L145.402,473.686" fill="#095785"/>
    <path d="M127.143,457.892 L145.402,473.686 L127.143,489.477 L127.143,457.892" fill="#075683"/>
    <path d="M145.402,505.263 L127.143,489.477 L145.402,473.686 L145.402,505.263" fill="#004976"/>
    <path d="M127.143,489.477 L145.402,505.263 L127.143,521.053 L127.143,489.477" fill="#004371"/>
    <path d="M145.402,536.847 L127.143,521.053 L145.402,505.263 L145.402,536.847" fill="#003763"/>
    <path d="M127.143,521.053 L145.402,536.847 L127.143,552.629 L127.143,521.053" fill="#002F5C"/>
    <path d="M145.402,568.419 L127.143,552.629 L145.402,536.847 L145.402,568.419" fill="#002550"/>
    <path d="M127.143,552.629 L145.402,568.419 L127.143,584.205 L127.143,552.629" fill="#001C4A"/>
    <path d="M145.402,600 L127.143,584.206 L145.402,568.419 L145.402,600" fill="#001846"/>
    <path d="M108.896,-0 L127.143,15.79 L108.896,31.576 L108.896,-0" fill="#C7E3F9"/>
    <path d="M127.143,47.367 L108.896,31.576 L127.143,15.79 L127.143,47.367" fill="#C0E0F9"/>
    <path d="M108.896,31.576 L127.143,47.367 L108.896,63.161 L108.896,31.576" fill="#D4E9F9"/>
    <path d="M127.143,78.943 L108.896,63.161 L127.143,47.367 L127.143,78.943" fill="#C5E2F9"/>
    <path d="M108.896,63.161 L127.143,78.943 L108.896,94.737 L108.896,63.161" fill="#C6E3F9"/>
    <path d="M127.143,110.519 L108.896,94.737 L127.143,78.943 L127.143,110.519" fill="#B9DEF9"/>
    <path d="M108.896,94.737 L127.143,110.519 L108.896,126.314 L108.896,94.737" fill="#CEE6F9"/>
    <path d="M127.143,142.108 L108.896,126.314 L127.143,110.519 L127.143,142.108" fill="#81C7F9"/>
    <path d="M108.896,126.314 L127.143,142.108 L108.896,157.898 L108.896,126.314" fill="#75C3F9"/>
    <path d="M127.143,173.68 L108.896,157.898 L127.143,142.108 L127.143,173.68" fill="#77C3F9"/>
    <path d="M108.896,157.898 L127.143,173.68 L108.896,189.475 L108.896,157.898" fill="#7BC5F9"/>
    <path d="M127.143,205.265 L108.896,189.475 L127.143,173.68 L127.143,205.265" fill="#DAEBF9"/>
    <path d="M108.896,189.475 L127.143,205.265 L108.896,221.051 L108.896,189.475" fill="#DDEEF9"/>
    <path d="M127.143,236.841 L108.896,221.051 L127.143,205.265 L127.143,236.841" fill="#8BCCF9"/>
    <path d="M108.896,221.051 L127.143,236.841 L108.896,252.636 L108.896,221.051" fill="#53B7F9"/>
    <path d="M127.143,268.417 L108.896,252.636 L127.143,236.841 L127.143,268.417" fill="#3EAEF4"/>
    <path d="M108.896,252.636 L127.143,268.417 L108.896,284.212 L108.896,252.636" fill="#39AAF0"/>
    <path d="M127.143,299.994 L108.896,284.212 L127.143,268.417 L127.143,299.994" fill="#3FA5E7"/>
    <path d="M108.896,284.212 L127.143,299.994 L108.896,315.788 L108.896,284.212" fill="#399FE0"/>
    <path d="M127.143,331.578 L108.896,315.788 L127.143,299.994 L127.143,331.578" fill="#3899D7"/>
    <path d="M108.896,315.788 L127.143,331.578 L108.896,347.373 L108.896,315.788" fill="#2F8FCD"/>
    <path d="M127.143,363.155 L108.896,347.373 L127.143,331.578 L127.143,363.155" fill="#2A87C1"/>
    <path d="M108.896,347.373 L127.143,363.155 L108.896,378.949 L108.896,347.373" fill="#3087BF"/>
    <path d="M127.143,394.731 L108.896,378.949 L127.143,363.155 L127.143,394.731" fill="#2279AF"/>
    <path d="M108.896,378.949 L127.143,394.731 L108.896,410.525 L108.896,378.949" fill="#1972A5"/>
    <path d="M127.143,426.316 L108.896,410.525 L127.143,394.731 L127.143,426.316" fill="#136597"/>
    <path d="M108.896,410.525 L127.143,426.316 L108.896,442.102 L108.896,410.525" fill="#0C5F90"/>
    <path d="M127.143,457.892 L108.896,442.102 L127.143,426.316 L127.143,457.892" fill="#075683"/>
    <path d="M108.896,442.102 L127.143,457.892 L108.896,473.686 L108.896,442.102" fill="#04507D"/>
    <path d="M127.143,489.477 L108.896,473.686 L127.143,457.892 L127.143,489.477" fill="#004671"/>
    <path d="M108.896,473.686 L127.143,489.477 L108.896,505.263 L108.896,473.686" fill="#00406D"/>
    <path d="M127.143,521.053 L108.896,505.263 L127.143,489.477 L127.143,521.053" fill="#003763"/>
    <path d="M108.896,505.263 L127.143,521.053 L108.896,536.847 L108.896,505.263" fill="#002F5C"/>
    <path d="M127.143,552.629 L108.896,536.847 L127.143,521.053 L127.143,552.629" fill="#002653"/>
    <path d="M108.896,536.847 L127.143,552.629 L108.896,568.419 L108.896,536.847" fill="#001F4D"/>
    <path d="M127.143,584.205 L108.896,568.419 L127.143,552.629 L127.143,584.205" fill="#001746"/>
    <path d="M108.896,568.419 L127.143,584.206 L108.896,600 L108.896,568.419" fill="#001444"/>
    <path d="M108.896,31.576 L90.645,15.79 L108.896,-0 L108.896,31.576" fill="#93CDF6"/>
    <path d="M90.645,15.79 L108.896,31.576 L90.645,47.367 L90.645,15.79" fill="#C7E3F9"/>
    <path d="M108.896,63.161 L90.645,47.367 L108.896,31.576 L108.896,63.161" fill="#EAF2F9"/>
    <path d="M90.645,47.367 L108.896,63.161 L90.645,78.943 L90.645,47.367" fill="#B7DDF9"/>
    <path d="M108.896,94.737 L90.645,78.943 L108.896,63.161 L108.896,94.737" fill="#A7D5F9"/>
    <path d="M90.645,78.943 L108.896,94.737 L90.645,110.519 L90.645,78.943" fill="#A7D5F9"/>
    <path d="M108.896,126.314 L90.645,110.519 L108.896,94.737 L108.896,126.314" fill="#71C2F9"/>
    <path d="M90.645,110.519 L108.896,126.314 L90.645,142.108 L90.645,110.519" fill="#67BEF9"/>
    <path d="M108.896,157.898 L90.645,142.108 L108.896,126.314 L108.896,157.898" fill="#5CBAF9"/>
    <path d="M90.645,142.108 L108.896,157.898 L90.645,173.68 L90.645,142.108" fill="#4FB6F9"/>
    <path d="M108.896,189.475 L90.645,173.68 L108.896,157.898 L108.896,189.475" fill="#52B6F9"/>
    <path d="M90.645,173.68 L108.896,189.475 L90.645,205.265 L90.645,173.68" fill="#75C3F9"/>
    <path d="M108.896,221.051 L90.645,205.265 L108.896,189.475 L108.896,221.051" fill="#7CC5F8"/>
    <path d="M90.645,205.265 L108.896,221.051 L90.645,236.841 L90.645,205.265" fill="#69BEF8"/>
    <path d="M108.896,252.636 L90.645,236.841 L108.896,221.051 L108.896,252.636" fill="#45ADEF"/>
    <path d="M90.645,236.841 L108.896,252.636 L90.645,268.417 L90.645,236.841" fill="#32A5EB"/>
    <path d="M108.896,284.212 L90.645,268.417 L108.896,252.636 L108.896,284.212" fill="#39A0E2"/>
    <path d="M90.645,268.417 L108.896,284.212 L90.645,299.994 L90.645,268.417" fill="#49A6E3"/>
    <path d="M108.896,315.788 L90.645,299.994 L108.896,284.212 L108.896,315.788" fill="#429ED9"/>
    <path d="M90.645,299.994 L108.896,315.788 L90.645,331.578 L90.645,299.994" fill="#3D99D4"/>
    <path d="M108.896,347.373 L90.645,331.578 L108.896,315.788 L108.896,347.373" fill="#2B89C3"/>
    <path d="M90.645,331.578 L108.896,347.373 L90.645,363.155 L90.645,331.578" fill="#2783BC"/>
    <path d="M108.896,378.949 L90.645,363.155 L108.896,347.373 L108.896,378.949" fill="#217AB0"/>
    <path d="M90.645,363.155 L108.896,378.949 L90.645,394.731 L90.645,363.155" fill="#1E74A9"/>
    <path d="M108.896,410.525 L90.645,394.731 L108.896,378.949 L108.896,410.525" fill="#15679A"/>
    <path d="M90.645,394.731 L108.896,410.525 L90.645,426.316 L90.645,394.731" fill="#106192"/>
    <path d="M108.896,442.102 L90.645,426.316 L108.896,410.525 L108.896,442.102" fill="#095683"/>
    <path d="M90.645,426.316 L108.896,442.102 L90.645,457.892 L90.645,426.316" fill="#024F7C"/>
    <path d="M108.896,473.686 L90.645,457.892 L108.896,442.102 L108.896,473.686" fill="#00456F"/>
    <path d="M90.645,457.892 L108.896,473.686 L90.645,489.477 L90.645,457.892" fill="#003F6A"/>
    <path d="M108.896,505.263 L90.645,489.477 L108.896,473.686 L108.896,505.263" fill="#003360"/>
    <path d="M90.645,489.477 L108.896,505.263 L90.645,521.053 L90.645,489.477" fill="#002F5B"/>
    <path d="M108.896,536.847 L90.645,521.053 L108.896,505.263 L108.896,536.847" fill="#002653"/>
    <path d="M90.645,521.053 L108.896,536.847 L90.645,552.629 L90.645,521.053" fill="#00234E"/>
    <path d="M108.896,568.419 L90.645,552.629 L108.896,536.847 L108.896,568.419" fill="#001C49"/>
    <path d="M90.645,552.629 L108.896,568.419 L90.645,584.205 L90.645,552.629" fill="#001545"/>
    <path d="M108.896,600 L90.645,584.206 L108.896,568.419 L108.896,600" fill="#001541"/>
    <path d="M72.386,-0 L90.645,15.79 L72.386,31.576 L72.386,-0" fill="#77BEEF"/>
    <path d="M90.645,47.367 L72.386,31.576 L90.645,15.79 L90.645,47.367" fill="#6AB8EE"/>
    <path d="M72.386,31.576 L90.645,47.367 L72.386,63.161 L72.386,31.576" fill="#AED8F6"/>
    <path d="M90.645,78.943 L72.386,63.161 L90.645,47.367 L90.645,78.943" fill="#69BBF4"/>
    <path d="M72.386,63.161 L90.645,78.943 L72.386,94.737 L72.386,63.161" fill="#74C2F8"/>
    <path d="M90.645,110.519 L72.386,94.737 L90.645,78.943 L90.645,110.519" fill="#5EB9F6"/>
    <path d="M72.386,94.737 L90.645,110.519 L72.386,126.314 L72.386,94.737" fill="#5FBCF9"/>
    <path d="M90.645,142.108 L72.386,126.314 L90.645,110.519 L90.645,142.108" fill="#62BCF7"/>
    <path d="M72.386,126.314 L90.645,142.108 L72.386,157.898 L72.386,126.314" fill="#66BEF9"/>
    <path d="M90.645,173.68 L72.386,157.898 L90.645,142.108 L90.645,173.68" fill="#68BDF6"/>
    <path d="M72.386,157.898 L90.645,173.68 L72.386,189.475 L72.386,157.898" fill="#65BCF7"/>
    <path d="M90.645,205.265 L72.386,189.475 L90.645,173.68 L90.645,205.265" fill="#5CB7F2"/>
    <path d="M72.386,189.475 L90.645,205.265 L72.386,221.051 L72.386,189.475" fill="#57B4F2"/>
    <path d="M90.645,236.841 L72.386,221.051 L90.645,205.265 L90.645,236.841" fill="#49A8E8"/>
    <path d="M72.386,221.051 L90.645,236.841 L72.386,252.636 L72.386,221.051" fill="#3DA4E6"/>
    <path d="M90.645,268.417 L72.386,252.636 L90.645,236.841 L90.645,268.417" fill="#3499DA"/>
    <path d="M72.386,252.636 L90.645,268.417 L72.386,284.212 L72.386,252.636" fill="#3098D8"/>
    <path d="M90.645,299.994 L72.386,284.212 L90.645,268.417 L90.645,299.994" fill="#2C8FCD"/>
    <path d="M72.386,284.212 L90.645,299.994 L72.386,315.788 L72.386,284.212" fill="#4099D3"/>
    <path d="M90.645,331.578 L72.386,315.788 L90.645,299.994 L90.645,331.578" fill="#3089C3"/>
    <path d="M72.386,315.788 L90.645,331.578 L72.386,347.373 L72.386,315.788" fill="#2681B9"/>
    <path d="M90.645,363.155 L72.386,347.373 L90.645,331.578 L90.645,363.155" fill="#1E75AB"/>
    <path d="M72.386,347.373 L90.645,363.155 L72.386,378.949 L72.386,347.373" fill="#1972A6"/>
    <path d="M90.645,394.731 L72.386,378.949 L90.645,363.155 L90.645,394.731" fill="#136698"/>
    <path d="M72.386,378.949 L90.645,394.731 L72.386,410.525 L72.386,378.949" fill="#106393"/>
    <path d="M90.645,426.316 L72.386,410.525 L90.645,394.731 L90.645,426.316" fill="#095784"/>
    <path d="M72.386,410.525 L90.645,426.316 L72.386,442.102 L72.386,410.525" fill="#04507D"/>
    <path d="M90.645,457.892 L72.386,442.102 L90.645,426.316 L90.645,457.892" fill="#004670"/>
    <path d="M72.386,442.102 L90.645,457.892 L72.386,473.686 L72.386,442.102" fill="#003E69"/>
    <path d="M90.645,489.477 L72.386,473.686 L90.645,457.892 L90.645,489.477" fill="#003560"/>
    <path d="M72.386,473.686 L90.645,489.477 L72.386,505.263 L72.386,473.686" fill="#00305B"/>
    <path d="M90.645,521.053 L72.386,505.263 L90.645,489.477 L90.645,521.053" fill="#002754"/>
    <path d="M72.386,505.263 L90.645,521.053 L72.386,536.847 L72.386,505.263" fill="#00254F"/>
    <path d="M90.645,552.629 L72.386,536.847 L90.645,521.053 L90.645,552.629" fill="#001E4A"/>
    <path d="M72.386,536.847 L90.645,552.629 L72.386,568.419 L72.386,536.847" fill="#001746"/>
    <path d="M90.645,584.205 L72.386,568.419 L90.645,552.629 L90.645,584.205" fill="#001241"/>
    <path d="M72.386,568.419 L90.645,584.206 L72.386,600 L72.386,568.419" fill="#00113F"/>
    <path d="M72.386,31.576 L54.757,15.79 L72.386,-0 L72.386,31.576" fill="#58A8DF"/>
    <path d="M54.757,15.79 L72.386,31.576 L54.757,47.367 L54.757,15.79" fill="#4DA7E2"/>
    <path d="M72.386,63.161 L54.757,47.367 L72.386,31.576 L72.386,63.161" fill="#53A8E1"/>
    <path d="M54.757,47.367 L72.386,63.161 L54.757,78.943 L54.757,47.367" fill="#7BBFEF"/>
    <path d="M72.386,94.737 L54.757,78.943 L72.386,63.161 L72.386,94.737" fill="#6DB6EA"/>
    <path d="M54.757,78.943 L72.386,94.737 L54.757,110.519 L54.757,78.943" fill="#47ABEA"/>
    <path d="M72.386,126.314 L54.757,110.519 L72.386,94.737 L72.386,126.314" fill="#349FE2"/>
    <path d="M54.757,110.519 L72.386,126.314 L54.757,142.108 L54.757,110.519" fill="#40A8EA"/>
    <path d="M72.386,157.898 L54.757,142.108 L72.386,126.314 L72.386,157.898" fill="#3BA2E4"/>
    <path d="M54.757,142.108 L72.386,157.898 L54.757,173.68 L54.757,142.108" fill="#4CACEA"/>
    <path d="M72.386,189.475 L54.757,173.68 L72.386,157.898 L72.386,189.475" fill="#48A6E3"/>
    <path d="M54.757,173.68 L72.386,189.475 L54.757,205.265 L54.757,173.68" fill="#4BAAE6"/>
    <path d="M72.386,221.051 L54.757,205.265 L72.386,189.475 L72.386,221.051" fill="#45A1DC"/>
    <path d="M54.757,205.265 L72.386,221.051 L54.757,236.841 L54.757,205.265" fill="#48A3DE"/>
    <path d="M72.386,252.636 L54.757,236.841 L72.386,221.051 L72.386,252.636" fill="#3B99D3"/>
    <path d="M54.757,236.841 L72.386,252.636 L54.757,268.417 L54.757,236.841" fill="#3998D2"/>
    <path d="M72.386,284.212 L54.757,268.417 L72.386,252.636 L72.386,284.212" fill="#2889C4"/>
    <path d="M54.757,268.417 L72.386,284.212 L54.757,299.994 L54.757,268.417" fill="#2385C1"/>
    <path d="M72.386,315.788 L54.757,299.994 L72.386,284.212 L72.386,315.788" fill="#1879B2"/>
    <path d="M54.757,299.994 L72.386,315.788 L54.757,331.578 L54.757,299.994" fill="#1C78B1"/>
    <path d="M72.386,347.373 L54.757,331.578 L72.386,315.788 L72.386,347.373" fill="#166FA3"/>
    <path d="M54.757,331.578 L72.386,347.373 L54.757,363.155 L54.757,331.578" fill="#166BA0"/>
    <path d="M72.386,378.949 L54.757,363.155 L72.386,347.373 L72.386,378.949" fill="#0C6092"/>
    <path d="M54.757,363.155 L72.386,378.949 L54.757,394.731 L54.757,363.155" fill="#0C5E8E"/>
    <path d="M72.386,410.525 L54.757,394.731 L72.386,378.949 L72.386,410.525" fill="#075580"/>
    <path d="M54.757,394.731 L72.386,410.525 L54.757,426.316 L54.757,394.731" fill="#04507C"/>
    <path d="M72.386,442.102 L54.757,426.316 L72.386,410.525 L72.386,442.102" fill="#00456F"/>
    <path d="M54.757,426.316 L72.386,442.102 L54.757,457.892 L54.757,426.316" fill="#003E69"/>
    <path d="M72.386,473.686 L54.757,457.892 L72.386,442.102 L72.386,473.686" fill="#003560"/>
    <path d="M54.757,457.892 L72.386,473.686 L54.757,489.477 L54.757,457.892" fill="#00305C"/>
    <path d="M72.386,505.263 L54.757,489.477 L72.386,473.686 L72.386,505.263" fill="#002955"/>
    <path d="M54.757,489.477 L72.386,505.263 L54.757,521.053 L54.757,489.477" fill="#002550"/>
    <path d="M72.386,536.847 L54.757,521.053 L72.386,505.263 L72.386,536.847" fill="#001E4A"/>
    <path d="M54.757,521.053 L72.386,536.847 L54.757,552.629 L54.757,521.053" fill="#001B47"/>
    <path d="M72.386,568.419 L54.757,552.629 L72.386,536.847 L72.386,568.419" fill="#001441"/>
    <path d="M54.757,552.629 L72.386,568.419 L54.757,584.205 L54.757,552.629" fill="#00113F"/>
    <path d="M72.386,600 L54.757,584.206 L72.386,568.419 L72.386,600" fill="#00123F"/>
    <path d="M36.501,-0 L54.757,15.79 L36.501,31.576 L36.501,-0" fill="#3893CD"/>
    <path d="M54.757,47.367 L36.501,31.576 L54.757,15.79 L54.757,47.367" fill="#3C93CC"/>
    <path d="M36.501,31.576 L54.757,47.367 L36.501,63.161 L36.501,31.576" fill="#51A1D7"/>
    <path d="M54.757,78.943 L36.501,63.161 L54.757,47.367 L54.757,78.943" fill="#5BA4D7"/>
    <path d="M36.501,63.161 L54.757,78.943 L36.501,94.737 L36.501,63.161" fill="#53A4D9"/>
    <path d="M54.757,110.519 L36.501,94.737 L54.757,78.943 L54.757,110.519" fill="#3D99D4"/>
    <path d="M36.501,94.737 L54.757,110.519 L36.501,126.314 L36.501,94.737" fill="#3699D8"/>
    <path d="M54.757,142.108 L36.501,126.314 L54.757,110.519 L54.757,142.108" fill="#3092D1"/>
    <path d="M36.501,126.314 L54.757,142.108 L36.501,157.898 L36.501,126.314" fill="#3B99D7"/>
    <path d="M54.757,173.68 L36.501,157.898 L54.757,142.108 L54.757,173.68" fill="#3B95CF"/>
    <path d="M36.501,157.898 L54.757,173.68 L36.501,189.475 L36.501,157.898" fill="#459CD7"/>
    <path d="M54.757,205.265 L36.501,189.475 L54.757,173.68 L54.757,205.265" fill="#4A9CD4"/>
    <path d="M36.501,189.475 L54.757,205.265 L36.501,221.051 L36.501,189.475" fill="#3D98D1"/>
    <path d="M54.757,236.841 L36.501,221.051 L54.757,205.265 L54.757,236.841" fill="#318BC4"/>
    <path d="M36.501,221.051 L54.757,236.841 L36.501,252.636 L36.501,221.051" fill="#2C8BC4"/>
    <path d="M54.757,268.417 L36.501,252.636 L54.757,236.841 L54.757,268.417" fill="#237FB7"/>
    <path d="M36.501,252.636 L54.757,268.417 L36.501,284.212 L36.501,252.636" fill="#2280B8"/>
    <path d="M54.757,299.994 L36.501,284.212 L54.757,268.417 L54.757,299.994" fill="#1973A9"/>
    <path d="M36.501,284.212 L54.757,299.994 L36.501,315.788 L36.501,284.212" fill="#146FA5"/>
    <path d="M54.757,331.578 L36.501,315.788 L54.757,299.994 L54.757,331.578" fill="#0B6497"/>
    <path d="M36.501,315.788 L54.757,331.578 L36.501,347.373 L36.501,315.788" fill="#0D6496"/>
    <path d="M54.757,363.155 L36.501,347.373 L54.757,331.578 L54.757,363.155" fill="#085988"/>
    <path d="M36.501,347.373 L54.757,363.155 L36.501,378.949 L36.501,347.373" fill="#085987"/>
    <path d="M54.757,394.731 L36.501,378.949 L54.757,363.155 L54.757,394.731" fill="#024F7A"/>
    <path d="M36.501,378.949 L54.757,394.731 L36.501,410.525 L36.501,378.949" fill="#024E77"/>
    <path d="M54.757,426.316 L36.501,410.525 L54.757,394.731 L54.757,426.316" fill="#00416C"/>
    <path d="M36.501,410.525 L54.757,426.316 L36.501,442.102 L36.501,410.525" fill="#003E69"/>
    <path d="M54.757,457.892 L36.501,442.102 L54.757,426.316 L54.757,457.892" fill="#003560"/>
    <path d="M36.501,442.102 L54.757,457.892 L36.501,473.686 L36.501,442.102" fill="#00305C"/>
    <path d="M54.757,489.477 L36.501,473.686 L54.757,457.892 L54.757,489.477" fill="#002955"/>
    <path d="M36.501,473.686 L54.757,489.477 L36.501,505.263 L36.501,473.686" fill="#002550"/>
    <path d="M54.757,521.053 L36.501,505.263 L54.757,489.477 L54.757,521.053" fill="#001F4C"/>
    <path d="M36.501,505.263 L54.757,521.053 L36.501,536.847 L36.501,505.263" fill="#001847"/>
    <path d="M54.757,552.629 L36.501,536.847 L54.757,521.053 L54.757,552.629" fill="#001444"/>
    <path d="M36.501,536.847 L54.757,552.629 L36.501,568.419 L36.501,536.847" fill="#001140"/>
    <path d="M54.757,584.205 L36.501,568.419 L54.757,552.629 L54.757,584.205" fill="#000C3C"/>
    <path d="M36.501,568.419 L54.757,584.206 L36.501,600 L36.501,568.419" fill="#000C3B"/>
    <path d="M36.501,31.576 L18.25,15.79 L36.501,-0 L36.501,31.576" fill="#3485BB"/>
    <path d="M18.25,15.79 L36.501,31.576 L18.25,47.367 L18.25,15.79" fill="#3489C1"/>
    <path d="M36.501,63.161 L18.25,47.367 L36.501,31.576 L36.501,63.161" fill="#3488BE"/>
    <path d="M18.25,47.367 L36.501,63.161 L18.25,78.943 L18.25,47.367" fill="#4393C6"/>
    <path d="M36.501,94.737 L18.25,78.943 L36.501,63.161 L36.501,94.737" fill="#2983BB"/>
    <path d="M18.25,78.943 L36.501,94.737 L18.25,110.519 L18.25,78.943" fill="#3B93CC"/>
    <path d="M36.501,126.314 L18.25,110.519 L36.501,94.737 L36.501,126.314" fill="#3088C1"/>
    <path d="M18.25,110.519 L36.501,126.314 L18.25,142.108 L18.25,110.519" fill="#2A87C1"/>
    <path d="M36.501,157.898 L18.25,142.108 L36.501,126.314 L36.501,157.898" fill="#2D82B9"/>
    <path d="M18.25,142.108 L36.501,157.898 L18.25,173.68 L18.25,142.108" fill="#398CC1"/>
    <path d="M36.501,189.475 L18.25,173.68 L36.501,157.898 L36.501,189.475" fill="#5099C9"/>
    <path d="M18.25,173.68 L36.501,189.475 L18.25,205.265 L18.25,173.68" fill="#1F74A9"/>
    <path d="M36.501,221.051 L18.25,205.265 L36.501,189.475 L36.501,221.051" fill="#297EB2"/>
    <path d="M18.25,205.265 L36.501,221.051 L18.25,236.841 L18.25,205.265" fill="#267EB4"/>
    <path d="M36.501,252.636 L18.25,236.841 L36.501,221.051 L36.501,252.636" fill="#1F74A9"/>
    <path d="M18.25,236.841 L36.501,252.636 L18.25,268.417 L18.25,236.841" fill="#1E74A9"/>
    <path d="M36.501,284.212 L18.25,268.417 L36.501,252.636 L36.501,284.212" fill="#14699B"/>
    <path d="M18.25,268.417 L36.501,284.212 L18.25,299.994 L18.25,268.417" fill="#136699"/>
    <path d="M36.501,315.788 L18.25,299.994 L36.501,284.212 L36.501,315.788" fill="#0A5D8D"/>
    <path d="M18.25,299.994 L36.501,315.788 L18.25,331.578 L18.25,299.994" fill="#0A5B8B"/>
    <path d="M36.501,347.373 L18.25,331.578 L36.501,315.788 L36.501,347.373" fill="#075580"/>
    <path d="M18.25,331.578 L36.501,347.373 L18.25,363.155 L18.25,331.578" fill="#04527E"/>
    <path d="M36.501,378.949 L18.25,363.155 L36.501,347.373 L36.501,378.949" fill="#014B74"/>
    <path d="M18.25,363.155 L36.501,378.949 L18.25,394.731 L18.25,363.155" fill="#004873"/>
    <path d="M36.501,410.525 L18.25,394.731 L36.501,378.949 L36.501,410.525" fill="#003E69"/>
    <path d="M18.25,394.731 L36.501,410.525 L18.25,426.316 L18.25,394.731" fill="#003A66"/>
    <path d="M36.501,442.102 L18.25,426.316 L36.501,410.525 L36.501,442.102" fill="#00325E"/>
    <path d="M18.25,426.316 L36.501,442.102 L18.25,457.892 L18.25,426.316" fill="#002F5B"/>
    <path d="M36.501,473.686 L18.25,457.892 L36.501,442.102 L36.501,473.686" fill="#002754"/>
    <path d="M18.25,457.892 L36.501,473.686 L18.25,489.477 L18.25,457.892" fill="#002550"/>
    <path d="M36.501,505.263 L18.25,489.477 L36.501,473.686 L36.501,505.263" fill="#001E4A"/>
    <path d="M18.25,489.477 L36.501,505.263 L18.25,521.053 L18.25,489.477" fill="#001847"/>
    <path d="M36.501,536.847 L18.25,521.053 L36.501,505.263 L36.501,536.847" fill="#001444"/>
    <path d="M18.25,521.053 L36.501,536.847 L18.25,552.629 L18.25,521.053" fill="#001140"/>
    <path d="M36.501,568.419 L18.25,552.629 L36.501,536.847 L36.501,568.419" fill="#000C3C"/>
    <path d="M18.25,552.629 L36.501,568.419 L18.25,584.205 L18.25,552.629" fill="#000B3B"/>
    <path d="M36.501,600 L18.25,584.206 L36.501,568.419 L36.501,600" fill="#000C3B"/>
    <path d="M-0,-0 L18.25,15.79 L-0,31.576 L-0,-0" fill="#2B78AA"/>
    <path d="M18.25,47.367 L-0,31.576 L18.25,15.79 L18.25,47.367" fill="#2B74A4"/>
    <path d="M-0,31.576 L18.25,47.367 L-0,63.161 L-0,31.576" fill="#2C7AAB"/>
    <path d="M18.25,78.943 L-0,63.161 L18.25,47.367 L18.25,78.943" fill="#146A9F"/>
    <path d="M-0,63.161 L18.25,78.943 L-0,94.737 L-0,63.161" fill="#1E75AB"/>
    <path d="M18.25,110.519 L-0,94.737 L18.25,78.943 L18.25,110.519" fill="#1E75AA"/>
    <path d="M-0,94.737 L18.25,110.519 L-0,126.314 L-0,94.737" fill="#1772A7"/>
    <path d="M18.25,142.108 L-0,126.314 L18.25,110.519 L18.25,142.108" fill="#1C71A4"/>
    <path d="M-0,126.314 L18.25,142.108 L-0,157.898 L-0,126.314" fill="#2278AB"/>
    <path d="M18.25,173.68 L-0,157.898 L18.25,142.108 L18.25,173.68" fill="#2374A6"/>
    <path d="M-0,157.898 L18.25,173.68 L-0,189.475 L-0,157.898" fill="#2B7AAC"/>
    <path d="M18.25,205.265 L-0,189.475 L18.25,173.68 L18.25,205.265" fill="#2172A3"/>
    <path d="M-0,189.475 L18.25,205.265 L-0,221.051 L-0,189.475" fill="#2374A5"/>
    <path d="M18.25,236.841 L-0,221.051 L18.25,205.265 L18.25,236.841" fill="#1F6C9D"/>
    <path d="M-0,221.051 L18.25,236.841 L-0,252.636 L-0,221.051" fill="#1A6A9B"/>
    <path d="M18.25,268.417 L-0,252.636 L18.25,236.841 L18.25,268.417" fill="#106090"/>
    <path d="M-0,252.636 L18.25,268.417 L-0,284.212 L-0,252.636" fill="#0C5E8D"/>
    <path d="M18.25,299.994 L-0,284.212 L18.25,268.417 L18.25,299.994" fill="#075683"/>
    <path d="M-0,284.212 L18.25,299.994 L-0,315.788 L-0,284.212" fill="#075683"/>
    <path d="M18.25,331.578 L-0,315.788 L18.25,299.994 L18.25,331.578" fill="#024E79"/>
    <path d="M-0,315.788 L18.25,331.578 L-0,347.373 L-0,315.788" fill="#024E78"/>
    <path d="M18.25,363.155 L-0,347.373 L18.25,331.578 L18.25,363.155" fill="#00456F"/>
    <path d="M-0,347.373 L18.25,363.155 L-0,378.949 L-0,347.373" fill="#00436D"/>
    <path d="M18.25,394.731 L-0,378.949 L18.25,363.155 L18.25,394.731" fill="#003965"/>
    <path d="M-0,378.949 L18.25,394.731 L-0,410.525 L-0,378.949" fill="#003763"/>
    <path d="M18.25,426.316 L-0,410.525 L18.25,394.731 L18.25,426.316" fill="#002F5B"/>
    <path d="M-0,410.525 L18.25,426.316 L-0,442.102 L-0,410.525" fill="#002E58"/>
    <path d="M18.25,457.892 L-0,442.102 L18.25,426.316 L18.25,457.892" fill="#002650"/>
    <path d="M-0,442.102 L18.25,457.892 L-0,473.686 L-0,442.102" fill="#00234F"/>
    <path d="M18.25,489.477 L-0,473.686 L18.25,457.892 L18.25,489.477" fill="#001B49"/>
    <path d="M-0,473.686 L18.25,489.477 L-0,505.263 L-0,473.686" fill="#001B47"/>
    <path d="M18.25,521.053 L-0,505.263 L18.25,489.477 L18.25,521.053" fill="#001241"/>
    <path d="M-0,505.263 L18.25,521.053 L-0,536.847 L-0,505.263" fill="#001140"/>
    <path d="M18.25,552.629 L-0,536.847 L18.25,521.053 L18.25,552.629" fill="#000C3C"/>
    <path d="M-0,536.847 L18.25,552.629 L-0,568.419 L-0,536.847" fill="#000B3B"/>
    <path d="M18.25,584.205 L-0,568.419 L18.25,552.629 L18.25,584.205" fill="#000A38"/>
    <path d="M-0,568.419 L18.25,584.206 L-0,600 L-0,568.419" fill="#000A38"/>
    <path d="M199.628,600 L181.378,600 L199.628,584.206 L199.628,600" fill="#000E3C"/>
    <path d="M163.652,584.206 L181.378,600 L163.652,600 L163.652,584.206" fill="#000E3C"/>
    <path d="M163.652,600 L145.402,600 L163.652,584.206 L163.652,600" fill="#000E3C"/>
    <path d="M127.143,584.206 L145.402,600 L127.143,600 L127.143,584.206" fill="#000E3C"/>
    <path d="M127.143,600 L108.896,600 L127.143,584.206 L127.143,600" fill="#000E3C"/>
    <path d="M90.645,584.206 L108.896,600 L90.645,600 L90.645,584.206" fill="#000E3C"/>
    <path d="M90.645,600 L72.386,600 L90.645,584.206 L90.645,600" fill="#000E3C"/>
    <path d="M54.757,584.206 L72.386,600 L54.757,600 L54.757,584.206" fill="#000E3C"/>
    <path d="M54.757,600 L36.501,600 L54.757,584.206 L54.757,600" fill="#000E3C"/>
    <path d="M18.25,584.206 L36.501,600 L18.25,600 L18.25,584.206" fill="#000E3C"/>
    <path d="M18.25,600 L-0,600 L18.25,584.206 L18.25,600" fill="#000E3C"/>
    <path d="M199.628,0 L181.378,0 L199.628,15.794 L199.628,0" fill="#E5F0F9"/>
    <path d="M163.652,15.794 L181.378,0 L163.652,0 L163.652,15.794" fill="#E5F0F9"/>
    <path d="M163.652,0 L145.402,0 L163.652,15.794 L163.652,0" fill="#E1EEF9"/>
    <path d="M127.143,15.794 L145.402,0 L127.143,0 L127.143,15.794" fill="#E1EEF9"/>
    <path d="M127.143,0 L108.896,0 L127.143,15.794 L127.143,0" fill="#9ED3F9"/>
    <path d="M90.645,15.794 L108.896,0 L90.645,0 L90.645,15.794" fill="#90CCF7"/>
    <path d="M90.645,0 L72.386,0 L90.645,15.794 L90.645,0" fill="#67B5E9"/>
    <path d="M54.757,15.794 L72.386,0 L54.757,0 L54.757,15.794" fill="#65B0E4"/>
    <path d="M54.757,0 L36.501,0 L54.757,15.794 L54.757,0" fill="#348DC6"/>
    <path d="M18.25,15.794 L36.501,0 L18.25,0 L18.25,15.794" fill="#2A82BB"/>
    <path d="M18.25,0 L-0,0 L18.25,15.794 L18.25,0" fill="#1D6998"/>
  </g>
</svg>
