<?xml version="1.0" encoding="UTF-8"?>
<!DOCTYPE svg PUBLIC "-//W3C//DTD SVG 1.1//EN" "http://www.w3.org/Graphics/SVG/1.1/DTD/svg11.dtd">
<svg version="1.1" xmlns="http://www.w3.org/2000/svg" xmlns:xlink="http://www.w3.org/1999/xlink" x="0" y="0" width="200" height="600" viewBox="0, 0, 200, 600">
  <g id="Layer_1">
    <path d="M199.604,473.686 L181.312,457.892 L199.604,442.102 L199.604,473.686" fill="#00234E"/>
    <path d="M163.108,442.102 L181.312,457.892 L163.108,473.686 L163.108,442.102" fill="#002653"/>
    <path d="M163.108,473.686 L144.897,457.892 L163.108,442.102 L163.108,473.686" fill="#00305B"/>
    <path d="M126.696,442.102 L144.897,457.892 L126.696,473.686 L126.696,442.102" fill="#003560"/>
    <path d="M126.696,473.686 L108.485,457.892 L126.696,442.102 L126.696,473.686" fill="#00436D"/>
    <path d="M90.281,442.102 L108.485,457.892 L90.281,473.686 L90.281,442.102" fill="#004A76"/>
    <path d="M90.281,473.686 L72.821,457.892 L90.281,442.102 L90.281,473.686" fill="#0B5885"/>
    <path d="M54.614,442.102 L72.821,457.892 L54.614,473.686 L54.614,442.102" fill="#0C5C8A"/>
    <path d="M54.614,473.686 L36.412,457.892 L54.614,442.102 L54.614,473.686" fill="#0E6193"/>
    <path d="M18.202,442.102 L36.412,457.892 L18.202,473.686 L18.202,442.102" fill="#13679A"/>
    <path d="M18.202,473.686 L-0,457.892 L18.202,442.102 L18.202,473.686" fill="#166CA1"/>
    <path d="M199.604,31.576 L181.312,15.79 L199.604,0 L199.604,31.576" fill="#2278AC"/>
    <path d="M181.312,15.79 L199.604,31.576 L181.312,47.367 L181.312,15.79" fill="#1F75AA"/>
    <path d="M199.604,63.161 L181.312,47.367 L199.604,31.576 L199.604,63.161" fill="#2279AD"/>
    <path d="M181.312,47.367 L199.604,63.161 L181.312,78.943 L181.312,47.367" fill="#13699B"/>
    <path d="M199.604,94.737 L181.312,78.943 L199.604,63.161 L199.604,94.737" fill="#146EA2"/>
    <path d="M181.312,78.943 L199.604,94.737 L181.312,110.519 L181.312,78.943" fill="#13699E"/>
    <path d="M199.604,126.314 L181.312,110.519 L199.604,94.737 L199.604,126.314" fill="#2179AF"/>
    <path d="M181.312,110.519 L199.604,126.314 L181.312,142.108 L181.312,110.519" fill="#146BA1"/>
    <path d="M199.604,157.898 L181.312,142.108 L199.604,126.314 L199.604,157.898" fill="#1772A9"/>
    <path d="M181.312,142.108 L199.604,157.898 L181.312,173.68 L181.312,142.108" fill="#0F699F"/>
    <path d="M199.604,189.475 L181.312,173.68 L199.604,157.898 L199.604,189.475" fill="#166FA5"/>
    <path d="M181.312,173.68 L199.604,189.475 L181.312,205.265 L181.312,173.68" fill="#0D6699"/>
    <path d="M199.604,221.051 L181.312,205.265 L199.604,189.475 L199.604,221.051" fill="#0F679D"/>
    <path d="M181.312,205.265 L199.604,221.051 L181.312,236.841 L181.312,205.265" fill="#0C6092"/>
    <path d="M199.604,252.636 L181.312,236.841 L199.604,221.051 L199.604,252.636" fill="#0E6394"/>
    <path d="M181.312,236.841 L199.604,252.636 L181.312,268.417 L181.312,236.841" fill="#0A5B8A"/>
    <path d="M199.604,284.212 L181.312,268.417 L199.604,252.636 L199.604,284.212" fill="#0A5B8B"/>
    <path d="M181.312,268.417 L199.604,284.212 L181.312,299.994 L181.312,268.417" fill="#075580"/>
    <path d="M199.604,315.788 L181.312,299.994 L199.604,284.212 L199.604,315.788" fill="#075581"/>
    <path d="M181.312,299.994 L199.604,315.788 L181.312,331.578 L181.312,299.994" fill="#024E77"/>
    <path d="M199.604,347.373 L181.312,331.578 L199.604,315.788 L199.604,347.373" fill="#024E77"/>
    <path d="M181.312,331.578 L199.604,347.373 L181.312,363.155 L181.312,331.578" fill="#00436D"/>
    <path d="M199.604,378.949 L181.312,363.155 L199.604,347.373 L199.604,378.949" fill="#00406B"/>
    <path d="M181.312,363.155 L199.604,378.949 L181.312,394.731 L181.312,363.155" fill="#003863"/>
    <path d="M199.604,410.525 L181.312,394.731 L199.604,378.949 L199.604,410.525" fill="#003762"/>
    <path d="M181.312,394.731 L199.604,410.525 L181.312,426.316 L181.312,394.731" fill="#002F5A"/>
    <path d="M199.604,442.102 L181.312,426.316 L199.604,410.525 L199.604,442.102" fill="#002C57"/>
    <path d="M181.312,426.316 L199.604,442.102 L181.312,457.892 L181.312,426.316" fill="#002550"/>
    <path d="M199.604,473.686 L181.312,457.892 L199.604,442.102 L199.604,473.686" fill="#00234E"/>
    <path d="M181.312,457.892 L199.604,473.686 L181.312,489.477 L181.312,457.892" fill="#001C49"/>
    <path d="M199.604,505.263 L181.312,489.477 L199.604,473.686 L199.604,505.263" fill="#001746"/>
    <path d="M181.312,489.477 L199.604,505.263 L181.312,521.053 L181.312,489.477" fill="#001241"/>
    <path d="M199.604,536.847 L181.312,521.053 L199.604,505.263 L199.604,536.847" fill="#00113F"/>
    <path d="M181.312,521.053 L199.604,536.847 L181.312,552.629 L181.312,521.053" fill="#000C3C"/>
    <path d="M199.604,568.419 L181.312,552.629 L199.604,536.847 L199.604,568.419" fill="#000B3B"/>
    <path d="M181.312,552.629 L199.604,568.419 L181.312,584.206 L181.312,552.629" fill="#000A38"/>
    <path d="M199.604,600 L181.312,584.206 L199.604,568.419 L199.604,600" fill="#000A39"/>
    <path d="M163.108,0 L181.312,15.79 L163.108,31.576 L163.108,0" fill="#2980B5"/>
    <path d="M181.312,47.367 L163.108,31.576 L181.312,15.79 L181.312,47.367" fill="#3186BE"/>
    <path d="M163.108,31.576 L181.312,47.367 L163.108,63.161 L163.108,31.576" fill="#3085BC"/>
    <path d="M181.312,78.943 L163.108,63.161 L181.312,47.367 L181.312,78.943" fill="#2D86BE"/>
    <path d="M163.108,63.161 L181.312,78.943 L163.108,94.737 L163.108,63.161" fill="#1F7AB1"/>
    <path d="M181.312,110.519 L163.108,94.737 L181.312,78.943 L181.312,110.519" fill="#3088C1"/>
    <path d="M163.108,94.737 L181.312,110.519 L163.108,126.314 L163.108,94.737" fill="#3088C1"/>
    <path d="M181.312,142.108 L163.108,126.314 L181.312,110.519 L181.312,142.108" fill="#358EC8"/>
    <path d="M163.108,126.314 L181.312,142.108 L163.108,157.898 L163.108,126.314" fill="#2682BC"/>
    <path d="M181.312,173.68 L163.108,157.898 L181.312,142.108 L181.312,173.68" fill="#1E7FBB"/>
    <path d="M163.108,157.898 L181.312,173.68 L163.108,189.475 L163.108,157.898" fill="#227EB6"/>
    <path d="M181.312,205.265 L163.108,189.475 L181.312,173.68 L181.312,205.265" fill="#1B7BB6"/>
    <path d="M163.108,189.475 L181.312,205.265 L163.108,221.051 L163.108,189.475" fill="#1573AA"/>
    <path d="M181.312,236.841 L163.108,221.051 L181.312,205.265 L181.312,236.841" fill="#1373AB"/>
    <path d="M163.108,221.051 L181.312,236.841 L163.108,252.636 L163.108,221.051" fill="#0E6BA0"/>
    <path d="M181.312,268.417 L163.108,252.636 L181.312,236.841 L181.312,268.417" fill="#0E6BA1"/>
    <path d="M163.108,252.636 L181.312,268.417 L163.108,284.212 L163.108,252.636" fill="#0D6496"/>
    <path d="M181.312,299.994 L163.108,284.212 L181.312,268.417 L181.312,299.994" fill="#0D6497"/>
    <path d="M163.108,284.212 L181.312,299.994 L163.108,315.788 L163.108,284.212" fill="#0A5D8D"/>
    <path d="M181.312,331.578 L163.108,315.788 L181.312,299.994 L181.312,331.578" fill="#0C5E8D"/>
    <path d="M163.108,315.788 L181.312,331.578 L163.108,347.373 L163.108,315.788" fill="#075581"/>
    <path d="M181.312,363.155 L163.108,347.373 L181.312,331.578 L181.312,363.155" fill="#075581"/>
    <path d="M163.108,347.373 L181.312,363.155 L163.108,378.949 L163.108,347.373" fill="#014B74"/>
    <path d="M181.312,394.731 L163.108,378.949 L181.312,363.155 L181.312,394.731" fill="#004873"/>
    <path d="M163.108,378.949 L181.312,394.731 L163.108,410.525 L163.108,378.949" fill="#003D68"/>
    <path d="M181.312,426.316 L163.108,410.525 L181.312,394.731 L181.312,426.316" fill="#003964"/>
    <path d="M163.108,410.525 L181.312,426.316 L163.108,442.102 L163.108,410.525" fill="#00305C"/>
    <path d="M181.312,457.892 L163.108,442.102 L181.312,426.316 L181.312,457.892" fill="#002F5A"/>
    <path d="M163.108,442.102 L181.312,457.892 L163.108,473.686 L163.108,442.102" fill="#002653"/>
    <path d="M181.312,489.477 L163.108,473.686 L181.312,457.892 L181.312,489.477" fill="#00234F"/>
    <path d="M163.108,473.686 L181.312,489.477 L163.108,505.263 L163.108,473.686" fill="#001B49"/>
    <path d="M181.312,521.053 L163.108,505.263 L181.312,489.477 L181.312,521.053" fill="#001B47"/>
    <path d="M163.108,505.263 L181.312,521.053 L163.108,536.847 L163.108,505.263" fill="#001241"/>
    <path d="M181.312,552.629 L163.108,536.847 L181.312,521.053 L181.312,552.629" fill="#001140"/>
    <path d="M163.108,536.847 L181.312,552.629 L163.108,568.419 L163.108,536.847" fill="#000C3C"/>
    <path d="M181.312,584.206 L163.108,568.419 L181.312,552.629 L181.312,584.206" fill="#000B3B"/>
    <path d="M163.108,568.419 L181.312,584.206 L163.108,600 L163.108,568.419" fill="#000A39"/>
    <path d="M163.108,31.576 L144.897,15.79 L163.108,0 L163.108,31.576" fill="#4B9ACF"/>
    <path d="M144.897,15.79 L163.108,31.576 L144.897,47.367 L144.897,15.79" fill="#4598CE"/>
    <path d="M163.108,63.161 L144.897,47.367 L163.108,31.576 L163.108,63.161" fill="#5FAADD"/>
    <path d="M144.897,47.367 L163.108,63.161 L144.897,78.943 L144.897,47.367" fill="#469BD3"/>
    <path d="M163.108,94.737 L144.897,78.943 L163.108,63.161 L163.108,94.737" fill="#6AB1E3"/>
    <path d="M144.897,78.943 L163.108,94.737 L144.897,110.519 L144.897,78.943" fill="#419AD4"/>
    <path d="M163.108,126.314 L144.897,110.519 L163.108,94.737 L163.108,126.314" fill="#4CA3DD"/>
    <path d="M144.897,110.519 L163.108,126.314 L144.897,142.108 L144.897,110.519" fill="#85C4F2"/>
    <path d="M163.108,157.898 L144.897,142.108 L163.108,126.314 L163.108,157.898" fill="#3D9BD8"/>
    <path d="M144.897,142.108 L163.108,157.898 L144.897,173.68 L144.897,142.108" fill="#2289C7"/>
    <path d="M163.108,189.475 L144.897,173.68 L163.108,157.898 L163.108,189.475" fill="#258DCC"/>
    <path d="M144.897,173.68 L163.108,189.475 L144.897,205.265 L144.897,173.68" fill="#1F86C2"/>
    <path d="M163.108,221.051 L144.897,205.265 L163.108,189.475 L163.108,221.051" fill="#2289C7"/>
    <path d="M144.897,205.265 L163.108,221.051 L144.897,236.841 L144.897,205.265" fill="#1C80BC"/>
    <path d="M163.108,252.636 L144.897,236.841 L163.108,221.051 L163.108,252.636" fill="#1C80BC"/>
    <path d="M144.897,236.841 L163.108,252.636 L144.897,268.417 L144.897,236.841" fill="#1879B2"/>
    <path d="M163.108,284.212 L144.897,268.417 L163.108,252.636 L163.108,284.212" fill="#1B7AB2"/>
    <path d="M144.897,268.417 L163.108,284.212 L144.897,299.994 L144.897,268.417" fill="#166FA5"/>
    <path d="M163.108,315.788 L144.897,299.994 L163.108,284.212 L163.108,315.788" fill="#1771A5"/>
    <path d="M144.897,299.994 L163.108,315.788 L144.897,331.578 L144.897,299.994" fill="#15679A"/>
    <path d="M163.108,347.373 L144.897,331.578 L163.108,315.788 L163.108,347.373" fill="#156799"/>
    <path d="M144.897,331.578 L163.108,347.373 L144.897,363.155 L144.897,331.578" fill="#0C5E8D"/>
    <path d="M163.108,378.949 L144.897,363.155 L163.108,347.373 L163.108,378.949" fill="#0C5C8B"/>
    <path d="M144.897,363.155 L163.108,378.949 L144.897,394.731 L144.897,363.155" fill="#04507D"/>
    <path d="M163.108,410.525 L144.897,394.731 L163.108,378.949 L163.108,410.525" fill="#024E78"/>
    <path d="M144.897,394.731 L163.108,410.525 L144.897,426.316 L144.897,394.731" fill="#00406B"/>
    <path d="M163.108,442.102 L144.897,426.316 L163.108,410.525 L163.108,442.102" fill="#003D68"/>
    <path d="M144.897,426.316 L163.108,442.102 L144.897,457.892 L144.897,426.316" fill="#00335F"/>
    <path d="M163.108,473.686 L144.897,457.892 L163.108,442.102 L163.108,473.686" fill="#00305B"/>
    <path d="M144.897,457.892 L163.108,473.686 L144.897,489.477 L144.897,457.892" fill="#002754"/>
    <path d="M163.108,505.263 L144.897,489.477 L163.108,473.686 L163.108,505.263" fill="#002550"/>
    <path d="M144.897,489.477 L163.108,505.263 L144.897,521.053 L144.897,489.477" fill="#001E4A"/>
    <path d="M163.108,536.847 L144.897,521.053 L163.108,505.263 L163.108,536.847" fill="#001B47"/>
    <path d="M144.897,521.053 L163.108,536.847 L144.897,552.629 L144.897,521.053" fill="#001441"/>
    <path d="M163.108,568.419 L144.897,552.629 L163.108,536.847 L163.108,568.419" fill="#001140"/>
    <path d="M144.897,552.629 L163.108,568.419 L144.897,584.206 L144.897,552.629" fill="#000C3C"/>
    <path d="M163.108,600 L144.897,584.206 L163.108,568.419 L163.108,600" fill="#000E3C"/>
    <path d="M126.696,0 L144.897,15.79 L126.696,31.576 L126.696,0" fill="#5AA5D8"/>
    <path d="M144.897,47.367 L126.696,31.576 L144.897,15.79 L144.897,47.367" fill="#85BFE9"/>
    <path d="M126.696,31.576 L144.897,47.367 L126.696,63.161 L126.696,31.576" fill="#88C2EB"/>
    <path d="M144.897,78.943 L126.696,63.161 L144.897,47.367 L144.897,78.943" fill="#A1CFF2"/>
    <path d="M126.696,63.161 L144.897,78.943 L126.696,94.737 L126.696,63.161" fill="#95C9F0"/>
    <path d="M144.897,110.519 L126.696,94.737 L144.897,78.943 L144.897,110.519" fill="#7FC2F2"/>
    <path d="M126.696,94.737 L144.897,110.519 L126.696,126.314 L126.696,94.737" fill="#50ACE8"/>
    <path d="M144.897,142.108 L126.696,126.314 L144.897,110.519 L144.897,142.108" fill="#51ADEB"/>
    <path d="M126.696,126.314 L144.897,142.108 L126.696,157.898 L126.696,126.314" fill="#43A5E3"/>
    <path d="M144.897,173.68 L126.696,157.898 L144.897,142.108 L144.897,173.68" fill="#3BA2E4"/>
    <path d="M126.696,157.898 L144.897,173.68 L126.696,189.475 L126.696,157.898" fill="#309ADC"/>
    <path d="M144.897,205.265 L126.696,189.475 L144.897,173.68 L144.897,205.265" fill="#2B9ADD"/>
    <path d="M126.696,189.475 L144.897,205.265 L126.696,221.051 L126.696,189.475" fill="#2792D3"/>
    <path d="M144.897,236.841 L126.696,221.051 L144.897,205.265 L144.897,236.841" fill="#2692D3"/>
    <path d="M126.696,221.051 L144.897,236.841 L126.696,252.636 L126.696,221.051" fill="#2289C8"/>
    <path d="M144.897,268.417 L126.696,252.636 L144.897,236.841 L144.897,268.417" fill="#268BC8"/>
    <path d="M126.696,252.636 L144.897,268.417 L126.696,284.212 L126.696,252.636" fill="#2385BF"/>
    <path d="M144.897,299.994 L126.696,284.212 L144.897,268.417 L144.897,299.994" fill="#2683BE"/>
    <path d="M126.696,284.212 L144.897,299.994 L126.696,315.788 L126.696,284.212" fill="#1F7AB2"/>
    <path d="M144.897,331.578 L126.696,315.788 L144.897,299.994 L144.897,331.578" fill="#217AB1"/>
    <path d="M126.696,315.788 L144.897,331.578 L126.696,347.373 L126.696,315.788" fill="#1C71A5"/>
    <path d="M144.897,363.155 L126.696,347.373 L144.897,331.578 L144.897,363.155" fill="#196FA3"/>
    <path d="M126.696,347.373 L144.897,363.155 L126.696,378.949 L126.696,347.373" fill="#146495"/>
    <path d="M144.897,394.731 L126.696,378.949 L144.897,363.155 L144.897,394.731" fill="#0E5F90"/>
    <path d="M126.696,378.949 L144.897,394.731 L126.696,410.525 L126.696,378.949" fill="#075581"/>
    <path d="M144.897,426.316 L126.696,410.525 L144.897,394.731 L144.897,426.316" fill="#024F7C"/>
    <path d="M126.696,410.525 L144.897,426.316 L126.696,442.102 L126.696,410.525" fill="#00436D"/>
    <path d="M144.897,457.892 L126.696,442.102 L144.897,426.316 L144.897,457.892" fill="#003E69"/>
    <path d="M126.696,442.102 L144.897,457.892 L126.696,473.686 L126.696,442.102" fill="#003560"/>
    <path d="M144.897,489.477 L126.696,473.686 L144.897,457.892 L144.897,489.477" fill="#00305B"/>
    <path d="M126.696,473.686 L144.897,489.477 L126.696,505.263 L126.696,473.686" fill="#002754"/>
    <path d="M144.897,521.053 L126.696,505.263 L144.897,489.477 L144.897,521.053" fill="#002550"/>
    <path d="M126.696,505.263 L144.897,521.053 L126.696,536.847 L126.696,505.263" fill="#001E4A"/>
    <path d="M144.897,552.629 L126.696,536.847 L144.897,521.053 L144.897,552.629" fill="#001B47"/>
    <path d="M126.696,536.847 L144.897,552.629 L126.696,568.419 L126.696,536.847" fill="#001241"/>
    <path d="M144.897,584.206 L126.696,568.419 L144.897,552.629 L144.897,584.206" fill="#00113F"/>
    <path d="M126.696,568.419 L144.897,584.206 L126.696,600 L126.696,568.419" fill="#00113E"/>
    <path d="M126.696,31.576 L108.485,15.79 L126.696,0 L126.696,31.576" fill="#9CCCEE"/>
    <path d="M108.485,15.79 L126.696,31.576 L108.485,47.367 L108.485,15.79" fill="#A7D2F0"/>
    <path d="M126.696,63.161 L108.485,47.367 L126.696,31.576 L126.696,63.161" fill="#C2E0F6"/>
    <path d="M108.485,47.367 L126.696,63.161 L108.485,78.943 L108.485,47.367" fill="#BBDDF6"/>
    <path d="M126.696,94.737 L108.485,78.943 L126.696,63.161 L126.696,94.737" fill="#C8E3F8"/>
    <path d="M108.485,78.943 L126.696,94.737 L108.485,110.519 L108.485,78.943" fill="#AAD7F7"/>
    <path d="M126.696,126.314 L108.485,110.519 L126.696,94.737 L126.696,126.314" fill="#A9D7F9"/>
    <path d="M108.485,110.519 L126.696,126.314 L108.485,142.108 L108.485,110.519" fill="#A2D3F7"/>
    <path d="M126.696,157.898 L108.485,142.108 L126.696,126.314 L126.696,157.898" fill="#97D0F8"/>
    <path d="M108.485,142.108 L126.696,157.898 L108.485,173.68 L108.485,142.108" fill="#6FBEF4"/>
    <path d="M126.696,189.475 L108.485,173.68 L126.696,157.898 L126.696,189.475" fill="#54B5F5"/>
    <path d="M108.485,173.68 L126.696,189.475 L108.485,205.265 L108.485,173.68" fill="#45AAEB"/>
    <path d="M126.696,221.051 L108.485,205.265 L126.696,189.475 L126.696,221.051" fill="#37A7ED"/>
    <path d="M108.485,205.265 L126.696,221.051 L108.485,236.841 L108.485,205.265" fill="#2B9CE1"/>
    <path d="M126.696,252.636 L108.485,236.841 L126.696,221.051 L126.696,252.636" fill="#329FE2"/>
    <path d="M108.485,236.841 L126.696,252.636 L108.485,268.417 L108.485,236.841" fill="#3095D5"/>
    <path d="M126.696,284.212 L108.485,268.417 L126.696,252.636 L126.696,284.212" fill="#3496D4"/>
    <path d="M108.485,268.417 L126.696,284.212 L108.485,299.994 L108.485,268.417" fill="#318EC9"/>
    <path d="M126.696,315.788 L108.485,299.994 L126.696,284.212 L126.696,315.788" fill="#318DC6"/>
    <path d="M108.485,299.994 L126.696,315.788 L108.485,331.578 L108.485,299.994" fill="#2983BB"/>
    <path d="M126.696,347.373 L108.485,331.578 L126.696,315.788 L126.696,347.373" fill="#2981B8"/>
    <path d="M108.485,331.578 L126.696,347.373 L108.485,363.155 L108.485,331.578" fill="#2176AB"/>
    <path d="M126.696,378.949 L108.485,363.155 L126.696,347.373 L126.696,378.949" fill="#1C73A6"/>
    <path d="M108.485,363.155 L126.696,378.949 L108.485,394.731 L108.485,363.155" fill="#156799"/>
    <path d="M126.696,410.525 L108.485,394.731 L126.696,378.949 L126.696,410.525" fill="#106394"/>
    <path d="M108.485,394.731 L126.696,410.525 L108.485,426.316 L108.485,394.731" fill="#095785"/>
    <path d="M126.696,442.102 L108.485,426.316 L126.696,410.525 L126.696,442.102" fill="#07547F"/>
    <path d="M108.485,426.316 L126.696,442.102 L108.485,457.892 L108.485,426.316" fill="#004773"/>
    <path d="M126.696,473.686 L108.485,457.892 L126.696,442.102 L126.696,473.686" fill="#00436D"/>
    <path d="M108.485,457.892 L126.696,473.686 L108.485,489.477 L108.485,457.892" fill="#003662"/>
    <path d="M126.696,505.263 L108.485,489.477 L126.696,473.686 L126.696,505.263" fill="#00305C"/>
    <path d="M108.485,489.477 L126.696,505.263 L108.485,521.053 L108.485,489.477" fill="#002754"/>
    <path d="M126.696,536.847 L108.485,521.053 L126.696,505.263 L126.696,536.847" fill="#00234F"/>
    <path d="M108.485,521.053 L126.696,536.847 L108.485,552.629 L108.485,521.053" fill="#001B49"/>
    <path d="M126.696,568.419 L108.485,552.629 L126.696,536.847 L126.696,568.419" fill="#001746"/>
    <path d="M108.485,552.629 L126.696,568.419 L108.485,584.206 L108.485,552.629" fill="#001240"/>
    <path d="M126.696,600 L108.485,584.206 L126.696,568.419 L126.696,600" fill="#001240"/>
    <path d="M90.281,0 L108.485,15.79 L90.281,31.576 L90.281,0" fill="#AED8F6"/>
    <path d="M108.485,47.367 L90.281,31.576 L108.485,15.79 L108.485,47.367" fill="#C0E0F9"/>
    <path d="M90.281,31.576 L108.485,47.367 L90.281,63.161 L90.281,31.576" fill="#D3E9F9"/>
    <path d="M108.485,78.943 L90.281,63.161 L108.485,47.367 L108.485,78.943" fill="#D2E8F9"/>
    <path d="M90.281,63.161 L108.485,78.943 L90.281,94.737 L90.281,63.161" fill="#D6E9F9"/>
    <path d="M108.485,110.519 L90.281,94.737 L108.485,78.943 L108.485,110.519" fill="#ACD9F9"/>
    <path d="M90.281,94.737 L108.485,110.519 L90.281,126.314 L90.281,94.737" fill="#9CD2F9"/>
    <path d="M108.485,142.108 L90.281,126.314 L108.485,110.519 L108.485,142.108" fill="#95CFF9"/>
    <path d="M90.281,126.314 L108.485,142.108 L90.281,157.898 L90.281,126.314" fill="#A1D3F9"/>
    <path d="M108.485,173.68 L90.281,157.898 L108.485,142.108 L108.485,173.68" fill="#98D1F9"/>
    <path d="M90.281,157.898 L108.485,173.68 L90.281,189.475 L90.281,157.898" fill="#78C4F9"/>
    <path d="M108.485,205.265 L90.281,189.475 L108.485,173.68 L108.485,205.265" fill="#7FC6F9"/>
    <path d="M90.281,189.475 L108.485,205.265 L90.281,221.051 L90.281,189.475" fill="#41B1F7"/>
    <path d="M108.485,236.841 L90.281,221.051 L108.485,205.265 L108.485,236.841" fill="#40AFF6"/>
    <path d="M90.281,221.051 L108.485,236.841 L90.281,252.636 L90.281,221.051" fill="#3FAAEE"/>
    <path d="M108.485,268.417 L90.281,252.636 L108.485,236.841 L108.485,268.417" fill="#4AADED"/>
    <path d="M90.281,252.636 L108.485,268.417 L90.281,284.212 L90.281,252.636" fill="#44A5E1"/>
    <path d="M108.485,299.994 L90.281,284.212 L108.485,268.417 L108.485,299.994" fill="#49A3DD"/>
    <path d="M90.281,284.212 L108.485,299.994 L90.281,315.788 L90.281,284.212" fill="#4098D1"/>
    <path d="M108.485,331.578 L90.281,315.788 L108.485,299.994 L108.485,331.578" fill="#3A92CC"/>
    <path d="M90.281,315.788 L108.485,331.578 L90.281,347.373 L90.281,315.788" fill="#2A85BE"/>
    <path d="M108.485,363.155 L90.281,347.373 L108.485,331.578 L108.485,363.155" fill="#2680B8"/>
    <path d="M90.281,347.373 L108.485,363.155 L90.281,378.949 L90.281,347.373" fill="#2178AC"/>
    <path d="M108.485,394.731 L90.281,378.949 L108.485,363.155 L108.485,394.731" fill="#1E74A7"/>
    <path d="M90.281,378.949 L108.485,394.731 L90.281,410.525 L90.281,378.949" fill="#16699B"/>
    <path d="M108.485,426.316 L90.281,410.525 L108.485,394.731 L108.485,426.316" fill="#136596"/>
    <path d="M90.281,410.525 L108.485,426.316 L90.281,442.102 L90.281,410.525" fill="#0A5B88"/>
    <path d="M108.485,457.892 L90.281,442.102 L108.485,426.316 L108.485,457.892" fill="#095784"/>
    <path d="M90.281,442.102 L108.485,457.892 L90.281,473.686 L90.281,442.102" fill="#004A76"/>
    <path d="M108.485,489.477 L90.281,473.686 L108.485,457.892 L108.485,489.477" fill="#00436F"/>
    <path d="M90.281,473.686 L108.485,489.477 L90.281,505.263 L90.281,473.686" fill="#003763"/>
    <path d="M108.485,521.053 L90.281,505.263 L108.485,489.477 L108.485,521.053" fill="#002F5C"/>
    <path d="M90.281,505.263 L108.485,521.053 L90.281,536.847 L90.281,505.263" fill="#002653"/>
    <path d="M108.485,552.629 L90.281,536.847 L108.485,521.053 L108.485,552.629" fill="#00214E"/>
    <path d="M90.281,536.847 L108.485,552.629 L90.281,568.419 L90.281,536.847" fill="#001847"/>
    <path d="M108.485,584.206 L90.281,568.419 L108.485,552.629 L108.485,584.206" fill="#001545"/>
    <path d="M90.281,568.419 L108.485,584.206 L90.281,600 L90.281,568.419" fill="#001441"/>
    <path d="M90.281,31.576 L72.821,15.79 L90.281,0 L90.281,31.576" fill="#DEEDF9"/>
    <path d="M72.821,15.79 L90.281,31.576 L72.821,47.367 L72.821,15.79" fill="#BDDFF9"/>
    <path d="M90.281,63.161 L72.821,47.367 L90.281,31.576 L90.281,63.161" fill="#B9DEF9"/>
    <path d="M72.821,47.367 L90.281,63.161 L72.821,78.943 L72.821,47.367" fill="#A5D5F9"/>
    <path d="M90.281,94.737 L72.821,78.943 L90.281,63.161 L90.281,94.737" fill="#A3D4F9"/>
    <path d="M72.821,78.943 L90.281,94.737 L72.821,110.519 L72.821,78.943" fill="#A2D4F9"/>
    <path d="M90.281,126.314 L72.821,110.519 L90.281,94.737 L90.281,126.314" fill="#ABD9F9"/>
    <path d="M72.821,110.519 L90.281,126.314 L72.821,142.108 L72.821,110.519" fill="#9ED3F9"/>
    <path d="M90.281,157.898 L72.821,142.108 L90.281,126.314 L90.281,157.898" fill="#A7D5F9"/>
    <path d="M72.821,142.108 L90.281,157.898 L72.821,173.68 L72.821,142.108" fill="#ACD9F9"/>
    <path d="M90.281,189.475 L72.821,173.68 L90.281,157.898 L90.281,189.475" fill="#ACD9F9"/>
    <path d="M72.821,173.68 L90.281,189.475 L72.821,205.265 L72.821,173.68" fill="#A1D3F9"/>
    <path d="M90.281,221.051 L72.821,205.265 L90.281,189.475 L90.281,221.051" fill="#B1DAF9"/>
    <path d="M72.821,205.265 L90.281,221.051 L72.821,236.841 L72.821,205.265" fill="#71C2F9"/>
    <path d="M90.281,252.636 L72.821,236.841 L90.281,221.051 L90.281,252.636" fill="#49B4F9"/>
    <path d="M72.821,236.841 L90.281,252.636 L72.821,268.417 L72.821,236.841" fill="#50B3F4"/>
    <path d="M90.281,284.212 L72.821,268.417 L90.281,252.636 L90.281,284.212" fill="#53B3F2"/>
    <path d="M72.821,268.417 L90.281,284.212 L72.821,299.994 L72.821,268.417" fill="#4DAAE6"/>
    <path d="M90.281,315.788 L72.821,299.994 L90.281,284.212 L90.281,315.788" fill="#41A1DF"/>
    <path d="M72.821,299.994 L90.281,315.788 L72.821,331.578 L72.821,299.994" fill="#3795D1"/>
    <path d="M90.281,347.373 L72.821,331.578 L90.281,315.788 L90.281,347.373" fill="#2B8ECC"/>
    <path d="M72.821,331.578 L90.281,347.373 L72.821,363.155 L72.821,331.578" fill="#2382BC"/>
    <path d="M90.281,378.949 L72.821,363.155 L90.281,347.373 L90.281,378.949" fill="#207EB6"/>
    <path d="M72.821,363.155 L90.281,378.949 L72.821,394.731 L72.821,363.155" fill="#1F76AB"/>
    <path d="M90.281,410.525 L72.821,394.731 L90.281,378.949 L90.281,410.525" fill="#1E72A6"/>
    <path d="M72.821,394.731 L90.281,410.525 L72.821,426.316 L72.821,394.731" fill="#186A9D"/>
    <path d="M90.281,442.102 L72.821,426.316 L90.281,410.525 L90.281,442.102" fill="#166798"/>
    <path d="M72.821,426.316 L90.281,442.102 L72.821,457.892 L72.821,426.316" fill="#0E5E8C"/>
    <path d="M90.281,473.686 L72.821,457.892 L90.281,442.102 L90.281,473.686" fill="#0B5885"/>
    <path d="M72.821,457.892 L90.281,473.686 L72.821,489.477 L72.821,457.892" fill="#004976"/>
    <path d="M90.281,505.263 L72.821,489.477 L90.281,473.686 L90.281,505.263" fill="#00406C"/>
    <path d="M72.821,489.477 L90.281,505.263 L72.821,521.053 L72.821,489.477" fill="#003360"/>
    <path d="M90.281,536.847 L72.821,521.053 L90.281,505.263 L90.281,536.847" fill="#002C58"/>
    <path d="M72.821,521.053 L90.281,536.847 L72.821,552.629 L72.821,521.053" fill="#00254F"/>
    <path d="M90.281,568.419 L72.821,552.629 L90.281,536.847 L90.281,568.419" fill="#001F4C"/>
    <path d="M72.821,552.629 L90.281,568.419 L72.821,584.206 L72.821,552.629" fill="#001746"/>
    <path d="M90.281,600 L72.821,584.206 L90.281,568.419 L90.281,600" fill="#001544"/>
    <path d="M54.614,0 L72.821,15.79 L54.614,31.576 L54.614,0" fill="#E3EFF9"/>
    <path d="M72.821,47.367 L54.614,31.576 L72.821,15.79 L72.821,47.367" fill="#D9EAF9"/>
    <path d="M54.614,31.576 L72.821,47.367 L54.614,63.161 L54.614,31.576" fill="#BDDFF9"/>
    <path d="M72.821,78.943 L54.614,63.161 L72.821,47.367 L72.821,78.943" fill="#D7EAF9"/>
    <path d="M54.614,63.161 L72.821,78.943 L54.614,94.737 L54.614,63.161" fill="#B6DCF9"/>
    <path d="M72.821,110.519 L54.614,94.737 L72.821,78.943 L72.821,110.519" fill="#BEE0F9"/>
    <path d="M54.614,94.737 L72.821,110.519 L54.614,126.314 L54.614,94.737" fill="#B4DAF9"/>
    <path d="M72.821,142.108 L54.614,126.314 L72.821,110.519 L72.821,142.108" fill="#B0DAF9"/>
    <path d="M54.614,126.314 L72.821,142.108 L54.614,157.898 L54.614,126.314" fill="#A8D7F9"/>
    <path d="M72.821,173.68 L54.614,157.898 L72.821,142.108 L72.821,173.68" fill="#AFD9F9"/>
    <path d="M54.614,157.898 L72.821,173.68 L54.614,189.475 L54.614,157.898" fill="#B5DBF9"/>
    <path d="M72.821,205.265 L54.614,189.475 L72.821,173.68 L72.821,205.265" fill="#97D0F9"/>
    <path d="M54.614,189.475 L72.821,205.265 L54.614,221.051 L54.614,189.475" fill="#67BEF9"/>
    <path d="M72.821,236.841 L54.614,221.051 L72.821,205.265 L72.821,236.841" fill="#48B3F9"/>
    <path d="M54.614,221.051 L72.821,236.841 L54.614,252.636 L54.614,221.051" fill="#47B3F9"/>
    <path d="M72.821,268.417 L54.614,252.636 L72.821,236.841 L72.821,268.417" fill="#43B2F9"/>
    <path d="M54.614,252.636 L72.821,268.417 L54.614,284.212 L54.614,252.636" fill="#4BB3F6"/>
    <path d="M72.821,299.994 L54.614,284.212 L72.821,268.417 L72.821,299.994" fill="#3BAAF0"/>
    <path d="M54.614,284.212 L72.821,299.994 L54.614,315.788 L54.614,284.212" fill="#3DA4E6"/>
    <path d="M72.821,331.578 L54.614,315.788 L72.821,299.994 L72.821,331.578" fill="#3AA0E1"/>
    <path d="M54.614,315.788 L72.821,331.578 L54.614,347.373 L54.614,315.788" fill="#389AD9"/>
    <path d="M72.821,363.155 L54.614,347.373 L72.821,331.578 L72.821,363.155" fill="#3295D3"/>
    <path d="M54.614,347.373 L72.821,363.155 L54.614,378.949 L54.614,347.373" fill="#2080BB"/>
    <path d="M72.821,394.731 L54.614,378.949 L72.821,363.155 L72.821,394.731" fill="#1B7AB2"/>
    <path d="M54.614,378.949 L72.821,394.731 L54.614,410.525 L54.614,378.949" fill="#1E74AA"/>
    <path d="M72.821,426.316 L54.614,410.525 L72.821,394.731 L72.821,426.316" fill="#1C71A5"/>
    <path d="M54.614,410.525 L72.821,426.316 L54.614,442.102 L54.614,410.525" fill="#196C9F"/>
    <path d="M72.821,457.892 L54.614,442.102 L72.821,426.316 L72.821,457.892" fill="#156596"/>
    <path d="M54.614,442.102 L72.821,457.892 L54.614,473.686 L54.614,442.102" fill="#0C5C8A"/>
    <path d="M72.821,489.477 L54.614,473.686 L72.821,457.892 L72.821,489.477" fill="#025480"/>
    <path d="M54.614,473.686 L72.821,489.477 L54.614,505.263 L54.614,473.686" fill="#004573"/>
    <path d="M72.821,521.053 L54.614,505.263 L72.821,489.477 L72.821,521.053" fill="#003D69"/>
    <path d="M54.614,505.263 L72.821,521.053 L54.614,536.847 L54.614,505.263" fill="#002F5C"/>
    <path d="M72.821,552.629 L54.614,536.847 L72.821,521.053 L72.821,552.629" fill="#002955"/>
    <path d="M54.614,536.847 L72.821,552.629 L54.614,568.419 L54.614,536.847" fill="#00214D"/>
    <path d="M72.821,584.206 L54.614,568.419 L72.821,552.629 L72.821,584.206" fill="#001C49"/>
    <path d="M54.614,568.419 L72.821,584.206 L54.614,600 L54.614,568.419" fill="#001545"/>
    <path d="M54.614,31.576 L36.412,15.79 L54.614,0 L54.614,31.576" fill="#CCE6F9"/>
    <path d="M36.412,15.79 L54.614,31.576 L36.412,47.367 L36.412,15.79" fill="#D4E9F9"/>
    <path d="M54.614,63.161 L36.412,47.367 L54.614,31.576 L54.614,63.161" fill="#EFF5F9"/>
    <path d="M36.412,47.367 L54.614,63.161 L36.412,78.943 L36.412,47.367" fill="#F2F6F9"/>
    <path d="M54.614,94.737 L36.412,78.943 L54.614,63.161 L54.614,94.737" fill="#F3F6F9"/>
    <path d="M36.412,78.943 L54.614,94.737 L36.412,110.519 L36.412,78.943" fill="#D7EAF9"/>
    <path d="M54.614,126.314 L36.412,110.519 L54.614,94.737 L54.614,126.314" fill="#D2E8F9"/>
    <path d="M36.412,110.519 L54.614,126.314 L36.412,142.108 L36.412,110.519" fill="#BEE0F9"/>
    <path d="M54.614,157.898 L36.412,142.108 L54.614,126.314 L54.614,157.898" fill="#BCDEF9"/>
    <path d="M36.412,142.108 L54.614,157.898 L36.412,173.68 L36.412,142.108" fill="#9DD3F9"/>
    <path d="M54.614,189.475 L36.412,173.68 L54.614,157.898 L54.614,189.475" fill="#8FCCF9"/>
    <path d="M36.412,173.68 L54.614,189.475 L36.412,205.265 L36.412,173.68" fill="#7DC6F9"/>
    <path d="M54.614,221.051 L36.412,205.265 L54.614,189.475 L54.614,221.051" fill="#6FC1F9"/>
    <path d="M36.412,205.265 L54.614,221.051 L36.412,236.841 L36.412,205.265" fill="#63BCF9"/>
    <path d="M54.614,252.636 L36.412,236.841 L54.614,221.051 L54.614,252.636" fill="#49B4F9"/>
    <path d="M36.412,236.841 L54.614,252.636 L36.412,268.417 L36.412,236.841" fill="#3AAFF9"/>
    <path d="M54.614,284.212 L36.412,268.417 L54.614,252.636 L54.614,284.212" fill="#39AFF9"/>
    <path d="M36.412,268.417 L54.614,284.212 L36.412,299.994 L36.412,268.417" fill="#38ADF5"/>
    <path d="M54.614,315.788 L36.412,299.994 L54.614,284.212 L54.614,315.788" fill="#37A7EF"/>
    <path d="M36.412,299.994 L54.614,315.788 L36.412,331.578 L36.412,299.994" fill="#37A1E4"/>
    <path d="M54.614,347.373 L36.412,331.578 L54.614,315.788 L54.614,347.373" fill="#369EDF"/>
    <path d="M36.412,331.578 L54.614,347.373 L36.412,363.155 L36.412,331.578" fill="#3398D7"/>
    <path d="M54.614,378.949 L36.412,363.155 L54.614,347.373 L54.614,378.949" fill="#2589C6"/>
    <path d="M36.412,363.155 L54.614,378.949 L36.412,394.731 L36.412,363.155" fill="#2280B9"/>
    <path d="M54.614,410.525 L36.412,394.731 L54.614,378.949 L54.614,410.525" fill="#247CB2"/>
    <path d="M36.412,394.731 L54.614,410.525 L36.412,426.316 L36.412,394.731" fill="#1C73A7"/>
    <path d="M54.614,442.102 L36.412,426.316 L54.614,410.525 L54.614,442.102" fill="#186EA2"/>
    <path d="M36.412,426.316 L54.614,442.102 L36.412,457.892 L36.412,426.316" fill="#136698"/>
    <path d="M54.614,473.686 L36.412,457.892 L54.614,442.102 L54.614,473.686" fill="#0E6193"/>
    <path d="M36.412,457.892 L54.614,473.686 L36.412,489.477 L36.412,457.892" fill="#095785"/>
    <path d="M54.614,505.263 L36.412,489.477 L54.614,473.686 L54.614,505.263" fill="#004E7C"/>
    <path d="M36.412,489.477 L54.614,505.263 L36.412,521.053 L36.412,489.477" fill="#00426F"/>
    <path d="M54.614,536.847 L36.412,521.053 L54.614,505.263 L54.614,536.847" fill="#003866"/>
    <path d="M36.412,521.053 L54.614,536.847 L36.412,552.629 L36.412,521.053" fill="#002D5A"/>
    <path d="M54.614,568.419 L36.412,552.629 L54.614,536.847 L54.614,568.419" fill="#002655"/>
    <path d="M36.412,552.629 L54.614,568.419 L36.412,584.206 L36.412,552.629" fill="#001E4C"/>
    <path d="M54.614,600 L36.412,584.206 L54.614,568.419 L54.614,600" fill="#001B49"/>
    <path d="M18.202,0 L36.412,15.79 L18.202,31.576 L18.202,0" fill="#BDDFF9"/>
    <path d="M36.412,47.367 L18.202,31.576 L36.412,15.79 L36.412,47.367" fill="#CBE5F9"/>
    <path d="M18.202,31.576 L36.412,47.367 L18.202,63.161 L18.202,31.576" fill="#DDEEF9"/>
    <path d="M36.412,78.943 L18.202,63.161 L36.412,47.367 L36.412,78.943" fill="#ECF3F9"/>
    <path d="M18.202,63.161 L36.412,78.943 L18.202,94.737 L18.202,63.161" fill="#EFF5F9"/>
    <path d="M36.412,110.519 L18.202,94.737 L36.412,78.943 L36.412,110.519" fill="#ECF3F9"/>
    <path d="M18.202,94.737 L36.412,110.519 L18.202,126.314 L18.202,94.737" fill="#E4EFF9"/>
    <path d="M36.412,142.108 L18.202,126.314 L36.412,110.519 L36.412,142.108" fill="#CEE6F9"/>
    <path d="M18.202,126.314 L36.412,142.108 L18.202,157.898 L18.202,126.314" fill="#B1DAF9"/>
    <path d="M36.412,173.68 L18.202,157.898 L36.412,142.108 L36.412,173.68" fill="#B1DAF9"/>
    <path d="M18.202,157.898 L36.412,173.68 L18.202,189.475 L18.202,157.898" fill="#93CEF9"/>
    <path d="M36.412,205.265 L18.202,189.475 L36.412,173.68 L36.412,205.265" fill="#96D0F9"/>
    <path d="M18.202,189.475 L36.412,205.265 L18.202,221.051 L18.202,189.475" fill="#86C9F9"/>
    <path d="M36.412,236.841 L18.202,221.051 L36.412,205.265 L36.412,236.841" fill="#7BC5F9"/>
    <path d="M18.202,221.051 L36.412,236.841 L18.202,252.636 L18.202,221.051" fill="#93CEF9"/>
    <path d="M36.412,268.417 L18.202,252.636 L36.412,236.841 L36.412,268.417" fill="#96D0F9"/>
    <path d="M18.202,252.636 L36.412,268.417 L18.202,284.212 L18.202,252.636" fill="#3BB1F9"/>
    <path d="M36.412,299.994 L18.202,284.212 L36.412,268.417 L36.412,299.994" fill="#3EB1F9"/>
    <path d="M18.202,284.212 L36.412,299.994 L18.202,315.788 L18.202,284.212" fill="#3CACF2"/>
    <path d="M36.412,331.578 L18.202,315.788 L36.412,299.994 L36.412,331.578" fill="#38A5E9"/>
    <path d="M18.202,315.788 L36.412,331.578 L18.202,347.373 L18.202,315.788" fill="#74B9EA"/>
    <path d="M36.412,363.155 L18.202,347.373 L36.412,331.578 L36.412,363.155" fill="#74B5E3"/>
    <path d="M18.202,347.373 L36.412,363.155 L18.202,378.949 L18.202,347.373" fill="#298CC9"/>
    <path d="M36.412,394.731 L18.202,378.949 L36.412,363.155 L36.412,394.731" fill="#2A88C2"/>
    <path d="M18.202,378.949 L36.412,394.731 L18.202,410.525 L18.202,378.949" fill="#237FB7"/>
    <path d="M36.412,426.316 L18.202,410.525 L36.412,394.731 L36.412,426.316" fill="#267FB6"/>
    <path d="M18.202,410.525 L36.412,426.316 L18.202,442.102 L18.202,410.525" fill="#1E75AA"/>
    <path d="M36.412,457.892 L18.202,442.102 L36.412,426.316 L36.412,457.892" fill="#1972A5"/>
    <path d="M18.202,442.102 L36.412,457.892 L18.202,473.686 L18.202,442.102" fill="#13679A"/>
    <path d="M36.412,489.477 L18.202,473.686 L36.412,457.892 L36.412,489.477" fill="#0E6394"/>
    <path d="M18.202,473.686 L36.412,489.477 L18.202,505.263 L18.202,473.686" fill="#025483"/>
    <path d="M36.412,521.053 L18.202,505.263 L36.412,489.477 L36.412,521.053" fill="#004F7E"/>
    <path d="M18.202,505.263 L36.412,521.053 L18.202,536.847 L18.202,505.263" fill="#003D6B"/>
    <path d="M36.412,552.629 L18.202,536.847 L36.412,521.053 L36.412,552.629" fill="#003664"/>
    <path d="M18.202,536.847 L36.412,552.629 L18.202,568.419 L18.202,536.847" fill="#002A58"/>
    <path d="M36.412,584.206 L18.202,568.419 L36.412,552.629 L36.412,584.206" fill="#002350"/>
    <path d="M18.202,568.419 L36.412,584.206 L18.202,600 L18.202,568.419" fill="#001C49"/>
    <path d="M18.202,31.576 L-0,15.79 L18.202,0 L18.202,31.576" fill="#E7F1F9"/>
    <path d="M-0,15.79 L18.202,31.576 L-0,47.367 L-0,15.79" fill="#DAEBF9"/>
    <path d="M18.202,63.161 L-0,47.367 L18.202,31.576 L18.202,63.161" fill="#E8F2F9"/>
    <path d="M-0,47.367 L18.202,63.161 L-0,78.943 L-0,47.367" fill="#E7F1F9"/>
    <path d="M18.202,94.737 L-0,78.943 L18.202,63.161 L18.202,94.737" fill="#EAF2F9"/>
    <path d="M-0,78.943 L18.202,94.737 L-0,110.519 L-0,78.943" fill="#EEF4F9"/>
    <path d="M18.202,126.314 L-0,110.519 L18.202,94.737 L18.202,126.314" fill="#EDF4F9"/>
    <path d="M-0,110.519 L18.202,126.314 L-0,142.108 L-0,110.519" fill="#DDEEF9"/>
    <path d="M18.202,157.898 L-0,142.108 L18.202,126.314 L18.202,157.898" fill="#D2E8F9"/>
    <path d="M-0,142.108 L18.202,157.898 L-0,173.68 L-0,142.108" fill="#CCE6F9"/>
    <path d="M18.202,189.475 L-0,173.68 L18.202,157.898 L18.202,189.475" fill="#BCDEF9"/>
    <path d="M-0,173.68 L18.202,189.475 L-0,205.265 L-0,173.68" fill="#9CD2F9"/>
    <path d="M18.202,221.051 L-0,205.265 L18.202,189.475 L18.202,221.051" fill="#7EC6F9"/>
    <path d="M-0,205.265 L18.202,221.051 L-0,236.841 L-0,205.265" fill="#6ABFF9"/>
    <path d="M18.202,252.636 L-0,236.841 L18.202,221.051 L18.202,252.636" fill="#5CBAF9"/>
    <path d="M-0,236.841 L18.202,252.636 L-0,268.417 L-0,236.841" fill="#4FB6F9"/>
    <path d="M18.202,284.212 L-0,268.417 L18.202,252.636 L18.202,284.212" fill="#40B1F9"/>
    <path d="M-0,268.417 L18.202,284.212 L-0,299.994 L-0,268.417" fill="#43B2F9"/>
    <path d="M18.202,315.788 L-0,299.994 L18.202,284.212 L18.202,315.788" fill="#47B1F5"/>
    <path d="M-0,299.994 L18.202,315.788 L-0,331.578 L-0,299.994" fill="#3BA6EA"/>
    <path d="M18.202,347.373 L-0,331.578 L18.202,315.788 L18.202,347.373" fill="#3BA1E1"/>
    <path d="M-0,331.578 L18.202,347.373 L-0,363.155 L-0,331.578" fill="#3C9AD8"/>
    <path d="M18.202,378.949 L-0,363.155 L18.202,347.373 L18.202,378.949" fill="#3894CF"/>
    <path d="M-0,363.155 L18.202,378.949 L-0,394.731 L-0,363.155" fill="#348DC7"/>
    <path d="M18.202,410.525 L-0,394.731 L18.202,378.949 L18.202,410.525" fill="#2D87C1"/>
    <path d="M-0,394.731 L18.202,410.525 L-0,426.316 L-0,394.731" fill="#2D84BC"/>
    <path d="M18.202,442.102 L-0,426.316 L18.202,410.525 L18.202,442.102" fill="#2D82B8"/>
    <path d="M-0,426.316 L18.202,442.102 L-0,457.892 L-0,426.316" fill="#1F76AB"/>
    <path d="M18.202,473.686 L-0,457.892 L18.202,442.102 L18.202,473.686" fill="#166CA1"/>
    <path d="M-0,457.892 L18.202,473.686 L-0,489.477 L-0,457.892" fill="#136698"/>
    <path d="M18.202,505.263 L-0,489.477 L18.202,473.686 L18.202,505.263" fill="#0C5F90"/>
    <path d="M-0,489.477 L18.202,505.263 L-0,521.053 L-0,489.477" fill="#005483"/>
    <path d="M18.202,536.847 L-0,521.053 L18.202,505.263 L18.202,536.847" fill="#004A79"/>
    <path d="M-0,521.053 L18.202,536.847 L-0,552.629 L-0,521.053" fill="#003969"/>
    <path d="M18.202,568.419 L-0,552.629 L18.202,536.847 L18.202,568.419" fill="#002F5E"/>
    <path d="M-0,552.629 L18.202,568.419 L-0,584.206 L-0,552.629" fill="#002453"/>
    <path d="M18.202,600 L-0,584.206 L18.202,568.419 L18.202,600" fill="#001F4D"/>
    <path d="M181.312,584.206 L199.604,600 L181.312,600 L181.312,584.206" fill="#000E3C"/>
    <path d="M181.312,600 L163.108,600 L181.312,584.206 L181.312,600" fill="#000E3C"/>
    <path d="M144.897,584.206 L163.108,600 L144.897,600 L144.897,584.206" fill="#000E3C"/>
    <path d="M144.897,600 L126.696,600 L144.897,584.206 L144.897,600" fill="#000E3C"/>
    <path d="M108.485,584.206 L126.696,600 L108.485,600 L108.485,584.206" fill="#000E3C"/>
    <path d="M108.485,600 L90.281,600 L108.485,584.206 L108.485,600" fill="#000E3C"/>
    <path d="M72.821,584.206 L90.281,600 L72.821,600 L72.821,584.206" fill="#000E3C"/>
    <path d="M72.821,600 L54.614,600 L72.821,584.206 L72.821,600" fill="#000E3C"/>
    <path d="M36.412,584.206 L54.614,600 L36.412,600 L36.412,584.206" fill="#000E3C"/>
    <path d="M36.412,600 L18.202,600 L36.412,584.206 L36.412,600" fill="#000E3C"/>
    <path d="M-0,584.206 L18.202,600 L-0,600 L-0,584.206" fill="#000E3C"/>
    <path d="M181.312,15.794 L199.604,-0 L181.312,-0 L181.312,15.794" fill="#2073A6"/>
    <path d="M181.312,-0 L163.108,-0 L181.312,15.794 L181.312,-0" fill="#2981B7"/>
    <path d="M144.897,15.794 L163.108,-0 L144.897,-0 L144.897,15.794" fill="#378DC4"/>
    <path d="M144.897,-0 L126.696,-0 L144.897,15.794 L144.897,-0" fill="#5CA6D8"/>
    <path d="M108.485,15.794 L126.696,-0 L108.485,-0 L108.485,15.794" fill="#86BEE6"/>
    <path d="M108.485,-0 L90.281,-0 L108.485,15.794 L108.485,-0" fill="#B5DAF6"/>
    <path d="M72.821,15.794 L90.281,-0 L72.821,-0 L72.821,15.794" fill="#D4E9F9"/>
    <path d="M72.821,-0 L54.614,-0 L72.821,15.794 L72.821,-0" fill="#DDEEF9"/>
    <path d="M36.412,15.794 L54.614,-0 L36.412,-0 L36.412,15.794" fill="#D8EAF9"/>
    <path d="M36.412,-0 L18.202,-0 L36.412,15.794 L36.412,-0" fill="#BCDEF9"/>
    <path d="M-0,15.794 L18.202,-0 L-0,-0 L-0,15.794" fill="#E1EEF9"/>
  </g>
</svg>
