<?xml version="1.0" encoding="UTF-8"?>
<!DOCTYPE svg PUBLIC "-//W3C//DTD SVG 1.1//EN" "http://www.w3.org/Graphics/SVG/1.1/DTD/svg11.dtd">
<svg version="1.1" xmlns="http://www.w3.org/2000/svg" xmlns:xlink="http://www.w3.org/1999/xlink" x="0" y="0" width="140" height="140" viewBox="0, 0, 140, 140">

<script>

<![CDATA[

	function animatePoly() {
		var poly = document.querySelector("path");
		alert(poly)
	}
	
	//alert(document)
	document.addEventListener("SVGLoad", animatePoly, false)
]]>
</script>

  <g id="Layer_1">
    <path d="M140.811,110.891 L134.309,107.16 L140.811,103.43 L140.811,110.891" fill="#00234E"/>
    <path d="M127.838,103.43 L134.309,107.16 L127.838,110.891 L127.838,103.43" fill="#002653"/>
    <path d="M127.838,110.891 L121.365,107.16 L127.838,103.43 L127.838,110.891" fill="#00305B"/>
    <path d="M114.895,103.43 L121.365,107.16 L114.895,110.891 L114.895,103.43" fill="#003560"/>
    <path d="M114.895,110.891 L108.422,107.16 L114.895,103.43 L114.895,110.891" fill="#00436D"/>
    <path d="M101.951,103.43 L108.422,107.16 L101.951,110.891 L101.951,103.43" fill="#004A76"/>
    <path d="M101.951,110.891 L95.745,107.16 L101.951,103.43 L101.951,110.891" fill="#0B5885"/>
    <path d="M89.273,103.43 L95.745,107.16 L89.273,110.891 L89.273,103.43" fill="#0C5C8A"/>
    <path d="M89.273,110.891 L82.803,107.16 L89.273,103.43 L89.273,110.891" fill="#0E6193"/>
    <path d="M76.33,103.43 L82.803,107.16 L76.33,110.891 L76.33,103.43" fill="#13679A"/>
    <path d="M76.33,110.891 L69.86,107.16 L76.33,103.43 L76.33,110.891" fill="#166CA1"/>
    <path d="M63.389,103.43 L69.86,107.16 L63.389,110.891 L63.389,103.43" fill="#196C9F"/>
    <path d="M63.389,110.891 L57.104,107.16 L63.389,103.43 L63.389,110.891" fill="#2372A2"/>
    <path d="M50.633,103.43 L57.104,107.16 L50.633,110.891 L50.633,103.43" fill="#156697"/>
    <path d="M50.633,110.891 L44.159,107.16 L50.633,103.43 L50.633,110.891" fill="#095785"/>
    <path d="M37.689,103.43 L44.159,107.16 L37.689,110.891 L37.689,103.43" fill="#04507D"/>
    <path d="M37.689,110.891 L31.218,107.16 L37.689,103.43 L37.689,110.891" fill="#00456F"/>
    <path d="M24.744,103.43 L31.218,107.16 L24.744,110.891 L24.744,103.43" fill="#003E69"/>
    <path d="M24.744,110.891 L18.493,107.16 L24.744,103.43 L24.744,110.891" fill="#003560"/>
    <path d="M12.02,103.43 L18.493,107.16 L12.02,110.891 L12.02,103.43" fill="#00305C"/>
    <path d="M12.02,110.891 L5.549,107.16 L12.02,103.43 L12.02,110.891" fill="#002754"/>
    <path d="M-0.922,103.43 L5.549,107.16 L-0.922,110.891 L-0.922,103.43" fill="#00234F"/>
    <path d="M140.811,6.455 L134.309,2.726 L140.811,-1.004 L140.811,6.455" fill="#2278AC"/>
    <path d="M134.309,2.726 L140.811,6.455 L134.309,10.185 L134.309,2.726" fill="#1F75AA"/>
    <path d="M140.811,13.916 L134.309,10.185 L140.811,6.455 L140.811,13.916" fill="#2279AD"/>
    <path d="M134.309,10.185 L140.811,13.916 L134.309,17.644 L134.309,10.185" fill="#13699B"/>
    <path d="M140.811,21.375 L134.309,17.644 L140.811,13.916 L140.811,21.375" fill="#146EA2"/>
    <path d="M134.309,17.644 L140.811,21.375 L134.309,25.103 L134.309,17.644" fill="#13699E"/>
    <path d="M140.811,28.834 L134.309,25.103 L140.811,21.375 L140.811,28.834" fill="#2179AF"/>
    <path d="M134.309,25.103 L140.811,28.834 L134.309,32.565 L134.309,25.103" fill="#146BA1"/>
    <path d="M140.811,36.295 L134.309,32.565 L140.811,28.834 L140.811,36.295" fill="#1772A9"/>
    <path d="M134.309,32.565 L140.811,36.295 L134.309,40.023 L134.309,32.565" fill="#0F699F"/>
    <path d="M140.811,43.754 L134.309,40.023 L140.811,36.295 L140.811,43.754" fill="#166FA5"/>
    <path d="M134.309,40.023 L140.811,43.754 L134.309,47.484 L134.309,40.023" fill="#0D6699"/>
    <path d="M140.811,51.213 L134.309,47.484 L140.811,43.754 L140.811,51.213" fill="#0F679D"/>
    <path d="M134.309,47.484 L140.811,51.213 L134.309,54.943 L134.309,47.484" fill="#0C6092"/>
    <path d="M140.811,58.674 L134.309,54.943 L140.811,51.213 L140.811,58.674" fill="#0E6394"/>
    <path d="M134.309,54.943 L140.811,58.674 L134.309,62.402 L134.309,54.943" fill="#0A5B8A"/>
    <path d="M140.811,66.133 L134.309,62.402 L140.811,58.674 L140.811,66.133" fill="#0A5B8B"/>
    <path d="M134.309,62.402 L140.811,66.133 L134.309,69.861 L134.309,62.402" fill="#075580"/>
    <path d="M140.811,73.592 L134.309,69.861 L140.811,66.133 L140.811,73.592" fill="#075581"/>
    <path d="M134.309,69.861 L140.811,73.592 L134.309,77.322 L134.309,69.861" fill="#024E77"/>
    <path d="M140.811,81.053 L134.309,77.322 L140.811,73.592 L140.811,81.053" fill="#024E77"/>
    <path d="M134.309,77.322 L140.811,81.053 L134.309,84.781 L134.309,77.322" fill="#00436D"/>
    <path d="M140.811,88.512 L134.309,84.781 L140.811,81.053 L140.811,88.512" fill="#00406B"/>
    <path d="M134.309,84.781 L140.811,88.512 L134.309,92.24 L134.309,84.781" fill="#003863"/>
    <path d="M140.811,95.971 L134.309,92.24 L140.811,88.512 L140.811,95.971" fill="#003762"/>
    <path d="M134.309,92.24 L140.811,95.971 L134.309,99.701 L134.309,92.24" fill="#002F5A"/>
    <path d="M140.811,103.43 L134.309,99.701 L140.811,95.971 L140.811,103.43" fill="#002C57"/>
    <path d="M134.309,99.701 L140.811,103.43 L134.309,107.16 L134.309,99.701" fill="#002550"/>
    <path d="M140.811,110.891 L134.309,107.16 L140.811,103.43 L140.811,110.891" fill="#00234E"/>
    <path d="M134.309,107.16 L140.811,110.891 L134.309,114.621 L134.309,107.16" fill="#001C49"/>
    <path d="M140.811,118.35 L134.309,114.621 L140.811,110.891 L140.811,118.35" fill="#001746"/>
    <path d="M134.309,114.621 L140.811,118.35 L134.309,122.08 L134.309,114.621" fill="#001241"/>
    <path d="M140.811,125.811 L134.309,122.08 L140.811,118.35 L140.811,125.811" fill="#00113F"/>
    <path d="M134.309,122.08 L140.811,125.811 L134.309,129.539 L134.309,122.08" fill="#000C3C"/>
    <path d="M140.811,133.269 L134.309,129.539 L140.811,125.811 L140.811,133.269" fill="#000B3B"/>
    <path d="M134.309,129.539 L140.811,133.269 L134.309,136.998 L134.309,129.539" fill="#000A38"/>
    <path d="M140.811,140.729 L134.309,136.998 L140.811,133.269 L140.811,140.729" fill="#000A39"/>
    <path d="M127.838,-1.004 L134.309,2.726 L127.838,6.455 L127.838,-1.004" fill="#2980B5"/>
    <path d="M134.309,10.185 L127.838,6.455 L134.309,2.726 L134.309,10.185" fill="#3186BE"/>
    <path d="M127.838,6.455 L134.309,10.185 L127.838,13.916 L127.838,6.455" fill="#3085BC"/>
    <path d="M134.309,17.644 L127.838,13.916 L134.309,10.185 L134.309,17.644" fill="#2D86BE"/>
    <path d="M127.838,13.916 L134.309,17.644 L127.838,21.375 L127.838,13.916" fill="#1F7AB1"/>
    <path d="M134.309,25.103 L127.838,21.375 L134.309,17.644 L134.309,25.103" fill="#3088C1"/>
    <path d="M127.838,21.375 L134.309,25.103 L127.838,28.834 L127.838,21.375" fill="#3088C1"/>
    <path d="M134.309,32.565 L127.838,28.834 L134.309,25.103 L134.309,32.565" fill="#358EC8"/>
    <path d="M127.838,28.834 L134.309,32.565 L127.838,36.295 L127.838,28.834" fill="#2682BC"/>
    <path d="M134.309,40.023 L127.838,36.295 L134.309,32.565 L134.309,40.023" fill="#1E7FBB"/>
    <path d="M127.838,36.295 L134.309,40.023 L127.838,43.754 L127.838,36.295" fill="#227EB6"/>
    <path d="M134.309,47.484 L127.838,43.754 L134.309,40.023 L134.309,47.484" fill="#1B7BB6"/>
    <path d="M127.838,43.754 L134.309,47.484 L127.838,51.213 L127.838,43.754" fill="#1573AA"/>
    <path d="M134.309,54.943 L127.838,51.213 L134.309,47.484 L134.309,54.943" fill="#1373AB"/>
    <path d="M127.838,51.213 L134.309,54.943 L127.838,58.674 L127.838,51.213" fill="#0E6BA0"/>
    <path d="M134.309,62.402 L127.838,58.674 L134.309,54.943 L134.309,62.402" fill="#0E6BA1"/>
    <path d="M127.838,58.674 L134.309,62.402 L127.838,66.133 L127.838,58.674" fill="#0D6496"/>
    <path d="M134.309,69.861 L127.838,66.133 L134.309,62.402 L134.309,69.861" fill="#0D6497"/>
    <path d="M127.838,66.133 L134.309,69.861 L127.838,73.592 L127.838,66.133" fill="#0A5D8D"/>
    <path d="M134.309,77.322 L127.838,73.592 L134.309,69.861 L134.309,77.322" fill="#0C5E8D"/>
    <path d="M127.838,73.592 L134.309,77.322 L127.838,81.053 L127.838,73.592" fill="#075581"/>
    <path d="M134.309,84.781 L127.838,81.053 L134.309,77.322 L134.309,84.781" fill="#075581"/>
    <path d="M127.838,81.053 L134.309,84.781 L127.838,88.512 L127.838,81.053" fill="#014B74"/>
    <path d="M134.309,92.24 L127.838,88.512 L134.309,84.781 L134.309,92.24" fill="#004873"/>
    <path d="M127.838,88.512 L134.309,92.24 L127.838,95.971 L127.838,88.512" fill="#003D68"/>
    <path d="M134.309,99.701 L127.838,95.971 L134.309,92.24 L134.309,99.701" fill="#003964"/>
    <path d="M127.838,95.971 L134.309,99.701 L127.838,103.43 L127.838,95.971" fill="#00305C"/>
    <path d="M134.309,107.16 L127.838,103.43 L134.309,99.701 L134.309,107.16" fill="#002F5A"/>
    <path d="M127.838,103.43 L134.309,107.16 L127.838,110.891 L127.838,103.43" fill="#002653"/>
    <path d="M134.309,114.621 L127.838,110.891 L134.309,107.16 L134.309,114.621" fill="#00234F"/>
    <path d="M127.838,110.891 L134.309,114.621 L127.838,118.35 L127.838,110.891" fill="#001B49"/>
    <path d="M134.309,122.08 L127.838,118.35 L134.309,114.621 L134.309,122.08" fill="#001B47"/>
    <path d="M127.838,118.35 L134.309,122.08 L127.838,125.811 L127.838,118.35" fill="#001241"/>
    <path d="M134.309,129.539 L127.838,125.811 L134.309,122.08 L134.309,129.539" fill="#001140"/>
    <path d="M127.838,125.811 L134.309,129.539 L127.838,133.269 L127.838,125.811" fill="#000C3C"/>
    <path d="M134.309,136.998 L127.838,133.269 L134.309,129.539 L134.309,136.998" fill="#000B3B"/>
    <path d="M127.838,133.269 L134.309,136.998 L127.838,140.729 L127.838,133.269" fill="#000A39"/>
    <path d="M127.838,6.455 L121.365,2.726 L127.838,-1.004 L127.838,6.455" fill="#4B9ACF"/>
    <path d="M121.365,2.726 L127.838,6.455 L121.365,10.185 L121.365,2.726" fill="#4598CE"/>
    <path d="M127.838,13.916 L121.365,10.185 L127.838,6.455 L127.838,13.916" fill="#5FAADD"/>
    <path d="M121.365,10.185 L127.838,13.916 L121.365,17.644 L121.365,10.185" fill="#469BD3"/>
    <path d="M127.838,21.375 L121.365,17.644 L127.838,13.916 L127.838,21.375" fill="#6AB1E3"/>
    <path d="M121.365,17.644 L127.838,21.375 L121.365,25.103 L121.365,17.644" fill="#419AD4"/>
    <path d="M127.838,28.834 L121.365,25.103 L127.838,21.375 L127.838,28.834" fill="#4CA3DD"/>
    <path d="M121.365,25.103 L127.838,28.834 L121.365,32.565 L121.365,25.103" fill="#85C4F2"/>
    <path d="M127.838,36.295 L121.365,32.565 L127.838,28.834 L127.838,36.295" fill="#3D9BD8"/>
    <path d="M121.365,32.565 L127.838,36.295 L121.365,40.023 L121.365,32.565" fill="#2289C7"/>
    <path d="M127.838,43.754 L121.365,40.023 L127.838,36.295 L127.838,43.754" fill="#258DCC"/>
    <path d="M121.365,40.023 L127.838,43.754 L121.365,47.484 L121.365,40.023" fill="#1F86C2"/>
    <path d="M127.838,51.213 L121.365,47.484 L127.838,43.754 L127.838,51.213" fill="#2289C7"/>
    <path d="M121.365,47.484 L127.838,51.213 L121.365,54.943 L121.365,47.484" fill="#1C80BC"/>
    <path d="M127.838,58.674 L121.365,54.943 L127.838,51.213 L127.838,58.674" fill="#1C80BC"/>
    <path d="M121.365,54.943 L127.838,58.674 L121.365,62.402 L121.365,54.943" fill="#1879B2"/>
    <path d="M127.838,66.133 L121.365,62.402 L127.838,58.674 L127.838,66.133" fill="#1B7AB2"/>
    <path d="M121.365,62.402 L127.838,66.133 L121.365,69.861 L121.365,62.402" fill="#166FA5"/>
    <path d="M127.838,73.592 L121.365,69.861 L127.838,66.133 L127.838,73.592" fill="#1771A5"/>
    <path d="M121.365,69.861 L127.838,73.592 L121.365,77.322 L121.365,69.861" fill="#15679A"/>
    <path d="M127.838,81.053 L121.365,77.322 L127.838,73.592 L127.838,81.053" fill="#156799"/>
    <path d="M121.365,77.322 L127.838,81.053 L121.365,84.781 L121.365,77.322" fill="#0C5E8D"/>
    <path d="M127.838,88.512 L121.365,84.781 L127.838,81.053 L127.838,88.512" fill="#0C5C8B"/>
    <path d="M121.365,84.781 L127.838,88.512 L121.365,92.24 L121.365,84.781" fill="#04507D"/>
    <path d="M127.838,95.971 L121.365,92.24 L127.838,88.512 L127.838,95.971" fill="#024E78"/>
    <path d="M121.365,92.24 L127.838,95.971 L121.365,99.701 L121.365,92.24" fill="#00406B"/>
    <path d="M127.838,103.43 L121.365,99.701 L127.838,95.971 L127.838,103.43" fill="#003D68"/>
    <path d="M121.365,99.701 L127.838,103.43 L121.365,107.16 L121.365,99.701" fill="#00335F"/>
    <path d="M127.838,110.891 L121.365,107.16 L127.838,103.43 L127.838,110.891" fill="#00305B"/>
    <path d="M121.365,107.16 L127.838,110.891 L121.365,114.621 L121.365,107.16" fill="#002754"/>
    <path d="M127.838,118.35 L121.365,114.621 L127.838,110.891 L127.838,118.35" fill="#002550"/>
    <path d="M121.365,114.621 L127.838,118.35 L121.365,122.08 L121.365,114.621" fill="#001E4A"/>
    <path d="M127.838,125.811 L121.365,122.08 L127.838,118.35 L127.838,125.811" fill="#001B47"/>
    <path d="M121.365,122.08 L127.838,125.811 L121.365,129.539 L121.365,122.08" fill="#001441"/>
    <path d="M127.838,133.269 L121.365,129.539 L127.838,125.811 L127.838,133.269" fill="#001140"/>
    <path d="M121.365,129.539 L127.838,133.269 L121.365,136.998 L121.365,129.539" fill="#000C3C"/>
    <path d="M127.838,140.729 L121.365,136.998 L127.838,133.269 L127.838,140.729" fill="#000E3C"/>
    <path d="M114.895,-1.004 L121.365,2.726 L114.895,6.455 L114.895,-1.004" fill="#5AA5D8"/>
    <path d="M121.365,10.185 L114.895,6.455 L121.365,2.726 L121.365,10.185" fill="#85BFE9"/>
    <path d="M114.895,6.455 L121.365,10.185 L114.895,13.916 L114.895,6.455" fill="#88C2EB"/>
    <path d="M121.365,17.644 L114.895,13.916 L121.365,10.185 L121.365,17.644" fill="#A1CFF2"/>
    <path d="M114.895,13.916 L121.365,17.644 L114.895,21.375 L114.895,13.916" fill="#95C9F0"/>
    <path d="M121.365,25.103 L114.895,21.375 L121.365,17.644 L121.365,25.103" fill="#7FC2F2"/>
    <path d="M114.895,21.375 L121.365,25.103 L114.895,28.834 L114.895,21.375" fill="#50ACE8"/>
    <path d="M121.365,32.565 L114.895,28.834 L121.365,25.103 L121.365,32.565" fill="#51ADEB"/>
    <path d="M114.895,28.834 L121.365,32.565 L114.895,36.295 L114.895,28.834" fill="#43A5E3"/>
    <path d="M121.365,40.023 L114.895,36.295 L121.365,32.565 L121.365,40.023" fill="#3BA2E4"/>
    <path d="M114.895,36.295 L121.365,40.023 L114.895,43.754 L114.895,36.295" fill="#309ADC"/>
    <path d="M121.365,47.484 L114.895,43.754 L121.365,40.023 L121.365,47.484" fill="#2B9ADD"/>
    <path d="M114.895,43.754 L121.365,47.484 L114.895,51.213 L114.895,43.754" fill="#2792D3"/>
    <path d="M121.365,54.943 L114.895,51.213 L121.365,47.484 L121.365,54.943" fill="#2692D3"/>
    <path d="M114.895,51.213 L121.365,54.943 L114.895,58.674 L114.895,51.213" fill="#2289C8"/>
    <path d="M121.365,62.402 L114.895,58.674 L121.365,54.943 L121.365,62.402" fill="#268BC8"/>
    <path d="M114.895,58.674 L121.365,62.402 L114.895,66.133 L114.895,58.674" fill="#2385BF"/>
    <path d="M121.365,69.861 L114.895,66.133 L121.365,62.402 L121.365,69.861" fill="#2683BE"/>
    <path d="M114.895,66.133 L121.365,69.861 L114.895,73.592 L114.895,66.133" fill="#1F7AB2"/>
    <path d="M121.365,77.322 L114.895,73.592 L121.365,69.861 L121.365,77.322" fill="#217AB1"/>
    <path d="M114.895,73.592 L121.365,77.322 L114.895,81.053 L114.895,73.592" fill="#1C71A5"/>
    <path d="M121.365,84.781 L114.895,81.053 L121.365,77.322 L121.365,84.781" fill="#196FA3"/>
    <path d="M114.895,81.053 L121.365,84.781 L114.895,88.512 L114.895,81.053" fill="#146495"/>
    <path d="M121.365,92.24 L114.895,88.512 L121.365,84.781 L121.365,92.24" fill="#0E5F90"/>
    <path d="M114.895,88.512 L121.365,92.24 L114.895,95.971 L114.895,88.512" fill="#075581"/>
    <path d="M121.365,99.701 L114.895,95.971 L121.365,92.24 L121.365,99.701" fill="#024F7C"/>
    <path d="M114.895,95.971 L121.365,99.701 L114.895,103.43 L114.895,95.971" fill="#00436D"/>
    <path d="M121.365,107.16 L114.895,103.43 L121.365,99.701 L121.365,107.16" fill="#003E69"/>
    <path d="M114.895,103.43 L121.365,107.16 L114.895,110.891 L114.895,103.43" fill="#003560"/>
    <path d="M121.365,114.621 L114.895,110.891 L121.365,107.16 L121.365,114.621" fill="#00305B"/>
    <path d="M114.895,110.891 L121.365,114.621 L114.895,118.35 L114.895,110.891" fill="#002754"/>
    <path d="M121.365,122.08 L114.895,118.35 L121.365,114.621 L121.365,122.08" fill="#002550"/>
    <path d="M114.895,118.35 L121.365,122.08 L114.895,125.811 L114.895,118.35" fill="#001E4A"/>
    <path d="M121.365,129.539 L114.895,125.811 L121.365,122.08 L121.365,129.539" fill="#001B47"/>
    <path d="M114.895,125.811 L121.365,129.539 L114.895,133.269 L114.895,125.811" fill="#001241"/>
    <path d="M121.365,136.998 L114.895,133.269 L121.365,129.539 L121.365,136.998" fill="#00113F"/>
    <path d="M114.895,133.269 L121.365,136.998 L114.895,140.729 L114.895,133.269" fill="#00113E"/>
    <path d="M114.895,6.455 L108.422,2.726 L114.895,-1.004 L114.895,6.455" fill="#9CCCEE"/>
    <path d="M108.422,2.726 L114.895,6.455 L108.422,10.185 L108.422,2.726" fill="#A7D2F0"/>
    <path d="M114.895,13.916 L108.422,10.185 L114.895,6.455 L114.895,13.916" fill="#C2E0F6"/>
    <path d="M108.422,10.185 L114.895,13.916 L108.422,17.644 L108.422,10.185" fill="#BBDDF6"/>
    <path d="M114.895,21.375 L108.422,17.644 L114.895,13.916 L114.895,21.375" fill="#C8E3F8"/>
    <path d="M108.422,17.644 L114.895,21.375 L108.422,25.103 L108.422,17.644" fill="#AAD7F7"/>
    <path d="M114.895,28.834 L108.422,25.103 L114.895,21.375 L114.895,28.834" fill="#A9D7F9"/>
    <path d="M108.422,25.103 L114.895,28.834 L108.422,32.565 L108.422,25.103" fill="#A2D3F7"/>
    <path d="M114.895,36.295 L108.422,32.565 L114.895,28.834 L114.895,36.295" fill="#97D0F8"/>
    <path d="M108.422,32.565 L114.895,36.295 L108.422,40.023 L108.422,32.565" fill="#6FBEF4"/>
    <path d="M114.895,43.754 L108.422,40.023 L114.895,36.295 L114.895,43.754" fill="#54B5F5"/>
    <path d="M108.422,40.023 L114.895,43.754 L108.422,47.484 L108.422,40.023" fill="#45AAEB"/>
    <path d="M114.895,51.213 L108.422,47.484 L114.895,43.754 L114.895,51.213" fill="#37A7ED"/>
    <path d="M108.422,47.484 L114.895,51.213 L108.422,54.943 L108.422,47.484" fill="#2B9CE1"/>
    <path d="M114.895,58.674 L108.422,54.943 L114.895,51.213 L114.895,58.674" fill="#329FE2"/>
    <path d="M108.422,54.943 L114.895,58.674 L108.422,62.402 L108.422,54.943" fill="#3095D5"/>
    <path d="M114.895,66.133 L108.422,62.402 L114.895,58.674 L114.895,66.133" fill="#3496D4"/>
    <path d="M108.422,62.402 L114.895,66.133 L108.422,69.861 L108.422,62.402" fill="#318EC9"/>
    <path d="M114.895,73.592 L108.422,69.861 L114.895,66.133 L114.895,73.592" fill="#318DC6"/>
    <path d="M108.422,69.861 L114.895,73.592 L108.422,77.322 L108.422,69.861" fill="#2983BB"/>
    <path d="M114.895,81.053 L108.422,77.322 L114.895,73.592 L114.895,81.053" fill="#2981B8"/>
    <path d="M108.422,77.322 L114.895,81.053 L108.422,84.781 L108.422,77.322" fill="#2176AB"/>
    <path d="M114.895,88.512 L108.422,84.781 L114.895,81.053 L114.895,88.512" fill="#1C73A6"/>
    <path d="M108.422,84.781 L114.895,88.512 L108.422,92.24 L108.422,84.781" fill="#156799"/>
    <path d="M114.895,95.971 L108.422,92.24 L114.895,88.512 L114.895,95.971" fill="#106394"/>
    <path d="M108.422,92.24 L114.895,95.971 L108.422,99.701 L108.422,92.24" fill="#095785"/>
    <path d="M114.895,103.43 L108.422,99.701 L114.895,95.971 L114.895,103.43" fill="#07547F"/>
    <path d="M108.422,99.701 L114.895,103.43 L108.422,107.16 L108.422,99.701" fill="#004773"/>
    <path d="M114.895,110.891 L108.422,107.16 L114.895,103.43 L114.895,110.891" fill="#00436D"/>
    <path d="M108.422,107.16 L114.895,110.891 L108.422,114.621 L108.422,107.16" fill="#003662"/>
    <path d="M114.895,118.35 L108.422,114.621 L114.895,110.891 L114.895,118.35" fill="#00305C"/>
    <path d="M108.422,114.621 L114.895,118.35 L108.422,122.08 L108.422,114.621" fill="#002754"/>
    <path d="M114.895,125.811 L108.422,122.08 L114.895,118.35 L114.895,125.811" fill="#00234F"/>
    <path d="M108.422,122.08 L114.895,125.811 L108.422,129.539 L108.422,122.08" fill="#001B49"/>
    <path d="M114.895,133.269 L108.422,129.539 L114.895,125.811 L114.895,133.269" fill="#001746"/>
    <path d="M108.422,129.539 L114.895,133.269 L108.422,136.998 L108.422,129.539" fill="#001240"/>
    <path d="M114.895,140.729 L108.422,136.998 L114.895,133.269 L114.895,140.729" fill="#001240"/>
    <path d="M101.951,-1.004 L108.422,2.726 L101.951,6.455 L101.951,-1.004" fill="#AED8F6"/>
    <path d="M108.422,10.185 L101.951,6.455 L108.422,2.726 L108.422,10.185" fill="#C0E0F9"/>
    <path d="M101.951,6.455 L108.422,10.185 L101.951,13.916 L101.951,6.455" fill="#D3E9F9"/>
    <path d="M108.422,17.644 L101.951,13.916 L108.422,10.185 L108.422,17.644" fill="#D2E8F9"/>
    <path d="M101.951,13.916 L108.422,17.644 L101.951,21.375 L101.951,13.916" fill="#D6E9F9"/>
    <path d="M108.422,25.103 L101.951,21.375 L108.422,17.644 L108.422,25.103" fill="#ACD9F9"/>
    <path d="M101.951,21.375 L108.422,25.103 L101.951,28.834 L101.951,21.375" fill="#9CD2F9"/>
    <path d="M108.422,32.565 L101.951,28.834 L108.422,25.103 L108.422,32.565" fill="#95CFF9"/>
    <path d="M101.951,28.834 L108.422,32.565 L101.951,36.295 L101.951,28.834" fill="#A1D3F9"/>
    <path d="M108.422,40.023 L101.951,36.295 L108.422,32.565 L108.422,40.023" fill="#98D1F9"/>
    <path d="M101.951,36.295 L108.422,40.023 L101.951,43.754 L101.951,36.295" fill="#78C4F9"/>
    <path d="M108.422,47.484 L101.951,43.754 L108.422,40.023 L108.422,47.484" fill="#7FC6F9"/>
    <path d="M101.951,43.754 L108.422,47.484 L101.951,51.213 L101.951,43.754" fill="#41B1F7"/>
    <path d="M108.422,54.943 L101.951,51.213 L108.422,47.484 L108.422,54.943" fill="#40AFF6"/>
    <path d="M101.951,51.213 L108.422,54.943 L101.951,58.674 L101.951,51.213" fill="#3FAAEE"/>
    <path d="M108.422,62.402 L101.951,58.674 L108.422,54.943 L108.422,62.402" fill="#4AADED"/>
    <path d="M101.951,58.674 L108.422,62.402 L101.951,66.133 L101.951,58.674" fill="#44A5E1"/>
    <path d="M108.422,69.861 L101.951,66.133 L108.422,62.402 L108.422,69.861" fill="#49A3DD"/>
    <path d="M101.951,66.133 L108.422,69.861 L101.951,73.592 L101.951,66.133" fill="#4098D1"/>
    <path d="M108.422,77.322 L101.951,73.592 L108.422,69.861 L108.422,77.322" fill="#3A92CC"/>
    <path d="M101.951,73.592 L108.422,77.322 L101.951,81.053 L101.951,73.592" fill="#2A85BE"/>
    <path d="M108.422,84.781 L101.951,81.053 L108.422,77.322 L108.422,84.781" fill="#2680B8"/>
    <path d="M101.951,81.053 L108.422,84.781 L101.951,88.512 L101.951,81.053" fill="#2178AC"/>
    <path d="M108.422,92.24 L101.951,88.512 L108.422,84.781 L108.422,92.24" fill="#1E74A7"/>
    <path d="M101.951,88.512 L108.422,92.24 L101.951,95.971 L101.951,88.512" fill="#16699B"/>
    <path d="M108.422,99.701 L101.951,95.971 L108.422,92.24 L108.422,99.701" fill="#136596"/>
    <path d="M101.951,95.971 L108.422,99.701 L101.951,103.43 L101.951,95.971" fill="#0A5B88"/>
    <path d="M108.422,107.16 L101.951,103.43 L108.422,99.701 L108.422,107.16" fill="#095784"/>
    <path d="M101.951,103.43 L108.422,107.16 L101.951,110.891 L101.951,103.43" fill="#004A76"/>
    <path d="M108.422,114.621 L101.951,110.891 L108.422,107.16 L108.422,114.621" fill="#00436F"/>
    <path d="M101.951,110.891 L108.422,114.621 L101.951,118.35 L101.951,110.891" fill="#003763"/>
    <path d="M108.422,122.08 L101.951,118.35 L108.422,114.621 L108.422,122.08" fill="#002F5C"/>
    <path d="M101.951,118.35 L108.422,122.08 L101.951,125.811 L101.951,118.35" fill="#002653"/>
    <path d="M108.422,129.539 L101.951,125.811 L108.422,122.08 L108.422,129.539" fill="#00214E"/>
    <path d="M101.951,125.811 L108.422,129.539 L101.951,133.269 L101.951,125.811" fill="#001847"/>
    <path d="M108.422,136.998 L101.951,133.269 L108.422,129.539 L108.422,136.998" fill="#001545"/>
    <path d="M101.951,133.269 L108.422,136.998 L101.951,140.729 L101.951,133.269" fill="#001441"/>
    <path d="M101.951,6.455 L95.745,2.726 L101.951,-1.004 L101.951,6.455" fill="#DEEDF9"/>
    <path d="M95.745,2.726 L101.951,6.455 L95.745,10.185 L95.745,2.726" fill="#BDDFF9"/>
    <path d="M101.951,13.916 L95.745,10.185 L101.951,6.455 L101.951,13.916" fill="#B9DEF9"/>
    <path d="M95.745,10.185 L101.951,13.916 L95.745,17.644 L95.745,10.185" fill="#A5D5F9"/>
    <path d="M101.951,21.375 L95.745,17.644 L101.951,13.916 L101.951,21.375" fill="#A3D4F9"/>
    <path d="M95.745,17.644 L101.951,21.375 L95.745,25.103 L95.745,17.644" fill="#A2D4F9"/>
    <path d="M101.951,28.834 L95.745,25.103 L101.951,21.375 L101.951,28.834" fill="#ABD9F9"/>
    <path d="M95.745,25.103 L101.951,28.834 L95.745,32.565 L95.745,25.103" fill="#9ED3F9"/>
    <path d="M101.951,36.295 L95.745,32.565 L101.951,28.834 L101.951,36.295" fill="#A7D5F9"/>
    <path d="M95.745,32.565 L101.951,36.295 L95.745,40.023 L95.745,32.565" fill="#ACD9F9"/>
    <path d="M101.951,43.754 L95.745,40.023 L101.951,36.295 L101.951,43.754" fill="#ACD9F9"/>
    <path d="M95.745,40.023 L101.951,43.754 L95.745,47.484 L95.745,40.023" fill="#A1D3F9"/>
    <path d="M101.951,51.213 L95.745,47.484 L101.951,43.754 L101.951,51.213" fill="#B1DAF9"/>
    <path d="M95.745,47.484 L101.951,51.213 L95.745,54.943 L95.745,47.484" fill="#71C2F9"/>
    <path d="M101.951,58.674 L95.745,54.943 L101.951,51.213 L101.951,58.674" fill="#49B4F9"/>
    <path d="M95.745,54.943 L101.951,58.674 L95.745,62.402 L95.745,54.943" fill="#50B3F4"/>
    <path d="M101.951,66.133 L95.745,62.402 L101.951,58.674 L101.951,66.133" fill="#53B3F2"/>
    <path d="M95.745,62.402 L101.951,66.133 L95.745,69.861 L95.745,62.402" fill="#4DAAE6"/>
    <path d="M101.951,73.592 L95.745,69.861 L101.951,66.133 L101.951,73.592" fill="#41A1DF"/>
    <path d="M95.745,69.861 L101.951,73.592 L95.745,77.322 L95.745,69.861" fill="#3795D1"/>
    <path d="M101.951,81.053 L95.745,77.322 L101.951,73.592 L101.951,81.053" fill="#2B8ECC"/>
    <path d="M95.745,77.322 L101.951,81.053 L95.745,84.781 L95.745,77.322" fill="#2382BC"/>
    <path d="M101.951,88.512 L95.745,84.781 L101.951,81.053 L101.951,88.512" fill="#207EB6"/>
    <path d="M95.745,84.781 L101.951,88.512 L95.745,92.24 L95.745,84.781" fill="#1F76AB"/>
    <path d="M101.951,95.971 L95.745,92.24 L101.951,88.512 L101.951,95.971" fill="#1E72A6"/>
    <path d="M95.745,92.24 L101.951,95.971 L95.745,99.701 L95.745,92.24" fill="#186A9D"/>
    <path d="M101.951,103.43 L95.745,99.701 L101.951,95.971 L101.951,103.43" fill="#166798"/>
    <path d="M95.745,99.701 L101.951,103.43 L95.745,107.16 L95.745,99.701" fill="#0E5E8C"/>
    <path d="M101.951,110.891 L95.745,107.16 L101.951,103.43 L101.951,110.891" fill="#0B5885"/>
    <path d="M95.745,107.16 L101.951,110.891 L95.745,114.621 L95.745,107.16" fill="#004976"/>
    <path d="M101.951,118.35 L95.745,114.621 L101.951,110.891 L101.951,118.35" fill="#00406C"/>
    <path d="M95.745,114.621 L101.951,118.35 L95.745,122.08 L95.745,114.621" fill="#003360"/>
    <path d="M101.951,125.811 L95.745,122.08 L101.951,118.35 L101.951,125.811" fill="#002C58"/>
    <path d="M95.745,122.08 L101.951,125.811 L95.745,129.539 L95.745,122.08" fill="#00254F"/>
    <path d="M101.951,133.269 L95.745,129.539 L101.951,125.811 L101.951,133.269" fill="#001F4C"/>
    <path d="M95.745,129.539 L101.951,133.269 L95.745,136.998 L95.745,129.539" fill="#001746"/>
    <path d="M101.951,140.729 L95.745,136.998 L101.951,133.269 L101.951,140.729" fill="#001544"/>
    <path d="M89.273,-1.004 L95.745,2.726 L89.273,6.455 L89.273,-1.004" fill="#E3EFF9"/>
    <path d="M95.745,10.185 L89.273,6.455 L95.745,2.726 L95.745,10.185" fill="#D9EAF9"/>
    <path d="M89.273,6.455 L95.745,10.185 L89.273,13.916 L89.273,6.455" fill="#BDDFF9"/>
    <path d="M95.745,17.644 L89.273,13.916 L95.745,10.185 L95.745,17.644" fill="#D7EAF9"/>
    <path d="M89.273,13.916 L95.745,17.644 L89.273,21.375 L89.273,13.916" fill="#B6DCF9"/>
    <path d="M95.745,25.103 L89.273,21.375 L95.745,17.644 L95.745,25.103" fill="#BEE0F9"/>
    <path d="M89.273,21.375 L95.745,25.103 L89.273,28.834 L89.273,21.375" fill="#B4DAF9"/>
    <path d="M95.745,32.565 L89.273,28.834 L95.745,25.103 L95.745,32.565" fill="#B0DAF9"/>
    <path d="M89.273,28.834 L95.745,32.565 L89.273,36.295 L89.273,28.834" fill="#A8D7F9"/>
    <path d="M95.745,40.023 L89.273,36.295 L95.745,32.565 L95.745,40.023" fill="#AFD9F9"/>
    <path d="M89.273,36.295 L95.745,40.023 L89.273,43.754 L89.273,36.295" fill="#B5DBF9"/>
    <path d="M95.745,47.484 L89.273,43.754 L95.745,40.023 L95.745,47.484" fill="#97D0F9"/>
    <path d="M89.273,43.754 L95.745,47.484 L89.273,51.213 L89.273,43.754" fill="#67BEF9"/>
    <path d="M95.745,54.943 L89.273,51.213 L95.745,47.484 L95.745,54.943" fill="#48B3F9"/>
    <path d="M89.273,51.213 L95.745,54.943 L89.273,58.674 L89.273,51.213" fill="#47B3F9"/>
    <path d="M95.745,62.402 L89.273,58.674 L95.745,54.943 L95.745,62.402" fill="#43B2F9"/>
    <path d="M89.273,58.674 L95.745,62.402 L89.273,66.133 L89.273,58.674" fill="#4BB3F6"/>
    <path d="M95.745,69.861 L89.273,66.133 L95.745,62.402 L95.745,69.861" fill="#3BAAF0"/>
    <path d="M89.273,66.133 L95.745,69.861 L89.273,73.592 L89.273,66.133" fill="#3DA4E6"/>
    <path d="M95.745,77.322 L89.273,73.592 L95.745,69.861 L95.745,77.322" fill="#3AA0E1"/>
    <path d="M89.273,73.592 L95.745,77.322 L89.273,81.053 L89.273,73.592" fill="#389AD9"/>
    <path d="M95.745,84.781 L89.273,81.053 L95.745,77.322 L95.745,84.781" fill="#3295D3"/>
    <path d="M89.273,81.053 L95.745,84.781 L89.273,88.512 L89.273,81.053" fill="#2080BB"/>
    <path d="M95.745,92.24 L89.273,88.512 L95.745,84.781 L95.745,92.24" fill="#1B7AB2"/>
    <path d="M89.273,88.512 L95.745,92.24 L89.273,95.971 L89.273,88.512" fill="#1E74AA"/>
    <path d="M95.745,99.701 L89.273,95.971 L95.745,92.24 L95.745,99.701" fill="#1C71A5"/>
    <path d="M89.273,95.971 L95.745,99.701 L89.273,103.43 L89.273,95.971" fill="#196C9F"/>
    <path d="M95.745,107.16 L89.273,103.43 L95.745,99.701 L95.745,107.16" fill="#156596"/>
    <path d="M89.273,103.43 L95.745,107.16 L89.273,110.891 L89.273,103.43" fill="#0C5C8A"/>
    <path d="M95.745,114.621 L89.273,110.891 L95.745,107.16 L95.745,114.621" fill="#025480"/>
    <path d="M89.273,110.891 L95.745,114.621 L89.273,118.35 L89.273,110.891" fill="#004573"/>
    <path d="M95.745,122.08 L89.273,118.35 L95.745,114.621 L95.745,122.08" fill="#003D69"/>
    <path d="M89.273,118.35 L95.745,122.08 L89.273,125.811 L89.273,118.35" fill="#002F5C"/>
    <path d="M95.745,129.539 L89.273,125.811 L95.745,122.08 L95.745,129.539" fill="#002955"/>
    <path d="M89.273,125.811 L95.745,129.539 L89.273,133.269 L89.273,125.811" fill="#00214D"/>
    <path d="M95.745,136.998 L89.273,133.269 L95.745,129.539 L95.745,136.998" fill="#001C49"/>
    <path d="M89.273,133.269 L95.745,136.998 L89.273,140.729 L89.273,133.269" fill="#001545"/>
    <path d="M89.273,6.455 L82.803,2.726 L89.273,-1.004 L89.273,6.455" fill="#CCE6F9"/>
    <path d="M82.803,2.726 L89.273,6.455 L82.803,10.185 L82.803,2.726" fill="#D4E9F9"/>
    <path d="M89.273,13.916 L82.803,10.185 L89.273,6.455 L89.273,13.916" fill="#EFF5F9"/>
    <path d="M82.803,10.185 L89.273,13.916 L82.803,17.644 L82.803,10.185" fill="#F2F6F9"/>
    <path d="M89.273,21.375 L82.803,17.644 L89.273,13.916 L89.273,21.375" fill="#F3F6F9"/>
    <path d="M82.803,17.644 L89.273,21.375 L82.803,25.103 L82.803,17.644" fill="#D7EAF9"/>
    <path d="M89.273,28.834 L82.803,25.103 L89.273,21.375 L89.273,28.834" fill="#D2E8F9"/>
    <path d="M82.803,25.103 L89.273,28.834 L82.803,32.565 L82.803,25.103" fill="#BEE0F9"/>
    <path d="M89.273,36.295 L82.803,32.565 L89.273,28.834 L89.273,36.295" fill="#BCDEF9"/>
    <path d="M82.803,32.565 L89.273,36.295 L82.803,40.023 L82.803,32.565" fill="#9DD3F9"/>
    <path d="M89.273,43.754 L82.803,40.023 L89.273,36.295 L89.273,43.754" fill="#8FCCF9"/>
    <path d="M82.803,40.023 L89.273,43.754 L82.803,47.484 L82.803,40.023" fill="#7DC6F9"/>
    <path d="M89.273,51.213 L82.803,47.484 L89.273,43.754 L89.273,51.213" fill="#6FC1F9"/>
    <path d="M82.803,47.484 L89.273,51.213 L82.803,54.943 L82.803,47.484" fill="#63BCF9"/>
    <path d="M89.273,58.674 L82.803,54.943 L89.273,51.213 L89.273,58.674" fill="#49B4F9"/>
    <path d="M82.803,54.943 L89.273,58.674 L82.803,62.402 L82.803,54.943" fill="#3AAFF9"/>
    <path d="M89.273,66.133 L82.803,62.402 L89.273,58.674 L89.273,66.133" fill="#39AFF9"/>
    <path d="M82.803,62.402 L89.273,66.133 L82.803,69.861 L82.803,62.402" fill="#38ADF5"/>
    <path d="M89.273,73.592 L82.803,69.861 L89.273,66.133 L89.273,73.592" fill="#37A7EF"/>
    <path d="M82.803,69.861 L89.273,73.592 L82.803,77.322 L82.803,69.861" fill="#37A1E4"/>
    <path d="M89.273,81.053 L82.803,77.322 L89.273,73.592 L89.273,81.053" fill="#369EDF"/>
    <path d="M82.803,77.322 L89.273,81.053 L82.803,84.781 L82.803,77.322" fill="#3398D7"/>
    <path d="M89.273,88.512 L82.803,84.781 L89.273,81.053 L89.273,88.512" fill="#2589C6"/>
    <path d="M82.803,84.781 L89.273,88.512 L82.803,92.24 L82.803,84.781" fill="#2280B9"/>
    <path d="M89.273,95.971 L82.803,92.24 L89.273,88.512 L89.273,95.971" fill="#247CB2"/>
    <path d="M82.803,92.24 L89.273,95.971 L82.803,99.701 L82.803,92.24" fill="#1C73A7"/>
    <path d="M89.273,103.43 L82.803,99.701 L89.273,95.971 L89.273,103.43" fill="#186EA2"/>
    <path d="M82.803,99.701 L89.273,103.43 L82.803,107.16 L82.803,99.701" fill="#136698"/>
    <path d="M89.273,110.891 L82.803,107.16 L89.273,103.43 L89.273,110.891" fill="#0E6193"/>
    <path d="M82.803,107.16 L89.273,110.891 L82.803,114.621 L82.803,107.16" fill="#095785"/>
    <path d="M89.273,118.35 L82.803,114.621 L89.273,110.891 L89.273,118.35" fill="#004E7C"/>
    <path d="M82.803,114.621 L89.273,118.35 L82.803,122.08 L82.803,114.621" fill="#00426F"/>
    <path d="M89.273,125.811 L82.803,122.08 L89.273,118.35 L89.273,125.811" fill="#003866"/>
    <path d="M82.803,122.08 L89.273,125.811 L82.803,129.539 L82.803,122.08" fill="#002D5A"/>
    <path d="M89.273,133.269 L82.803,129.539 L89.273,125.811 L89.273,133.269" fill="#002655"/>
    <path d="M82.803,129.539 L89.273,133.269 L82.803,136.998 L82.803,129.539" fill="#001E4C"/>
    <path d="M89.273,140.729 L82.803,136.998 L89.273,133.269 L89.273,140.729" fill="#001B49"/>
    <path d="M76.33,-1.004 L82.803,2.726 L76.33,6.455 L76.33,-1.004" fill="#BDDFF9"/>
    <path d="M82.803,10.185 L76.33,6.455 L82.803,2.726 L82.803,10.185" fill="#CBE5F9"/>
    <path d="M76.33,6.455 L82.803,10.185 L76.33,13.916 L76.33,6.455" fill="#DDEEF9"/>
    <path d="M82.803,17.644 L76.33,13.916 L82.803,10.185 L82.803,17.644" fill="#ECF3F9"/>
    <path d="M76.33,13.916 L82.803,17.644 L76.33,21.375 L76.33,13.916" fill="#EFF5F9"/>
    <path d="M82.803,25.103 L76.33,21.375 L82.803,17.644 L82.803,25.103" fill="#ECF3F9"/>
    <path d="M76.33,21.375 L82.803,25.103 L76.33,28.834 L76.33,21.375" fill="#E4EFF9"/>
    <path d="M82.803,32.565 L76.33,28.834 L82.803,25.103 L82.803,32.565" fill="#CEE6F9"/>
    <path d="M76.33,28.834 L82.803,32.565 L76.33,36.295 L76.33,28.834" fill="#B1DAF9"/>
    <path d="M82.803,40.023 L76.33,36.295 L82.803,32.565 L82.803,40.023" fill="#B1DAF9"/>
    <path d="M76.33,36.295 L82.803,40.023 L76.33,43.754 L76.33,36.295" fill="#93CEF9"/>
    <path d="M82.803,47.484 L76.33,43.754 L82.803,40.023 L82.803,47.484" fill="#96D0F9"/>
    <path d="M76.33,43.754 L82.803,47.484 L76.33,51.213 L76.33,43.754" fill="#86C9F9"/>
    <path d="M82.803,54.943 L76.33,51.213 L82.803,47.484 L82.803,54.943" fill="#7BC5F9"/>
    <path d="M76.33,51.213 L82.803,54.943 L76.33,58.674 L76.33,51.213" fill="#93CEF9"/>
    <path d="M82.803,62.402 L76.33,58.674 L82.803,54.943 L82.803,62.402" fill="#96D0F9"/>
    <path d="M76.33,58.674 L82.803,62.402 L76.33,66.133 L76.33,58.674" fill="#3BB1F9"/>
    <path d="M82.803,69.861 L76.33,66.133 L82.803,62.402 L82.803,69.861" fill="#3EB1F9"/>
    <path d="M76.33,66.133 L82.803,69.861 L76.33,73.592 L76.33,66.133" fill="#3CACF2"/>
    <path d="M82.803,77.322 L76.33,73.592 L82.803,69.861 L82.803,77.322" fill="#38A5E9"/>
    <path d="M76.33,73.592 L82.803,77.322 L76.33,81.053 L76.33,73.592" fill="#74B9EA"/>
    <path d="M82.803,84.781 L76.33,81.053 L82.803,77.322 L82.803,84.781" fill="#74B5E3"/>
    <path d="M76.33,81.053 L82.803,84.781 L76.33,88.512 L76.33,81.053" fill="#298CC9"/>
    <path d="M82.803,92.24 L76.33,88.512 L82.803,84.781 L82.803,92.24" fill="#2A88C2"/>
    <path d="M76.33,88.512 L82.803,92.24 L76.33,95.971 L76.33,88.512" fill="#237FB7"/>
    <path d="M82.803,99.701 L76.33,95.971 L82.803,92.24 L82.803,99.701" fill="#267FB6"/>
    <path d="M76.33,95.971 L82.803,99.701 L76.33,103.43 L76.33,95.971" fill="#1E75AA"/>
    <path d="M82.803,107.16 L76.33,103.43 L82.803,99.701 L82.803,107.16" fill="#1972A5"/>
    <path d="M76.33,103.43 L82.803,107.16 L76.33,110.891 L76.33,103.43" fill="#13679A"/>
    <path d="M82.803,114.621 L76.33,110.891 L82.803,107.16 L82.803,114.621" fill="#0E6394"/>
    <path d="M76.33,110.891 L82.803,114.621 L76.33,118.35 L76.33,110.891" fill="#025483"/>
    <path d="M82.803,122.08 L76.33,118.35 L82.803,114.621 L82.803,122.08" fill="#004F7E"/>
    <path d="M76.33,118.35 L82.803,122.08 L76.33,125.811 L76.33,118.35" fill="#003D6B"/>
    <path d="M82.803,129.539 L76.33,125.811 L82.803,122.08 L82.803,129.539" fill="#003664"/>
    <path d="M76.33,125.811 L82.803,129.539 L76.33,133.269 L76.33,125.811" fill="#002A58"/>
    <path d="M82.803,136.998 L76.33,133.269 L82.803,129.539 L82.803,136.998" fill="#002350"/>
    <path d="M76.33,133.269 L82.803,136.998 L76.33,140.729 L76.33,133.269" fill="#001C49"/>
    <path d="M76.33,6.455 L69.86,2.726 L76.33,-1.004 L76.33,6.455" fill="#E7F1F9"/>
    <path d="M69.86,2.726 L76.33,6.455 L69.86,10.185 L69.86,2.726" fill="#DAEBF9"/>
    <path d="M76.33,13.916 L69.86,10.185 L76.33,6.455 L76.33,13.916" fill="#E8F2F9"/>
    <path d="M69.86,10.185 L76.33,13.916 L69.86,17.644 L69.86,10.185" fill="#E7F1F9"/>
    <path d="M76.33,21.375 L69.86,17.644 L76.33,13.916 L76.33,21.375" fill="#EAF2F9"/>
    <path d="M69.86,17.644 L76.33,21.375 L69.86,25.103 L69.86,17.644" fill="#EEF4F9"/>
    <path d="M76.33,28.834 L69.86,25.103 L76.33,21.375 L76.33,28.834" fill="#EDF4F9"/>
    <path d="M69.86,25.103 L76.33,28.834 L69.86,32.565 L69.86,25.103" fill="#DDEEF9"/>
    <path d="M76.33,36.295 L69.86,32.565 L76.33,28.834 L76.33,36.295" fill="#D2E8F9"/>
    <path d="M69.86,32.565 L76.33,36.295 L69.86,40.023 L69.86,32.565" fill="#CCE6F9"/>
    <path d="M76.33,43.754 L69.86,40.023 L76.33,36.295 L76.33,43.754" fill="#BCDEF9"/>
    <path d="M69.86,40.023 L76.33,43.754 L69.86,47.484 L69.86,40.023" fill="#9CD2F9"/>
    <path d="M76.33,51.213 L69.86,47.484 L76.33,43.754 L76.33,51.213" fill="#7EC6F9"/>
    <path d="M69.86,47.484 L76.33,51.213 L69.86,54.943 L69.86,47.484" fill="#6ABFF9"/>
    <path d="M76.33,58.674 L69.86,54.943 L76.33,51.213 L76.33,58.674" fill="#5CBAF9"/>
    <path d="M69.86,54.943 L76.33,58.674 L69.86,62.402 L69.86,54.943" fill="#4FB6F9"/>
    <path d="M76.33,66.133 L69.86,62.402 L76.33,58.674 L76.33,66.133" fill="#40B1F9"/>
    <path d="M69.86,62.402 L76.33,66.133 L69.86,69.861 L69.86,62.402" fill="#43B2F9"/>
    <path d="M76.33,73.592 L69.86,69.861 L76.33,66.133 L76.33,73.592" fill="#47B1F5"/>
    <path d="M69.86,69.861 L76.33,73.592 L69.86,77.322 L69.86,69.861" fill="#3BA6EA"/>
    <path d="M76.33,81.053 L69.86,77.322 L76.33,73.592 L76.33,81.053" fill="#3BA1E1"/>
    <path d="M69.86,77.322 L76.33,81.053 L69.86,84.781 L69.86,77.322" fill="#3C9AD8"/>
    <path d="M76.33,88.512 L69.86,84.781 L76.33,81.053 L76.33,88.512" fill="#3894CF"/>
    <path d="M69.86,84.781 L76.33,88.512 L69.86,92.24 L69.86,84.781" fill="#348DC7"/>
    <path d="M76.33,95.971 L69.86,92.24 L76.33,88.512 L76.33,95.971" fill="#2D87C1"/>
    <path d="M69.86,92.24 L76.33,95.971 L69.86,99.701 L69.86,92.24" fill="#2D84BC"/>
    <path d="M76.33,103.43 L69.86,99.701 L76.33,95.971 L76.33,103.43" fill="#2D82B8"/>
    <path d="M69.86,99.701 L76.33,103.43 L69.86,107.16 L69.86,99.701" fill="#1F76AB"/>
    <path d="M76.33,110.891 L69.86,107.16 L76.33,103.43 L76.33,110.891" fill="#166CA1"/>
    <path d="M69.86,107.16 L76.33,110.891 L69.86,114.621 L69.86,107.16" fill="#136698"/>
    <path d="M76.33,118.35 L69.86,114.621 L76.33,110.891 L76.33,118.35" fill="#0C5F90"/>
    <path d="M69.86,114.621 L76.33,118.35 L69.86,122.08 L69.86,114.621" fill="#005483"/>
    <path d="M76.33,125.811 L69.86,122.08 L76.33,118.35 L76.33,125.811" fill="#004A79"/>
    <path d="M69.86,122.08 L76.33,125.811 L69.86,129.539 L69.86,122.08" fill="#003969"/>
    <path d="M76.33,133.269 L69.86,129.539 L76.33,125.811 L76.33,133.269" fill="#002F5E"/>
    <path d="M69.86,129.539 L76.33,133.269 L69.86,136.998 L69.86,129.539" fill="#002453"/>
    <path d="M76.33,140.729 L69.86,136.998 L76.33,133.269 L76.33,140.729" fill="#001F4D"/>
    <path d="M63.389,-1.004 L69.86,2.726 L63.389,6.455 L63.389,-1.004" fill="#E9F2F9"/>
    <path d="M69.86,10.185 L63.389,6.455 L69.86,2.726 L69.86,10.185" fill="#E7F1F9"/>
    <path d="M63.389,6.455 L69.86,10.185 L63.389,13.916 L63.389,6.455" fill="#E9F2F9"/>
    <path d="M69.86,17.644 L63.389,13.916 L69.86,10.185 L69.86,17.644" fill="#D9EAF9"/>
    <path d="M63.389,13.916 L69.86,17.644 L63.389,21.375 L63.389,13.916" fill="#DDEEF9"/>
    <path d="M69.86,25.103 L63.389,21.375 L69.86,17.644 L69.86,25.103" fill="#E2EEF9"/>
    <path d="M63.389,21.375 L69.86,25.103 L63.389,28.834 L63.389,21.375" fill="#EEF4F9"/>
    <path d="M69.86,32.565 L63.389,28.834 L69.86,25.103 L69.86,32.565" fill="#EFF5F9"/>
    <path d="M63.389,28.834 L69.86,32.565 L63.389,36.295 L63.389,28.834" fill="#D9EAF9"/>
    <path d="M69.86,40.023 L63.389,36.295 L69.86,32.565 L69.86,40.023" fill="#BDDFF9"/>
    <path d="M63.389,36.295 L69.86,40.023 L63.389,43.754 L63.389,36.295" fill="#A5D5F9"/>
    <path d="M69.86,47.484 L63.389,43.754 L69.86,40.023 L69.86,47.484" fill="#93CEF9"/>
    <path d="M63.389,43.754 L69.86,47.484 L63.389,51.213 L63.389,43.754" fill="#81C7F9"/>
    <path d="M69.86,54.943 L63.389,51.213 L69.86,47.484 L69.86,54.943" fill="#7AC4F9"/>
    <path d="M63.389,51.213 L69.86,54.943 L63.389,58.674 L63.389,51.213" fill="#61BCF9"/>
    <path d="M69.86,62.402 L63.389,58.674 L69.86,54.943 L69.86,62.402" fill="#4FB6F9"/>
    <path d="M63.389,58.674 L69.86,62.402 L63.389,66.133 L63.389,58.674" fill="#3EB1F9"/>
    <path d="M69.86,69.861 L63.389,66.133 L69.86,62.402 L69.86,69.861" fill="#4EB6F9"/>
    <path d="M63.389,66.133 L69.86,69.861 L63.389,73.592 L63.389,66.133" fill="#58B7F6"/>
    <path d="M69.86,77.322 L63.389,73.592 L69.86,69.861 L69.86,77.322" fill="#58B2EE"/>
    <path d="M63.389,73.592 L69.86,77.322 L63.389,81.053 L63.389,73.592" fill="#41A2E1"/>
    <path d="M69.86,84.781 L63.389,81.053 L69.86,77.322 L69.86,84.781" fill="#439FD9"/>
    <path d="M63.389,81.053 L69.86,84.781 L63.389,88.512 L63.389,81.053" fill="#3D98D1"/>
    <path d="M69.86,92.24 L63.389,88.512 L69.86,84.781 L69.86,92.24" fill="#378FC9"/>
    <path d="M63.389,88.512 L69.86,92.24 L63.389,95.971 L63.389,88.512" fill="#2B87C1"/>
    <path d="M69.86,99.701 L63.389,95.971 L69.86,92.24 L69.86,99.701" fill="#267FB7"/>
    <path d="M63.389,95.971 L69.86,99.701 L63.389,103.43 L63.389,95.971" fill="#3A88BB"/>
    <path d="M69.86,107.16 L63.389,103.43 L69.86,99.701 L69.86,107.16" fill="#2877AA"/>
    <path d="M63.389,103.43 L69.86,107.16 L63.389,110.891 L63.389,103.43" fill="#196C9F"/>
    <path d="M69.86,114.621 L63.389,110.891 L69.86,107.16 L69.86,114.621" fill="#186999"/>
    <path d="M63.389,110.891 L69.86,114.621 L63.389,118.35 L63.389,110.891" fill="#0E6192"/>
    <path d="M69.86,122.08 L63.389,118.35 L69.86,114.621 L69.86,122.08" fill="#005788"/>
    <path d="M63.389,118.35 L69.86,122.08 L63.389,125.811 L63.389,118.35" fill="#004B7C"/>
    <path d="M69.86,129.539 L63.389,125.811 L69.86,122.08 L69.86,129.539" fill="#003E6D"/>
    <path d="M63.389,125.811 L69.86,129.539 L63.389,133.269 L63.389,125.811" fill="#003160"/>
    <path d="M69.86,136.998 L63.389,133.269 L69.86,129.539 L69.86,136.998" fill="#002655"/>
    <path d="M63.389,133.269 L69.86,136.998 L63.389,140.729 L63.389,133.269" fill="#001E4C"/>
    <path d="M63.389,6.455 L57.104,2.726 L63.389,-1.004 L63.389,6.455" fill="#EEF4F9"/>
    <path d="M57.104,2.726 L63.389,6.455 L57.104,10.185 L57.104,2.726" fill="#EAF2F9"/>
    <path d="M63.389,13.916 L57.104,10.185 L63.389,6.455 L63.389,13.916" fill="#E3EFF9"/>
    <path d="M57.104,10.185 L63.389,13.916 L57.104,17.644 L57.104,10.185" fill="#D6E9F9"/>
    <path d="M63.389,21.375 L57.104,17.644 L63.389,13.916 L63.389,21.375" fill="#D2E8F9"/>
    <path d="M57.104,17.644 L63.389,21.375 L57.104,25.103 L57.104,17.644" fill="#E3EFF9"/>
    <path d="M63.389,28.834 L57.104,25.103 L63.389,21.375 L63.389,28.834" fill="#ECF3F9"/>
    <path d="M57.104,25.103 L63.389,28.834 L57.104,32.565 L57.104,25.103" fill="#ECF3F9"/>
    <path d="M63.389,36.295 L57.104,32.565 L63.389,28.834 L63.389,36.295" fill="#E7F0F9"/>
    <path d="M57.104,32.565 L63.389,36.295 L57.104,40.023 L57.104,32.565" fill="#CBE5F9"/>
    <path d="M63.389,43.754 L57.104,40.023 L63.389,36.295 L63.389,43.754" fill="#91CEF9"/>
    <path d="M57.104,40.023 L63.389,43.754 L57.104,47.484 L57.104,40.023" fill="#8ACBF9"/>
    <path d="M63.389,51.213 L57.104,47.484 L63.389,43.754 L63.389,51.213" fill="#A2D4F9"/>
    <path d="M57.104,47.484 L63.389,51.213 L57.104,54.943 L57.104,47.484" fill="#9DD3F9"/>
    <path d="M63.389,58.674 L57.104,54.943 L63.389,51.213 L63.389,58.674" fill="#6FC1F9"/>
    <path d="M57.104,54.943 L63.389,58.674 L57.104,62.402 L57.104,54.943" fill="#4BB4F9"/>
    <path d="M63.389,66.133 L57.104,62.402 L63.389,58.674 L63.389,66.133" fill="#4EB6F9"/>
    <path d="M57.104,62.402 L63.389,66.133 L57.104,69.861 L57.104,62.402" fill="#61BCF9"/>
    <path d="M63.389,73.592 L57.104,69.861 L63.389,66.133 L63.389,73.592" fill="#7CC3F4"/>
    <path d="M57.104,69.861 L63.389,73.592 L57.104,77.322 L57.104,69.861" fill="#5BB3ED"/>
    <path d="M63.389,81.053 L57.104,77.322 L63.389,73.592 L63.389,81.053" fill="#49A5E1"/>
    <path d="M57.104,77.322 L63.389,81.053 L57.104,84.781 L57.104,77.322" fill="#50A5DC"/>
    <path d="M63.389,88.512 L57.104,84.781 L63.389,81.053 L63.389,88.512" fill="#52A0D5"/>
    <path d="M57.104,84.781 L63.389,88.512 L57.104,92.24 L57.104,84.781" fill="#4095CD"/>
    <path d="M63.389,95.971 L57.104,92.24 L63.389,88.512 L63.389,95.971" fill="#3187BF"/>
    <path d="M57.104,92.24 L63.389,95.971 L57.104,99.701 L57.104,92.24" fill="#237EB4"/>
    <path d="M63.389,103.43 L57.104,99.701 L63.389,95.971 L63.389,103.43" fill="#1F75AA"/>
    <path d="M57.104,99.701 L63.389,103.43 L57.104,107.16 L57.104,99.701" fill="#1C71A4"/>
    <path d="M63.389,110.891 L57.104,107.16 L63.389,103.43 L63.389,110.891" fill="#2372A2"/>
    <path d="M57.104,107.16 L63.389,110.891 L57.104,114.621 L57.104,107.16" fill="#18699A"/>
    <path d="M63.389,118.35 L57.104,114.621 L63.389,110.891 L63.389,118.35" fill="#0C6092"/>
    <path d="M57.104,114.621 L63.389,118.35 L57.104,122.08 L57.104,114.621" fill="#005687"/>
    <path d="M63.389,125.811 L57.104,122.08 L63.389,118.35 L63.389,125.811" fill="#004777"/>
    <path d="M57.104,122.08 L63.389,125.811 L57.104,129.539 L57.104,122.08" fill="#003D6C"/>
    <path d="M63.389,133.269 L57.104,129.539 L63.389,125.811 L63.389,133.269" fill="#002F5E"/>
    <path d="M57.104,129.539 L63.389,133.269 L57.104,136.998 L57.104,129.539" fill="#002554"/>
    <path d="M63.389,140.729 L57.104,136.998 L63.389,133.269 L63.389,140.729" fill="#001E4A"/>
    <path d="M50.633,-1.004 L57.104,2.726 L50.633,6.455 L50.633,-1.004" fill="#E4EFF9"/>
    <path d="M57.104,10.185 L50.633,6.455 L57.104,2.726 L57.104,10.185" fill="#E3EFF9"/>
    <path d="M50.633,6.455 L57.104,10.185 L50.633,13.916 L50.633,6.455" fill="#E5F0F9"/>
    <path d="M57.104,17.644 L50.633,13.916 L57.104,10.185 L57.104,17.644" fill="#E3EFF9"/>
    <path d="M50.633,13.916 L57.104,17.644 L50.633,21.375 L50.633,13.916" fill="#D2E8F9"/>
    <path d="M57.104,25.103 L50.633,21.375 L57.104,17.644 L57.104,25.103" fill="#D2E8F9"/>
    <path d="M50.633,21.375 L57.104,25.103 L50.633,28.834 L50.633,21.375" fill="#E7F1F9"/>
    <path d="M57.104,32.565 L50.633,28.834 L57.104,25.103 L57.104,32.565" fill="#DCEDF9"/>
    <path d="M50.633,28.834 L57.104,32.565 L50.633,36.295 L50.633,28.834" fill="#DEEDF9"/>
    <path d="M57.104,40.023 L50.633,36.295 L57.104,32.565 L57.104,40.023" fill="#9DD3F9"/>
    <path d="M50.633,36.295 L57.104,40.023 L50.633,43.754 L50.633,36.295" fill="#88CAF9"/>
    <path d="M57.104,47.484 L50.633,43.754 L57.104,40.023 L57.104,47.484" fill="#82C8F9"/>
    <path d="M50.633,43.754 L57.104,47.484 L50.633,51.213 L50.633,43.754" fill="#7DC6F9"/>
    <path d="M57.104,54.943 L50.633,51.213 L57.104,47.484 L57.104,54.943" fill="#61BCF9"/>
    <path d="M50.633,51.213 L57.104,54.943 L50.633,58.674 L50.633,51.213" fill="#59B8F9"/>
    <path d="M57.104,62.402 L50.633,58.674 L57.104,54.943 L57.104,62.402" fill="#52B6F9"/>
    <path d="M50.633,58.674 L57.104,62.402 L50.633,66.133 L50.633,58.674" fill="#49B4F9"/>
    <path d="M57.104,69.861 L50.633,66.133 L57.104,62.402 L57.104,69.861" fill="#4EB3F6"/>
    <path d="M50.633,66.133 L57.104,69.861 L50.633,73.592 L50.633,66.133" fill="#65B7EF"/>
    <path d="M57.104,77.322 L50.633,73.592 L57.104,69.861 L57.104,77.322" fill="#3FA4E3"/>
    <path d="M50.633,73.592 L57.104,77.322 L50.633,81.053 L50.633,73.592" fill="#49A4DE"/>
    <path d="M57.104,84.781 L50.633,81.053 L57.104,77.322 L57.104,84.781" fill="#449BD4"/>
    <path d="M50.633,81.053 L57.104,84.781 L50.633,88.512 L50.633,81.053" fill="#4498CF"/>
    <path d="M57.104,92.24 L50.633,88.512 L57.104,84.781 L57.104,92.24" fill="#3188C1"/>
    <path d="M50.633,88.512 L57.104,92.24 L50.633,95.971 L50.633,88.512" fill="#2C83BB"/>
    <path d="M57.104,99.701 L50.633,95.971 L57.104,92.24 L57.104,99.701" fill="#1E75AB"/>
    <path d="M50.633,95.971 L57.104,99.701 L50.633,103.43 L50.633,95.971" fill="#1972A6"/>
    <path d="M57.104,107.16 L50.633,103.43 L57.104,99.701 L57.104,107.16" fill="#136699"/>
    <path d="M50.633,103.43 L57.104,107.16 L50.633,110.891 L50.633,103.43" fill="#156697"/>
    <path d="M57.104,114.621 L50.633,110.891 L57.104,107.16 L57.104,114.621" fill="#0E5F8E"/>
    <path d="M50.633,110.891 L57.104,114.621 L50.633,118.35 L50.633,110.891" fill="#065A8B"/>
    <path d="M57.104,122.08 L50.633,118.35 L57.104,114.621 L57.104,122.08" fill="#004A7A"/>
    <path d="M50.633,118.35 L57.104,122.08 L50.633,125.811 L50.633,118.35" fill="#004271"/>
    <path d="M57.104,129.539 L50.633,125.811 L57.104,122.08 L57.104,129.539" fill="#003363"/>
    <path d="M50.633,125.811 L57.104,129.539 L50.633,133.269 L50.633,125.811" fill="#002D5A"/>
    <path d="M57.104,136.998 L50.633,133.269 L57.104,129.539 L57.104,136.998" fill="#001F4D"/>
    <path d="M50.633,133.269 L57.104,136.998 L50.633,140.729 L50.633,133.269" fill="#001847"/>
    <path d="M50.633,6.455 L44.159,2.726 L50.633,-1.004 L50.633,6.455" fill="#E3EFF9"/>
    <path d="M44.159,2.726 L50.633,6.455 L44.159,10.185 L44.159,2.726" fill="#E3EFF9"/>
    <path d="M50.633,13.916 L44.159,10.185 L50.633,6.455 L50.633,13.916" fill="#E7F0F9"/>
    <path d="M44.159,10.185 L50.633,13.916 L44.159,17.644 L44.159,10.185" fill="#E3EFF9"/>
    <path d="M50.633,21.375 L44.159,17.644 L50.633,13.916 L50.633,21.375" fill="#CEE6F9"/>
    <path d="M44.159,17.644 L50.633,21.375 L44.159,25.103 L44.159,17.644" fill="#CBE5F9"/>
    <path d="M50.633,28.834 L44.159,25.103 L50.633,21.375 L50.633,28.834" fill="#B5DBF9"/>
    <path d="M44.159,25.103 L50.633,28.834 L44.159,32.565 L44.159,25.103" fill="#A7D5F9"/>
    <path d="M50.633,36.295 L44.159,32.565 L50.633,28.834 L50.633,36.295" fill="#8BCCF9"/>
    <path d="M44.159,32.565 L50.633,36.295 L44.159,40.023 L44.159,32.565" fill="#8ACBF9"/>
    <path d="M50.633,43.754 L44.159,40.023 L50.633,36.295 L50.633,43.754" fill="#81C7F9"/>
    <path d="M44.159,40.023 L50.633,43.754 L44.159,47.484 L44.159,40.023" fill="#88CAF9"/>
    <path d="M50.633,51.213 L44.159,47.484 L50.633,43.754 L50.633,51.213" fill="#74C2F9"/>
    <path d="M44.159,47.484 L50.633,51.213 L44.159,54.943 L44.159,47.484" fill="#56B8F9"/>
    <path d="M50.633,58.674 L44.159,54.943 L50.633,51.213 L50.633,58.674" fill="#4FB6F9"/>
    <path d="M44.159,54.943 L50.633,58.674 L44.159,62.402 L44.159,54.943" fill="#7FC6F9"/>
    <path d="M50.633,66.133 L44.159,62.402 L50.633,58.674 L50.633,66.133" fill="#76C1F6"/>
    <path d="M44.159,62.402 L50.633,66.133 L44.159,69.861 L44.159,62.402" fill="#3BABF2"/>
    <path d="M50.633,73.592 L44.159,69.861 L50.633,66.133 L50.633,73.592" fill="#39A2E5"/>
    <path d="M44.159,69.861 L50.633,73.592 L44.159,77.322 L44.159,69.861" fill="#369CDD"/>
    <path d="M50.633,81.053 L44.159,77.322 L50.633,73.592 L50.633,81.053" fill="#3293D1"/>
    <path d="M44.159,77.322 L50.633,81.053 L44.159,84.781 L44.159,77.322" fill="#3391CD"/>
    <path d="M50.633,88.512 L44.159,84.781 L50.633,81.053 L50.633,88.512" fill="#358DC6"/>
    <path d="M44.159,84.781 L50.633,88.512 L44.159,92.24 L44.159,84.781" fill="#2A83BB"/>
    <path d="M50.633,95.971 L44.159,92.24 L50.633,88.512 L50.633,95.971" fill="#1D78AD"/>
    <path d="M44.159,92.24 L50.633,95.971 L44.159,99.701 L44.159,92.24" fill="#1972A6"/>
    <path d="M50.633,103.43 L44.159,99.701 L50.633,95.971 L50.633,103.43" fill="#136698"/>
    <path d="M44.159,99.701 L50.633,103.43 L44.159,107.16 L44.159,99.701" fill="#0C6092"/>
    <path d="M50.633,110.891 L44.159,107.16 L50.633,103.43 L50.633,110.891" fill="#095785"/>
    <path d="M44.159,107.16 L50.633,110.891 L44.159,114.621 L44.159,107.16" fill="#075683"/>
    <path d="M50.633,118.35 L44.159,114.621 L50.633,110.891 L50.633,118.35" fill="#004976"/>
    <path d="M44.159,114.621 L50.633,118.35 L44.159,122.08 L44.159,114.621" fill="#004371"/>
    <path d="M50.633,125.811 L44.159,122.08 L50.633,118.35 L50.633,125.811" fill="#003763"/>
    <path d="M44.159,122.08 L50.633,125.811 L44.159,129.539 L44.159,122.08" fill="#002F5C"/>
    <path d="M50.633,133.269 L44.159,129.539 L50.633,125.811 L50.633,133.269" fill="#002550"/>
    <path d="M44.159,129.539 L50.633,133.269 L44.159,136.998 L44.159,129.539" fill="#001C4A"/>
    <path d="M50.633,140.729 L44.159,136.998 L50.633,133.269 L50.633,140.729" fill="#001846"/>
    <path d="M37.689,-1.004 L44.159,2.726 L37.689,6.455 L37.689,-1.004" fill="#C7E3F9"/>
    <path d="M44.159,10.185 L37.689,6.455 L44.159,2.726 L44.159,10.185" fill="#C0E0F9"/>
    <path d="M37.689,6.455 L44.159,10.185 L37.689,13.916 L37.689,6.455" fill="#D4E9F9"/>
    <path d="M44.159,17.644 L37.689,13.916 L44.159,10.185 L44.159,17.644" fill="#C5E2F9"/>
    <path d="M37.689,13.916 L44.159,17.644 L37.689,21.375 L37.689,13.916" fill="#C6E3F9"/>
    <path d="M44.159,25.103 L37.689,21.375 L44.159,17.644 L44.159,25.103" fill="#B9DEF9"/>
    <path d="M37.689,21.375 L44.159,25.103 L37.689,28.834 L37.689,21.375" fill="#CEE6F9"/>
    <path d="M44.159,32.565 L37.689,28.834 L44.159,25.103 L44.159,32.565" fill="#81C7F9"/>
    <path d="M37.689,28.834 L44.159,32.565 L37.689,36.295 L37.689,28.834" fill="#75C3F9"/>
    <path d="M44.159,40.023 L37.689,36.295 L44.159,32.565 L44.159,40.023" fill="#77C3F9"/>
    <path d="M37.689,36.295 L44.159,40.023 L37.689,43.754 L37.689,36.295" fill="#7BC5F9"/>
    <path d="M44.159,47.484 L37.689,43.754 L44.159,40.023 L44.159,47.484" fill="#DAEBF9"/>
    <path d="M37.689,43.754 L44.159,47.484 L37.689,51.213 L37.689,43.754" fill="#DDEEF9"/>
    <path d="M44.159,54.943 L37.689,51.213 L44.159,47.484 L44.159,54.943" fill="#8BCCF9"/>
    <path d="M37.689,51.213 L44.159,54.943 L37.689,58.674 L37.689,51.213" fill="#53B7F9"/>
    <path d="M44.159,62.402 L37.689,58.674 L44.159,54.943 L44.159,62.402" fill="#3EAEF4"/>
    <path d="M37.689,58.674 L44.159,62.402 L37.689,66.133 L37.689,58.674" fill="#39AAF0"/>
    <path d="M44.159,69.861 L37.689,66.133 L44.159,62.402 L44.159,69.861" fill="#3FA5E7"/>
    <path d="M37.689,66.133 L44.159,69.861 L37.689,73.592 L37.689,66.133" fill="#399FE0"/>
    <path d="M44.159,77.322 L37.689,73.592 L44.159,69.861 L44.159,77.322" fill="#3899D7"/>
    <path d="M37.689,73.592 L44.159,77.322 L37.689,81.053 L37.689,73.592" fill="#2F8FCD"/>
    <path d="M44.159,84.781 L37.689,81.053 L44.159,77.322 L44.159,84.781" fill="#2A87C1"/>
    <path d="M37.689,81.053 L44.159,84.781 L37.689,88.512 L37.689,81.053" fill="#3087BF"/>
    <path d="M44.159,92.24 L37.689,88.512 L44.159,84.781 L44.159,92.24" fill="#2279AF"/>
    <path d="M37.689,88.512 L44.159,92.24 L37.689,95.971 L37.689,88.512" fill="#1972A5"/>
    <path d="M44.159,99.701 L37.689,95.971 L44.159,92.24 L44.159,99.701" fill="#136597"/>
    <path d="M37.689,95.971 L44.159,99.701 L37.689,103.43 L37.689,95.971" fill="#0C5F90"/>
    <path d="M44.159,107.16 L37.689,103.43 L44.159,99.701 L44.159,107.16" fill="#075683"/>
    <path d="M37.689,103.43 L44.159,107.16 L37.689,110.891 L37.689,103.43" fill="#04507D"/>
    <path d="M44.159,114.621 L37.689,110.891 L44.159,107.16 L44.159,114.621" fill="#004671"/>
    <path d="M37.689,110.891 L44.159,114.621 L37.689,118.35 L37.689,110.891" fill="#00406D"/>
    <path d="M44.159,122.08 L37.689,118.35 L44.159,114.621 L44.159,122.08" fill="#003763"/>
    <path d="M37.689,118.35 L44.159,122.08 L37.689,125.811 L37.689,118.35" fill="#002F5C"/>
    <path d="M44.159,129.539 L37.689,125.811 L44.159,122.08 L44.159,129.539" fill="#002653"/>
    <path d="M37.689,125.811 L44.159,129.539 L37.689,133.269 L37.689,125.811" fill="#001F4D"/>
    <path d="M44.159,136.998 L37.689,133.269 L44.159,129.539 L44.159,136.998" fill="#001746"/>
    <path d="M37.689,133.269 L44.159,136.998 L37.689,140.729 L37.689,133.269" fill="#001444"/>
    <path d="M37.689,6.455 L31.218,2.726 L37.689,-1.004 L37.689,6.455" fill="#93CDF6"/>
    <path d="M31.218,2.726 L37.689,6.455 L31.218,10.185 L31.218,2.726" fill="#C7E3F9"/>
    <path d="M37.689,13.916 L31.218,10.185 L37.689,6.455 L37.689,13.916" fill="#EAF2F9"/>
    <path d="M31.218,10.185 L37.689,13.916 L31.218,17.644 L31.218,10.185" fill="#B7DDF9"/>
    <path d="M37.689,21.375 L31.218,17.644 L37.689,13.916 L37.689,21.375" fill="#A7D5F9"/>
    <path d="M31.218,17.644 L37.689,21.375 L31.218,25.103 L31.218,17.644" fill="#A7D5F9"/>
    <path d="M37.689,28.834 L31.218,25.103 L37.689,21.375 L37.689,28.834" fill="#71C2F9"/>
    <path d="M31.218,25.103 L37.689,28.834 L31.218,32.565 L31.218,25.103" fill="#67BEF9"/>
    <path d="M37.689,36.295 L31.218,32.565 L37.689,28.834 L37.689,36.295" fill="#5CBAF9"/>
    <path d="M31.218,32.565 L37.689,36.295 L31.218,40.023 L31.218,32.565" fill="#4FB6F9"/>
    <path d="M37.689,43.754 L31.218,40.023 L37.689,36.295 L37.689,43.754" fill="#52B6F9"/>
    <path d="M31.218,40.023 L37.689,43.754 L31.218,47.484 L31.218,40.023" fill="#75C3F9"/>
    <path d="M37.689,51.213 L31.218,47.484 L37.689,43.754 L37.689,51.213" fill="#7CC5F8"/>
    <path d="M31.218,47.484 L37.689,51.213 L31.218,54.943 L31.218,47.484" fill="#69BEF8"/>
    <path d="M37.689,58.674 L31.218,54.943 L37.689,51.213 L37.689,58.674" fill="#45ADEF"/>
    <path d="M31.218,54.943 L37.689,58.674 L31.218,62.402 L31.218,54.943" fill="#32A5EB"/>
    <path d="M37.689,66.133 L31.218,62.402 L37.689,58.674 L37.689,66.133" fill="#39A0E2"/>
    <path d="M31.218,62.402 L37.689,66.133 L31.218,69.861 L31.218,62.402" fill="#49A6E3"/>
    <path d="M37.689,73.592 L31.218,69.861 L37.689,66.133 L37.689,73.592" fill="#429ED9"/>
    <path d="M31.218,69.861 L37.689,73.592 L31.218,77.322 L31.218,69.861" fill="#3D99D4"/>
    <path d="M37.689,81.053 L31.218,77.322 L37.689,73.592 L37.689,81.053" fill="#2B89C3"/>
    <path d="M31.218,77.322 L37.689,81.053 L31.218,84.781 L31.218,77.322" fill="#2783BC"/>
    <path d="M37.689,88.512 L31.218,84.781 L37.689,81.053 L37.689,88.512" fill="#217AB0"/>
    <path d="M31.218,84.781 L37.689,88.512 L31.218,92.24 L31.218,84.781" fill="#1E74A9"/>
    <path d="M37.689,95.971 L31.218,92.24 L37.689,88.512 L37.689,95.971" fill="#15679A"/>
    <path d="M31.218,92.24 L37.689,95.971 L31.218,99.701 L31.218,92.24" fill="#106192"/>
    <path d="M37.689,103.43 L31.218,99.701 L37.689,95.971 L37.689,103.43" fill="#095683"/>
    <path d="M31.218,99.701 L37.689,103.43 L31.218,107.16 L31.218,99.701" fill="#024F7C"/>
    <path d="M37.689,110.891 L31.218,107.16 L37.689,103.43 L37.689,110.891" fill="#00456F"/>
    <path d="M31.218,107.16 L37.689,110.891 L31.218,114.621 L31.218,107.16" fill="#003F6A"/>
    <path d="M37.689,118.35 L31.218,114.621 L37.689,110.891 L37.689,118.35" fill="#003360"/>
    <path d="M31.218,114.621 L37.689,118.35 L31.218,122.08 L31.218,114.621" fill="#002F5B"/>
    <path d="M37.689,125.811 L31.218,122.08 L37.689,118.35 L37.689,125.811" fill="#002653"/>
    <path d="M31.218,122.08 L37.689,125.811 L31.218,129.539 L31.218,122.08" fill="#00234E"/>
    <path d="M37.689,133.269 L31.218,129.539 L37.689,125.811 L37.689,133.269" fill="#001C49"/>
    <path d="M31.218,129.539 L37.689,133.269 L31.218,136.998 L31.218,129.539" fill="#001545"/>
    <path d="M37.689,140.729 L31.218,136.998 L37.689,133.269 L37.689,140.729" fill="#001541"/>
    <path d="M24.744,-1.004 L31.218,2.726 L24.744,6.455 L24.744,-1.004" fill="#77BEEF"/>
    <path d="M31.218,10.185 L24.744,6.455 L31.218,2.726 L31.218,10.185" fill="#6AB8EE"/>
    <path d="M24.744,6.455 L31.218,10.185 L24.744,13.916 L24.744,6.455" fill="#AED8F6"/>
    <path d="M31.218,17.644 L24.744,13.916 L31.218,10.185 L31.218,17.644" fill="#69BBF4"/>
    <path d="M24.744,13.916 L31.218,17.644 L24.744,21.375 L24.744,13.916" fill="#74C2F8"/>
    <path d="M31.218,25.103 L24.744,21.375 L31.218,17.644 L31.218,25.103" fill="#5EB9F6"/>
    <path d="M24.744,21.375 L31.218,25.103 L24.744,28.834 L24.744,21.375" fill="#5FBCF9"/>
    <path d="M31.218,32.565 L24.744,28.834 L31.218,25.103 L31.218,32.565" fill="#62BCF7"/>
    <path d="M24.744,28.834 L31.218,32.565 L24.744,36.295 L24.744,28.834" fill="#66BEF9"/>
    <path d="M31.218,40.023 L24.744,36.295 L31.218,32.565 L31.218,40.023" fill="#68BDF6"/>
    <path d="M24.744,36.295 L31.218,40.023 L24.744,43.754 L24.744,36.295" fill="#65BCF7"/>
    <path d="M31.218,47.484 L24.744,43.754 L31.218,40.023 L31.218,47.484" fill="#5CB7F2"/>
    <path d="M24.744,43.754 L31.218,47.484 L24.744,51.213 L24.744,43.754" fill="#57B4F2"/>
    <path d="M31.218,54.943 L24.744,51.213 L31.218,47.484 L31.218,54.943" fill="#49A8E8"/>
    <path d="M24.744,51.213 L31.218,54.943 L24.744,58.674 L24.744,51.213" fill="#3DA4E6"/>
    <path d="M31.218,62.402 L24.744,58.674 L31.218,54.943 L31.218,62.402" fill="#3499DA"/>
    <path d="M24.744,58.674 L31.218,62.402 L24.744,66.133 L24.744,58.674" fill="#3098D8"/>
    <path d="M31.218,69.861 L24.744,66.133 L31.218,62.402 L31.218,69.861" fill="#2C8FCD"/>
    <path d="M24.744,66.133 L31.218,69.861 L24.744,73.592 L24.744,66.133" fill="#4099D3"/>
    <path d="M31.218,77.322 L24.744,73.592 L31.218,69.861 L31.218,77.322" fill="#3089C3"/>
    <path d="M24.744,73.592 L31.218,77.322 L24.744,81.053 L24.744,73.592" fill="#2681B9"/>
    <path d="M31.218,84.781 L24.744,81.053 L31.218,77.322 L31.218,84.781" fill="#1E75AB"/>
    <path d="M24.744,81.053 L31.218,84.781 L24.744,88.512 L24.744,81.053" fill="#1972A6"/>
    <path d="M31.218,92.24 L24.744,88.512 L31.218,84.781 L31.218,92.24" fill="#136698"/>
    <path d="M24.744,88.512 L31.218,92.24 L24.744,95.971 L24.744,88.512" fill="#106393"/>
    <path d="M31.218,99.701 L24.744,95.971 L31.218,92.24 L31.218,99.701" fill="#095784"/>
    <path d="M24.744,95.971 L31.218,99.701 L24.744,103.43 L24.744,95.971" fill="#04507D"/>
    <path d="M31.218,107.16 L24.744,103.43 L31.218,99.701 L31.218,107.16" fill="#004670"/>
    <path d="M24.744,103.43 L31.218,107.16 L24.744,110.891 L24.744,103.43" fill="#003E69"/>
    <path d="M31.218,114.621 L24.744,110.891 L31.218,107.16 L31.218,114.621" fill="#003560"/>
    <path d="M24.744,110.891 L31.218,114.621 L24.744,118.35 L24.744,110.891" fill="#00305B"/>
    <path d="M31.218,122.08 L24.744,118.35 L31.218,114.621 L31.218,122.08" fill="#002754"/>
    <path d="M24.744,118.35 L31.218,122.08 L24.744,125.811 L24.744,118.35" fill="#00254F"/>
    <path d="M31.218,129.539 L24.744,125.811 L31.218,122.08 L31.218,129.539" fill="#001E4A"/>
    <path d="M24.744,125.811 L31.218,129.539 L24.744,133.269 L24.744,125.811" fill="#001746"/>
    <path d="M31.218,136.998 L24.744,133.269 L31.218,129.539 L31.218,136.998" fill="#001241"/>
    <path d="M24.744,133.269 L31.218,136.998 L24.744,140.729 L24.744,133.269" fill="#00113F"/>
    <path d="M24.744,6.455 L18.493,2.726 L24.744,-1.004 L24.744,6.455" fill="#58A8DF"/>
    <path d="M18.493,2.726 L24.744,6.455 L18.493,10.185 L18.493,2.726" fill="#4DA7E2"/>
    <path d="M24.744,13.916 L18.493,10.185 L24.744,6.455 L24.744,13.916" fill="#53A8E1"/>
    <path d="M18.493,10.185 L24.744,13.916 L18.493,17.644 L18.493,10.185" fill="#7BBFEF"/>
    <path d="M24.744,21.375 L18.493,17.644 L24.744,13.916 L24.744,21.375" fill="#6DB6EA"/>
    <path d="M18.493,17.644 L24.744,21.375 L18.493,25.103 L18.493,17.644" fill="#47ABEA"/>
    <path d="M24.744,28.834 L18.493,25.103 L24.744,21.375 L24.744,28.834" fill="#349FE2"/>
    <path d="M18.493,25.103 L24.744,28.834 L18.493,32.565 L18.493,25.103" fill="#40A8EA"/>
    <path d="M24.744,36.295 L18.493,32.565 L24.744,28.834 L24.744,36.295" fill="#3BA2E4"/>
    <path d="M18.493,32.565 L24.744,36.295 L18.493,40.023 L18.493,32.565" fill="#4CACEA"/>
    <path d="M24.744,43.754 L18.493,40.023 L24.744,36.295 L24.744,43.754" fill="#48A6E3"/>
    <path d="M18.493,40.023 L24.744,43.754 L18.493,47.484 L18.493,40.023" fill="#4BAAE6"/>
    <path d="M24.744,51.213 L18.493,47.484 L24.744,43.754 L24.744,51.213" fill="#45A1DC"/>
    <path d="M18.493,47.484 L24.744,51.213 L18.493,54.943 L18.493,47.484" fill="#48A3DE"/>
    <path d="M24.744,58.674 L18.493,54.943 L24.744,51.213 L24.744,58.674" fill="#3B99D3"/>
    <path d="M18.493,54.943 L24.744,58.674 L18.493,62.402 L18.493,54.943" fill="#3998D2"/>
    <path d="M24.744,66.133 L18.493,62.402 L24.744,58.674 L24.744,66.133" fill="#2889C4"/>
    <path d="M18.493,62.402 L24.744,66.133 L18.493,69.861 L18.493,62.402" fill="#2385C1"/>
    <path d="M24.744,73.592 L18.493,69.861 L24.744,66.133 L24.744,73.592" fill="#1879B2"/>
    <path d="M18.493,69.861 L24.744,73.592 L18.493,77.322 L18.493,69.861" fill="#1C78B1"/>
    <path d="M24.744,81.053 L18.493,77.322 L24.744,73.592 L24.744,81.053" fill="#166FA3"/>
    <path d="M18.493,77.322 L24.744,81.053 L18.493,84.781 L18.493,77.322" fill="#166BA0"/>
    <path d="M24.744,88.512 L18.493,84.781 L24.744,81.053 L24.744,88.512" fill="#0C6092"/>
    <path d="M18.493,84.781 L24.744,88.512 L18.493,92.24 L18.493,84.781" fill="#0C5E8E"/>
    <path d="M24.744,95.971 L18.493,92.24 L24.744,88.512 L24.744,95.971" fill="#075580"/>
    <path d="M18.493,92.24 L24.744,95.971 L18.493,99.701 L18.493,92.24" fill="#04507C"/>
    <path d="M24.744,103.43 L18.493,99.701 L24.744,95.971 L24.744,103.43" fill="#00456F"/>
    <path d="M18.493,99.701 L24.744,103.43 L18.493,107.16 L18.493,99.701" fill="#003E69"/>
    <path d="M24.744,110.891 L18.493,107.16 L24.744,103.43 L24.744,110.891" fill="#003560"/>
    <path d="M18.493,107.16 L24.744,110.891 L18.493,114.621 L18.493,107.16" fill="#00305C"/>
    <path d="M24.744,118.35 L18.493,114.621 L24.744,110.891 L24.744,118.35" fill="#002955"/>
    <path d="M18.493,114.621 L24.744,118.35 L18.493,122.08 L18.493,114.621" fill="#002550"/>
    <path d="M24.744,125.811 L18.493,122.08 L24.744,118.35 L24.744,125.811" fill="#001E4A"/>
    <path d="M18.493,122.08 L24.744,125.811 L18.493,129.539 L18.493,122.08" fill="#001B47"/>
    <path d="M24.744,133.269 L18.493,129.539 L24.744,125.811 L24.744,133.269" fill="#001441"/>
    <path d="M18.493,129.539 L24.744,133.269 L18.493,136.998 L18.493,129.539" fill="#00113F"/>
    <path d="M24.744,140.729 L18.493,136.998 L24.744,133.269 L24.744,140.729" fill="#00123F"/>
    <path d="M12.02,-1.004 L18.493,2.726 L12.02,6.455 L12.02,-1.004" fill="#3893CD"/>
    <path d="M18.493,10.185 L12.02,6.455 L18.493,2.726 L18.493,10.185" fill="#3C93CC"/>
    <path d="M12.02,6.455 L18.493,10.185 L12.02,13.916 L12.02,6.455" fill="#51A1D7"/>
    <path d="M18.493,17.644 L12.02,13.916 L18.493,10.185 L18.493,17.644" fill="#5BA4D7"/>
    <path d="M12.02,13.916 L18.493,17.644 L12.02,21.375 L12.02,13.916" fill="#53A4D9"/>
    <path d="M18.493,25.103 L12.02,21.375 L18.493,17.644 L18.493,25.103" fill="#3D99D4"/>
    <path d="M12.02,21.375 L18.493,25.103 L12.02,28.834 L12.02,21.375" fill="#3699D8"/>
    <path d="M18.493,32.565 L12.02,28.834 L18.493,25.103 L18.493,32.565" fill="#3092D1"/>
    <path d="M12.02,28.834 L18.493,32.565 L12.02,36.295 L12.02,28.834" fill="#3B99D7"/>
    <path d="M18.493,40.023 L12.02,36.295 L18.493,32.565 L18.493,40.023" fill="#3B95CF"/>
    <path d="M12.02,36.295 L18.493,40.023 L12.02,43.754 L12.02,36.295" fill="#459CD7"/>
    <path d="M18.493,47.484 L12.02,43.754 L18.493,40.023 L18.493,47.484" fill="#4A9CD4"/>
    <path d="M12.02,43.754 L18.493,47.484 L12.02,51.213 L12.02,43.754" fill="#3D98D1"/>
    <path d="M18.493,54.943 L12.02,51.213 L18.493,47.484 L18.493,54.943" fill="#318BC4"/>
    <path d="M12.02,51.213 L18.493,54.943 L12.02,58.674 L12.02,51.213" fill="#2C8BC4"/>
    <path d="M18.493,62.402 L12.02,58.674 L18.493,54.943 L18.493,62.402" fill="#237FB7"/>
    <path d="M12.02,58.674 L18.493,62.402 L12.02,66.133 L12.02,58.674" fill="#2280B8"/>
    <path d="M18.493,69.861 L12.02,66.133 L18.493,62.402 L18.493,69.861" fill="#1973A9"/>
    <path d="M12.02,66.133 L18.493,69.861 L12.02,73.592 L12.02,66.133" fill="#146FA5"/>
    <path d="M18.493,77.322 L12.02,73.592 L18.493,69.861 L18.493,77.322" fill="#0B6497"/>
    <path d="M12.02,73.592 L18.493,77.322 L12.02,81.053 L12.02,73.592" fill="#0D6496"/>
    <path d="M18.493,84.781 L12.02,81.053 L18.493,77.322 L18.493,84.781" fill="#085988"/>
    <path d="M12.02,81.053 L18.493,84.781 L12.02,88.512 L12.02,81.053" fill="#085987"/>
    <path d="M18.493,92.24 L12.02,88.512 L18.493,84.781 L18.493,92.24" fill="#024F7A"/>
    <path d="M12.02,88.512 L18.493,92.24 L12.02,95.971 L12.02,88.512" fill="#024E77"/>
    <path d="M18.493,99.701 L12.02,95.971 L18.493,92.24 L18.493,99.701" fill="#00416C"/>
    <path d="M12.02,95.971 L18.493,99.701 L12.02,103.43 L12.02,95.971" fill="#003E69"/>
    <path d="M18.493,107.16 L12.02,103.43 L18.493,99.701 L18.493,107.16" fill="#003560"/>
    <path d="M12.02,103.43 L18.493,107.16 L12.02,110.891 L12.02,103.43" fill="#00305C"/>
    <path d="M18.493,114.621 L12.02,110.891 L18.493,107.16 L18.493,114.621" fill="#002955"/>
    <path d="M12.02,110.891 L18.493,114.621 L12.02,118.35 L12.02,110.891" fill="#002550"/>
    <path d="M18.493,122.08 L12.02,118.35 L18.493,114.621 L18.493,122.08" fill="#001F4C"/>
    <path d="M12.02,118.35 L18.493,122.08 L12.02,125.811 L12.02,118.35" fill="#001847"/>
    <path d="M18.493,129.539 L12.02,125.811 L18.493,122.08 L18.493,129.539" fill="#001444"/>
    <path d="M12.02,125.811 L18.493,129.539 L12.02,133.269 L12.02,125.811" fill="#001140"/>
    <path d="M18.493,136.998 L12.02,133.269 L18.493,129.539 L18.493,136.998" fill="#000C3C"/>
    <path d="M12.02,133.269 L18.493,136.998 L12.02,140.729 L12.02,133.269" fill="#000C3B"/>
    <path d="M12.02,6.455 L5.549,2.726 L12.02,-1.004 L12.02,6.455" fill="#3485BB"/>
    <path d="M5.549,2.726 L12.02,6.455 L5.549,10.185 L5.549,2.726" fill="#3489C1"/>
    <path d="M12.02,13.916 L5.549,10.185 L12.02,6.455 L12.02,13.916" fill="#3488BE"/>
    <path d="M5.549,10.185 L12.02,13.916 L5.549,17.644 L5.549,10.185" fill="#4393C6"/>
    <path d="M12.02,21.375 L5.549,17.644 L12.02,13.916 L12.02,21.375" fill="#2983BB"/>
    <path d="M5.549,17.644 L12.02,21.375 L5.549,25.103 L5.549,17.644" fill="#3B93CC"/>
    <path d="M12.02,28.834 L5.549,25.103 L12.02,21.375 L12.02,28.834" fill="#3088C1"/>
    <path d="M5.549,25.103 L12.02,28.834 L5.549,32.565 L5.549,25.103" fill="#2A87C1"/>
    <path d="M12.02,36.295 L5.549,32.565 L12.02,28.834 L12.02,36.295" fill="#2D82B9"/>
    <path d="M5.549,32.565 L12.02,36.295 L5.549,40.023 L5.549,32.565" fill="#398CC1"/>
    <path d="M12.02,43.754 L5.549,40.023 L12.02,36.295 L12.02,43.754" fill="#5099C9"/>
    <path d="M5.549,40.023 L12.02,43.754 L5.549,47.484 L5.549,40.023" fill="#1F74A9"/>
    <path d="M12.02,51.213 L5.549,47.484 L12.02,43.754 L12.02,51.213" fill="#297EB2"/>
    <path d="M5.549,47.484 L12.02,51.213 L5.549,54.943 L5.549,47.484" fill="#267EB4"/>
    <path d="M12.02,58.674 L5.549,54.943 L12.02,51.213 L12.02,58.674" fill="#1F74A9"/>
    <path d="M5.549,54.943 L12.02,58.674 L5.549,62.402 L5.549,54.943" fill="#1E74A9"/>
    <path d="M12.02,66.133 L5.549,62.402 L12.02,58.674 L12.02,66.133" fill="#14699B"/>
    <path d="M5.549,62.402 L12.02,66.133 L5.549,69.861 L5.549,62.402" fill="#136699"/>
    <path d="M12.02,73.592 L5.549,69.861 L12.02,66.133 L12.02,73.592" fill="#0A5D8D"/>
    <path d="M5.549,69.861 L12.02,73.592 L5.549,77.322 L5.549,69.861" fill="#0A5B8B"/>
    <path d="M12.02,81.053 L5.549,77.322 L12.02,73.592 L12.02,81.053" fill="#075580"/>
    <path d="M5.549,77.322 L12.02,81.053 L5.549,84.781 L5.549,77.322" fill="#04527E"/>
    <path d="M12.02,88.512 L5.549,84.781 L12.02,81.053 L12.02,88.512" fill="#014B74"/>
    <path d="M5.549,84.781 L12.02,88.512 L5.549,92.24 L5.549,84.781" fill="#004873"/>
    <path d="M12.02,95.971 L5.549,92.24 L12.02,88.512 L12.02,95.971" fill="#003E69"/>
    <path d="M5.549,92.24 L12.02,95.971 L5.549,99.701 L5.549,92.24" fill="#003A66"/>
    <path d="M12.02,103.43 L5.549,99.701 L12.02,95.971 L12.02,103.43" fill="#00325E"/>
    <path d="M5.549,99.701 L12.02,103.43 L5.549,107.16 L5.549,99.701" fill="#002F5B"/>
    <path d="M12.02,110.891 L5.549,107.16 L12.02,103.43 L12.02,110.891" fill="#002754"/>
    <path d="M5.549,107.16 L12.02,110.891 L5.549,114.621 L5.549,107.16" fill="#002550"/>
    <path d="M12.02,118.35 L5.549,114.621 L12.02,110.891 L12.02,118.35" fill="#001E4A"/>
    <path d="M5.549,114.621 L12.02,118.35 L5.549,122.08 L5.549,114.621" fill="#001847"/>
    <path d="M12.02,125.811 L5.549,122.08 L12.02,118.35 L12.02,125.811" fill="#001444"/>
    <path d="M5.549,122.08 L12.02,125.811 L5.549,129.539 L5.549,122.08" fill="#001140"/>
    <path d="M12.02,133.269 L5.549,129.539 L12.02,125.811 L12.02,133.269" fill="#000C3C"/>
    <path d="M5.549,129.539 L12.02,133.269 L5.549,136.998 L5.549,129.539" fill="#000B3B"/>
    <path d="M12.02,140.729 L5.549,136.998 L12.02,133.269 L12.02,140.729" fill="#000C3B"/>
    <path d="M-0.922,-1.004 L5.549,2.726 L-0.922,6.455 L-0.922,-1.004" fill="#2B78AA"/>
    <path d="M5.549,10.185 L-0.922,6.455 L5.549,2.726 L5.549,10.185" fill="#2B74A4"/>
    <path d="M-0.922,6.455 L5.549,10.185 L-0.922,13.916 L-0.922,6.455" fill="#2C7AAB"/>
    <path d="M5.549,17.644 L-0.922,13.916 L5.549,10.185 L5.549,17.644" fill="#146A9F"/>
    <path d="M-0.922,13.916 L5.549,17.644 L-0.922,21.375 L-0.922,13.916" fill="#1E75AB"/>
    <path d="M5.549,25.103 L-0.922,21.375 L5.549,17.644 L5.549,25.103" fill="#1E75AA"/>
    <path d="M-0.922,21.375 L5.549,25.103 L-0.922,28.834 L-0.922,21.375" fill="#1772A7"/>
    <path d="M5.549,32.565 L-0.922,28.834 L5.549,25.103 L5.549,32.565" fill="#1C71A4"/>
    <path d="M-0.922,28.834 L5.549,32.565 L-0.922,36.295 L-0.922,28.834" fill="#2278AB"/>
    <path d="M5.549,40.023 L-0.922,36.295 L5.549,32.565 L5.549,40.023" fill="#2374A6"/>
    <path d="M-0.922,36.295 L5.549,40.023 L-0.922,43.754 L-0.922,36.295" fill="#2B7AAC"/>
    <path d="M5.549,47.484 L-0.922,43.754 L5.549,40.023 L5.549,47.484" fill="#2172A3"/>
    <path d="M-0.922,43.754 L5.549,47.484 L-0.922,51.213 L-0.922,43.754" fill="#2374A5"/>
    <path d="M5.549,54.943 L-0.922,51.213 L5.549,47.484 L5.549,54.943" fill="#1F6C9D"/>
    <path d="M-0.922,51.213 L5.549,54.943 L-0.922,58.674 L-0.922,51.213" fill="#1A6A9B"/>
    <path d="M5.549,62.402 L-0.922,58.674 L5.549,54.943 L5.549,62.402" fill="#106090"/>
    <path d="M-0.922,58.674 L5.549,62.402 L-0.922,66.133 L-0.922,58.674" fill="#0C5E8D"/>
    <path d="M5.549,69.861 L-0.922,66.133 L5.549,62.402 L5.549,69.861" fill="#075683"/>
    <path d="M-0.922,66.133 L5.549,69.861 L-0.922,73.592 L-0.922,66.133" fill="#075683"/>
    <path d="M5.549,77.322 L-0.922,73.592 L5.549,69.861 L5.549,77.322" fill="#024E79"/>
    <path d="M-0.922,73.592 L5.549,77.322 L-0.922,81.053 L-0.922,73.592" fill="#024E78"/>
    <path d="M5.549,84.781 L-0.922,81.053 L5.549,77.322 L5.549,84.781" fill="#00456F"/>
    <path d="M-0.922,81.053 L5.549,84.781 L-0.922,88.512 L-0.922,81.053" fill="#00436D"/>
    <path d="M5.549,92.24 L-0.922,88.512 L5.549,84.781 L5.549,92.24" fill="#003965"/>
    <path d="M-0.922,88.512 L5.549,92.24 L-0.922,95.971 L-0.922,88.512" fill="#003763"/>
    <path d="M5.549,99.701 L-0.922,95.971 L5.549,92.24 L5.549,99.701" fill="#002F5B"/>
    <path d="M-0.922,95.971 L5.549,99.701 L-0.922,103.43 L-0.922,95.971" fill="#002E58"/>
    <path d="M5.549,107.16 L-0.922,103.43 L5.549,99.701 L5.549,107.16" fill="#002650"/>
    <path d="M-0.922,103.43 L5.549,107.16 L-0.922,110.891 L-0.922,103.43" fill="#00234F"/>
    <path d="M5.549,114.621 L-0.922,110.891 L5.549,107.16 L5.549,114.621" fill="#001B49"/>
    <path d="M-0.922,110.891 L5.549,114.621 L-0.922,118.35 L-0.922,110.891" fill="#001B47"/>
    <path d="M5.549,122.08 L-0.922,118.35 L5.549,114.621 L5.549,122.08" fill="#001241"/>
    <path d="M-0.922,118.35 L5.549,122.08 L-0.922,125.811 L-0.922,118.35" fill="#001140"/>
    <path d="M5.549,129.539 L-0.922,125.811 L5.549,122.08 L5.549,129.539" fill="#000C3C"/>
    <path d="M-0.922,125.811 L5.549,129.539 L-0.922,133.269 L-0.922,125.811" fill="#000B3B"/>
    <path d="M5.549,136.998 L-0.922,133.269 L5.549,129.539 L5.549,136.998" fill="#000A38"/>
    <path d="M-0.922,133.269 L5.549,136.998 L-0.922,140.729 L-0.922,133.269" fill="#000A38"/>
    <path d="M134.309,136.998 L140.811,140.729 L134.309,140.729 L134.309,136.998" fill="#000E3C"/>
    <path d="M134.309,140.729 L127.838,140.729 L134.309,136.998 L134.309,140.729" fill="#000E3C"/>
    <path d="M121.365,136.998 L127.838,140.729 L121.365,140.729 L121.365,136.998" fill="#000E3C"/>
    <path d="M121.365,140.729 L114.895,140.729 L121.365,136.998 L121.365,140.729" fill="#000E3C"/>
    <path d="M108.422,136.998 L114.895,140.729 L108.422,140.729 L108.422,136.998" fill="#000E3C"/>
    <path d="M108.422,140.729 L101.951,140.729 L108.422,136.998 L108.422,140.729" fill="#000E3C"/>
    <path d="M95.745,136.998 L101.951,140.729 L95.745,140.729 L95.745,136.998" fill="#000E3C"/>
    <path d="M95.745,140.729 L89.273,140.729 L95.745,136.998 L95.745,140.729" fill="#000E3C"/>
    <path d="M82.803,136.998 L89.273,140.729 L82.803,140.729 L82.803,136.998" fill="#000E3C"/>
    <path d="M82.803,140.729 L76.33,140.729 L82.803,136.998 L82.803,140.729" fill="#000E3C"/>
    <path d="M69.86,136.998 L76.33,140.729 L69.86,140.729 L69.86,136.998" fill="#000E3C"/>
    <path d="M69.86,140.729 L63.389,140.729 L69.86,136.998 L69.86,140.729" fill="#000E3C"/>
    <path d="M57.104,136.998 L63.389,140.729 L57.104,140.729 L57.104,136.998" fill="#000E3C"/>
    <path d="M57.104,140.729 L50.633,140.729 L57.104,136.998 L57.104,140.729" fill="#000E3C"/>
    <path d="M44.159,136.998 L50.633,140.729 L44.159,140.729 L44.159,136.998" fill="#000E3C"/>
    <path d="M44.159,140.729 L37.689,140.729 L44.159,136.998 L44.159,140.729" fill="#000E3C"/>
    <path d="M31.218,136.998 L37.689,140.729 L31.218,140.729 L31.218,136.998" fill="#000E3C"/>
    <path d="M31.218,140.729 L24.744,140.729 L31.218,136.998 L31.218,140.729" fill="#000E3C"/>
    <path d="M18.493,136.998 L24.744,140.729 L18.493,140.729 L18.493,136.998" fill="#000E3C"/>
    <path d="M18.493,140.729 L12.02,140.729 L18.493,136.998 L18.493,140.729" fill="#000E3C"/>
    <path d="M5.549,136.998 L12.02,140.729 L5.549,140.729 L5.549,136.998" fill="#000E3C"/>
    <path d="M5.549,140.729 L-0.922,140.729 L5.549,136.998 L5.549,140.729" fill="#000E3C"/>
    <path d="M134.309,2.727 L140.811,-1.004 L134.309,-1.004 L134.309,2.727" fill="#2073A6"/>
    <path d="M134.309,-1.004 L127.838,-1.004 L134.309,2.727 L134.309,-1.004" fill="#2981B7"/>
    <path d="M121.365,2.727 L127.838,-1.004 L121.365,-1.004 L121.365,2.727" fill="#378DC4"/>
    <path d="M121.365,-1.004 L114.895,-1.004 L121.365,2.727 L121.365,-1.004" fill="#5CA6D8"/>
    <path d="M108.422,2.727 L114.895,-1.004 L108.422,-1.004 L108.422,2.727" fill="#86BEE6"/>
    <path d="M108.422,-1.004 L101.951,-1.004 L108.422,2.727 L108.422,-1.004" fill="#B5DAF6"/>
    <path d="M95.745,2.727 L101.951,-1.004 L95.745,-1.004 L95.745,2.727" fill="#D4E9F9"/>
    <path d="M95.745,-1.004 L89.273,-1.004 L95.745,2.727 L95.745,-1.004" fill="#DDEEF9"/>
    <path d="M82.803,2.727 L89.273,-1.004 L82.803,-1.004 L82.803,2.727" fill="#D8EAF9"/>
    <path d="M82.803,-1.004 L76.33,-1.004 L82.803,2.727 L82.803,-1.004" fill="#BCDEF9"/>
    <path d="M69.86,2.727 L76.33,-1.004 L69.86,-1.004 L69.86,2.727" fill="#E1EEF9"/>
    <path d="M69.86,-1.004 L63.389,-1.004 L69.86,2.727 L69.86,-1.004" fill="#E5F0F9"/>
    <path d="M57.104,2.727 L63.389,-1.004 L57.104,-1.004 L57.104,2.727" fill="#E5F0F9"/>
    <path d="M57.104,-1.004 L50.633,-1.004 L57.104,2.727 L57.104,-1.004" fill="#E1EEF9"/>
    <path d="M44.159,2.727 L50.633,-1.004 L44.159,-1.004 L44.159,2.727" fill="#E1EEF9"/>
    <path d="M44.159,-1.004 L37.689,-1.004 L44.159,2.727 L44.159,-1.004" fill="#9ED3F9"/>
    <path d="M31.218,2.727 L37.689,-1.004 L31.218,-1.004 L31.218,2.727" fill="#90CCF7"/>
    <path d="M31.218,-1.004 L24.744,-1.004 L31.218,2.727 L31.218,-1.004" fill="#67B5E9"/>
    <path d="M18.493,2.727 L24.744,-1.004 L18.493,-1.004 L18.493,2.727" fill="#65B0E4"/>
    <path d="M18.493,-1.004 L12.02,-1.004 L18.493,2.727 L18.493,-1.004" fill="#348DC6"/>
    <path d="M5.549,2.727 L12.02,-1.004 L5.549,-1.004 L5.549,2.727" fill="#2A82BB"/>
    <path d="M5.549,-1.004 L-0.922,-1.004 L5.549,2.727 L5.549,-1.004" fill="#1D6998"/>
    <path d="M18.493,-1.004 L114.895,-1.004 L114.895,140.729 L18.493,140.729 L18.493,-1.004 z" fill="#FDFDFD" fill-opacity="0.434"/>
  </g>
  
</svg>
