<svg xmlns="http://www.w3.org/2000/svg" xmlns:xlink="http://www.w3.org/1999/xlink" version="1.1" id="Layer_1" x="0px" y="0px" width="100px" height="100px" viewBox="3.5898 -10.0 71.796 135.0" enable-background="new 0 0 71.796 100" xml:space="preserve">
<path fill="#010101" d="M66.667,0H5.129C1.922,0,0,1.923,0,5.129v89.743C0,98.078,1.922,100,5.129,100h61.539  c3.207,0,5.129-1.922,5.129-5.128V5.129C71.794,1.923,69.875,0,66.667,0z M64.103,89.743c0,1.604-0.961,2.563-2.562,2.563H10.256  c-1.603,0-2.564-0.961-2.564-2.563V10.256c0-1.603,0.961-2.563,2.564-2.563h51.283c1.604,0,2.563,0.961,2.563,2.563L64.103,89.743  L64.103,89.743z"/>
<circle fill="#010101" cx="36.539" cy="78.846" r="5.769"/>
</svg>