<?xml version="1.0" encoding="UTF-8"?>
<!DOCTYPE svg PUBLIC "-//W3C//DTD SVG 1.1//EN" "http://www.w3.org/Graphics/SVG/1.1/DTD/svg11.dtd">
<svg version="1.1" xmlns="http://www.w3.org/2000/svg" xmlns:xlink="http://www.w3.org/1999/xlink" x="0" y="0" width="151.967" height="153.832" viewBox="0, 0, 151.967, 153.832">
  <g id="Layer_1" transform="translate(-26.179, -25.727)">
    <path d="M178.146,47.701 L159.085,36.715 L178.146,25.727 L178.146,47.701" fill="#CCE6F9"/>
    <path d="M159.085,36.715 L178.146,47.701 L159.085,58.69 L159.085,36.715" fill="#D4E9F9"/>
    <path d="M178.146,69.681 L159.085,58.69 L178.146,47.701 L178.146,69.681" fill="#EFF5F9"/>
    <path d="M159.085,58.69 L178.146,69.681 L159.085,80.664 L159.085,58.69" fill="#F2F6F9"/>
    <path d="M178.146,91.655 L159.085,80.664 L178.146,69.681 L178.146,91.655" fill="#F3F6F9"/>
    <path d="M159.085,80.664 L178.146,91.655 L159.085,102.638 L159.085,80.664" fill="#D7EAF9"/>
    <path d="M178.146,113.63 L159.085,102.638 L178.146,91.655 L178.146,113.63" fill="#D2E8F9"/>
    <path d="M159.085,102.638 L178.146,113.63 L159.085,124.621 L159.085,102.638" fill="#BEE0F9"/>
    <path d="M178.146,135.61 L159.085,124.621 L178.146,113.63 L178.146,135.61" fill="#BCDEF9"/>
    <path d="M159.085,124.621 L178.146,135.61 L159.085,146.593 L159.085,124.621" fill="#9DD3F9"/>
    <path d="M178.146,157.584 L159.085,146.593 L178.146,135.61 L178.146,157.584" fill="#8FCCF9"/>
    <path d="M159.085,146.593 L178.146,157.584 L159.085,168.573 L159.085,146.593" fill="#7DC6F9"/>
    <path d="M178.146,179.558 L159.085,168.573 L178.146,157.584 L178.146,179.558" fill="#6FC1F9"/>
    <path d="M140.015,25.727 L159.085,36.715 L140.015,47.701 L140.015,25.727" fill="#BDDFF9"/>
    <path d="M159.085,58.69 L140.015,47.701 L159.085,36.715 L159.085,58.69" fill="#CBE5F9"/>
    <path d="M140.015,47.701 L159.085,58.69 L140.015,69.681 L140.015,47.701" fill="#DDEEF9"/>
    <path d="M159.085,80.664 L140.015,69.681 L159.085,58.69 L159.085,80.664" fill="#ECF3F9"/>
    <path d="M140.015,69.681 L159.085,80.664 L140.015,91.655 L140.015,69.681" fill="#EFF5F9"/>
    <path d="M159.085,102.638 L140.015,91.655 L159.085,80.664 L159.085,102.638" fill="#ECF3F9"/>
    <path d="M140.015,91.655 L159.085,102.638 L140.015,113.63 L140.015,91.655" fill="#E4EFF9"/>
    <path d="M159.085,124.621 L140.015,113.63 L159.085,102.638 L159.085,124.621" fill="#CEE6F9"/>
    <path d="M140.015,113.63 L159.085,124.621 L140.015,135.61 L140.015,113.63" fill="#B1DAF9"/>
    <path d="M159.085,146.593 L140.015,135.61 L159.085,124.621 L159.085,146.593" fill="#B1DAF9"/>
    <path d="M140.015,135.61 L159.085,146.593 L140.015,157.584 L140.015,135.61" fill="#93CEF9"/>
    <path d="M159.085,168.573 L140.015,157.584 L159.085,146.593 L159.085,168.573" fill="#96D0F9"/>
    <path d="M140.015,157.584 L159.085,168.573 L140.015,179.558 L140.015,157.584" fill="#86C9F9"/>
    <path d="M140.015,47.701 L120.955,36.715 L140.015,25.727 L140.015,47.701" fill="#E7F1F9"/>
    <path d="M120.955,36.715 L140.015,47.701 L120.955,58.69 L120.955,36.715" fill="#DAEBF9"/>
    <path d="M140.015,69.681 L120.955,58.69 L140.015,47.701 L140.015,69.681" fill="#E8F2F9"/>
    <path d="M120.955,58.69 L140.015,69.681 L120.955,80.664 L120.955,58.69" fill="#E7F1F9"/>
    <path d="M140.015,91.655 L120.955,80.664 L140.015,69.681 L140.015,91.655" fill="#EAF2F9"/>
    <path d="M120.955,80.664 L140.015,91.655 L120.955,102.638 L120.955,80.664" fill="#EEF4F9"/>
    <path d="M140.015,113.63 L120.955,102.638 L140.015,91.655 L140.015,113.63" fill="#EDF4F9"/>
    <path d="M120.955,102.638 L140.015,113.63 L120.955,124.621 L120.955,102.638" fill="#DDEEF9"/>
    <path d="M140.015,135.61 L120.955,124.621 L140.015,113.63 L140.015,135.61" fill="#D2E8F9"/>
    <path d="M120.955,124.621 L140.015,135.61 L120.955,146.593 L120.955,124.621" fill="#CCE6F9"/>
    <path d="M140.015,157.584 L120.955,146.593 L140.015,135.61 L140.015,157.584" fill="#BCDEF9"/>
    <path d="M120.955,146.593 L140.015,157.584 L120.955,168.573 L120.955,146.593" fill="#9CD2F9"/>
    <path d="M140.015,179.558 L120.955,168.573 L140.015,157.584 L140.015,179.558" fill="#7EC6F9"/>
    <path d="M101.891,25.727 L120.955,36.715 L101.891,47.701 L101.891,25.727" fill="#E9F2F9"/>
    <path d="M120.955,58.69 L101.891,47.701 L120.955,36.715 L120.955,58.69" fill="#E7F1F9"/>
    <path d="M101.891,47.701 L120.955,58.69 L101.891,69.681 L101.891,47.701" fill="#E9F2F9"/>
    <path d="M120.955,80.664 L101.891,69.681 L120.955,58.69 L120.955,80.664" fill="#D9EAF9"/>
    <path d="M101.891,69.681 L120.955,80.664 L101.891,91.655 L101.891,69.681" fill="#DDEEF9"/>
    <path d="M120.955,102.638 L101.891,91.655 L120.955,80.664 L120.955,102.638" fill="#E2EEF9"/>
    <path d="M101.891,91.655 L120.955,102.638 L101.891,113.63 L101.891,91.655" fill="#EEF4F9"/>
    <path d="M120.955,124.621 L101.891,113.63 L120.955,102.638 L120.955,124.621" fill="#EFF5F9"/>
    <path d="M101.891,113.63 L120.955,124.621 L101.891,135.61 L101.891,113.63" fill="#D9EAF9"/>
    <path d="M120.955,146.593 L101.891,135.61 L120.955,124.621 L120.955,146.593" fill="#BDDFF9"/>
    <path d="M101.891,135.61 L120.955,146.593 L101.891,157.584 L101.891,135.61" fill="#A5D5F9"/>
    <path d="M120.955,168.573 L101.891,157.584 L120.955,146.593 L120.955,168.573" fill="#93CEF9"/>
    <path d="M101.891,157.584 L120.955,168.573 L101.891,179.558 L101.891,157.584" fill="#81C7F9"/>
    <path d="M101.891,47.701 L83.376,36.715 L101.891,25.727 L101.891,47.701" fill="#EEF4F9"/>
    <path d="M83.376,36.715 L101.891,47.701 L83.376,58.69 L83.376,36.715" fill="#EAF2F9"/>
    <path d="M101.891,69.681 L83.376,58.69 L101.891,47.701 L101.891,69.681" fill="#E3EFF9"/>
    <path d="M83.376,58.69 L101.891,69.681 L83.376,80.664 L83.376,58.69" fill="#D6E9F9"/>
    <path d="M101.891,91.655 L83.376,80.664 L101.891,69.681 L101.891,91.655" fill="#D2E8F9"/>
    <path d="M83.376,80.664 L101.891,91.655 L83.376,102.638 L83.376,80.664" fill="#E3EFF9"/>
    <path d="M101.891,113.63 L83.376,102.638 L101.891,91.655 L101.891,113.63" fill="#ECF3F9"/>
    <path d="M83.376,102.638 L101.891,113.63 L83.376,124.621 L83.376,102.638" fill="#ECF3F9"/>
    <path d="M101.891,135.61 L83.376,124.621 L101.891,113.63 L101.891,135.61" fill="#E7F0F9"/>
    <path d="M83.376,124.621 L101.891,135.61 L83.376,146.593 L83.376,124.621" fill="#CBE5F9"/>
    <path d="M101.891,157.584 L83.376,146.593 L101.891,135.61 L101.891,157.584" fill="#91CEF9"/>
    <path d="M83.376,146.593 L101.891,157.584 L83.376,168.573 L83.376,146.593" fill="#8ACBF9"/>
    <path d="M101.891,179.558 L83.376,168.573 L101.891,157.584 L101.891,179.558" fill="#A2D4F9"/>
    <path d="M64.312,25.727 L83.376,36.715 L64.312,47.701 L64.312,25.727" fill="#E4EFF9"/>
    <path d="M83.376,58.69 L64.312,47.701 L83.376,36.715 L83.376,58.69" fill="#E3EFF9"/>
    <path d="M64.312,47.701 L83.376,58.69 L64.312,69.681 L64.312,47.701" fill="#E5F0F9"/>
    <path d="M83.376,80.664 L64.312,69.681 L83.376,58.69 L83.376,80.664" fill="#E3EFF9"/>
    <path d="M64.312,69.681 L83.376,80.664 L64.312,91.655 L64.312,69.681" fill="#D2E8F9"/>
    <path d="M83.376,102.638 L64.312,91.655 L83.376,80.664 L83.376,102.638" fill="#D2E8F9"/>
    <path d="M64.312,91.655 L83.376,102.638 L64.312,113.63 L64.312,91.655" fill="#E7F1F9"/>
    <path d="M83.376,124.621 L64.312,113.63 L83.376,102.638 L83.376,124.621" fill="#DCEDF9"/>
    <path d="M64.312,113.63 L83.376,124.621 L64.312,135.61 L64.312,113.63" fill="#DEEDF9"/>
    <path d="M83.376,146.593 L64.312,135.61 L83.376,124.621 L83.376,146.593" fill="#9DD3F9"/>
    <path d="M64.312,135.61 L83.376,146.593 L64.312,157.584 L64.312,135.61" fill="#88CAF9"/>
    <path d="M83.376,168.573 L64.312,157.584 L83.376,146.593 L83.376,168.573" fill="#82C8F9"/>
    <path d="M64.312,157.584 L83.376,168.573 L64.312,179.558 L64.312,157.584" fill="#7DC6F9"/>
    <path d="M64.312,47.701 L45.239,36.715 L64.312,25.727 L64.312,47.701" fill="#E3EFF9"/>
    <path d="M45.239,36.715 L64.312,47.701 L45.239,58.69 L45.239,36.715" fill="#E3EFF9"/>
    <path d="M64.312,69.681 L45.239,58.69 L64.312,47.701 L64.312,69.681" fill="#E7F0F9"/>
    <path d="M45.239,58.69 L64.312,69.681 L45.239,80.664 L45.239,58.69" fill="#E3EFF9"/>
    <path d="M64.312,91.655 L45.239,80.664 L64.312,69.681 L64.312,91.655" fill="#CEE6F9"/>
    <path d="M45.239,80.664 L64.312,91.655 L45.239,102.638 L45.239,80.664" fill="#CBE5F9"/>
    <path d="M64.312,113.63 L45.239,102.638 L64.312,91.655 L64.312,113.63" fill="#B5DBF9"/>
    <path d="M45.239,102.638 L64.312,113.63 L45.239,124.621 L45.239,102.638" fill="#A7D5F9"/>
    <path d="M64.312,135.61 L45.239,124.621 L64.312,113.63 L64.312,135.61" fill="#8BCCF9"/>
    <path d="M45.239,124.621 L64.312,135.61 L45.239,146.593 L45.239,124.621" fill="#8ACBF9"/>
    <path d="M64.312,157.584 L45.239,146.593 L64.312,135.61 L64.312,157.584" fill="#81C7F9"/>
    <path d="M45.239,146.593 L64.312,157.584 L45.239,168.573 L45.239,146.593" fill="#88CAF9"/>
    <path d="M64.312,179.558 L45.239,168.573 L64.312,157.584 L64.312,179.558" fill="#74C2F9"/>
    <path d="M26.179,25.727 L45.239,36.715 L26.179,47.701 L26.179,25.727" fill="#C7E3F9"/>
    <path d="M45.239,58.69 L26.179,47.701 L45.239,36.715 L45.239,58.69" fill="#C0E0F9"/>
    <path d="M26.179,47.701 L45.239,58.69 L26.179,69.681 L26.179,47.701" fill="#D4E9F9"/>
    <path d="M45.239,80.664 L26.179,69.681 L45.239,58.69 L45.239,80.664" fill="#C5E2F9"/>
    <path d="M26.179,69.681 L45.239,80.664 L26.179,91.655 L26.179,69.681" fill="#C6E3F9"/>
    <path d="M45.239,102.638 L26.179,91.655 L45.239,80.664 L45.239,102.638" fill="#B9DEF9"/>
    <path d="M26.179,91.655 L45.239,102.638 L26.179,113.63 L26.179,91.655" fill="#CEE6F9"/>
    <path d="M45.239,124.621 L26.179,113.63 L45.239,102.638 L45.239,124.621" fill="#81C7F9"/>
    <path d="M26.179,113.63 L45.239,124.621 L26.179,135.61 L26.179,113.63" fill="#75C3F9"/>
    <path d="M45.239,146.593 L26.179,135.61 L45.239,124.621 L45.239,146.593" fill="#77C3F9"/>
    <path d="M26.179,135.61 L45.239,146.593 L26.179,157.584 L26.179,135.61" fill="#7BC5F9"/>
    <path d="M45.239,168.573 L26.179,157.584 L45.239,146.593 L45.239,168.573" fill="#DAEBF9"/>
    <path d="M26.179,157.584 L45.239,168.573 L26.179,179.558 L26.179,157.584" fill="#DDEEF9"/>
    <path d="M159.085,36.718 L178.146,25.727 L159.085,25.727 L159.085,36.718" fill="#D8EAF9"/>
    <path d="M159.085,25.727 L140.015,25.727 L159.085,36.718 L159.085,25.727" fill="#BCDEF9"/>
    <path d="M120.955,36.718 L140.015,25.727 L120.955,25.727 L120.955,36.718" fill="#E1EEF9"/>
    <path d="M120.955,25.727 L101.891,25.727 L120.955,36.718 L120.955,25.727" fill="#E5F0F9"/>
    <path d="M83.376,36.718 L101.891,25.727 L83.376,25.727 L83.376,36.718" fill="#E5F0F9"/>
    <path d="M83.376,25.727 L64.312,25.727 L83.376,36.718 L83.376,25.727" fill="#E1EEF9"/>
    <path d="M45.239,36.718 L64.312,25.727 L45.239,25.727 L45.239,36.718" fill="#E1EEF9"/>
    <path d="M45.239,25.727 L26.179,25.727 L45.239,36.718 L45.239,25.727" fill="#9ED3F9"/>
  </g>
</svg>
