<svg xmlns="http://www.w3.org/2000/svg" xmlns:xlink="http://www.w3.org/1999/xlink" version="1.1" id="Layer_1" x="0px" y="0px" width="100px" height="100px" viewBox="4.47915 -10.0 89.583 135.0" enable-background="new 0 0 89.583 100" xml:space="preserve">
<path fill="#010101" d="M85.417,0H4.167C1.562,0,0,1.562,0,4.167v91.667C0,98.438,1.562,100,4.167,100h81.249  c2.606,0,4.167-1.562,4.167-4.166V4.167C89.584,1.562,88.022,0,85.417,0z M83.334,91.667c0,1.302-0.78,2.083-2.083,2.083H8.334  c-1.302,0-2.083-0.781-2.083-2.083V8.333c0-1.302,0.781-2.083,2.083-2.083h72.917c1.303,0,2.083,0.781,2.083,2.083V91.667z"/>
<circle fill="#010101" cx="45.313" cy="82.812" r="4.687"/>
</svg>