<svg xmlns="http://www.w3.org/2000/svg" xmlns:xlink="http://www.w3.org/1999/xlink" version="1.1" id="Icon" x="0px" y="0px" width="100px" height="100px" viewBox="5.0 -10.0 100.0 135.0" enable-background="new 0 0 100 100" xml:space="preserve">
<path fill-rule="evenodd" clip-rule="evenodd" d="M78.221,55.865c-1.48,0-2.683-1.201-2.683-2.683v-5.365  c0-1.481,1.202-2.683,2.683-2.683c1.481,0,2.684,1.201,2.684,2.683v5.365C80.904,54.664,79.702,55.865,78.221,55.865z   M64.808,82.692H29.039c-4.939,0-8.942-4.003-8.942-8.942v-46.5c0-4.939,4.003-8.942,8.942-8.942h35.769  c4.939,0,8.942,4.003,8.942,8.942v46.5C73.75,78.689,69.747,82.692,64.808,82.692z M68.385,27.25c0-1.976-1.6-3.577-3.577-3.577  H29.039c-1.976,0-3.577,1.602-3.577,3.577v46.5c0,1.977,1.602,3.577,3.577,3.577h35.769c1.978,0,3.577-1.601,3.577-3.577V27.25z   M63.913,75.538c-1.48,0-2.683-1.201-2.683-2.683c0-1.48,1.202-2.683,2.683-2.683c1.481,0,2.683,1.202,2.683,2.683  C66.596,74.337,65.395,75.538,63.913,75.538z M62.125,64.808c-2.47,0-4.471-2.001-4.471-4.471s2.001-4.472,4.471-4.472  s4.471,2.002,4.471,4.472S64.595,64.808,62.125,64.808z M62.125,45.135c-2.47,0-4.471-2.002-4.471-4.471  c0-2.47,2.001-4.471,4.471-4.471s4.471,2.001,4.471,4.471C66.596,43.133,64.595,45.135,62.125,45.135z M63.913,30.827  c-1.48,0-2.683-1.202-2.683-2.683s1.202-2.683,2.683-2.683c1.481,0,2.683,1.202,2.683,2.683S65.395,30.827,63.913,30.827z   M58.548,34.404c-1.48,0-2.683-1.202-2.683-2.683s1.202-2.683,2.683-2.683c1.481,0,2.683,1.202,2.683,2.683  S60.029,34.404,58.548,34.404z M51.395,41.558c-2.47,0-4.472-2.001-4.472-4.471c0-2.469,2.002-4.471,4.472-4.471  s4.471,2.002,4.471,4.471C55.865,39.556,53.864,41.558,51.395,41.558z M49.606,30.827c-1.481,0-2.683-1.202-2.683-2.683  s1.202-2.683,2.683-2.683s2.682,1.202,2.682,2.683S51.087,30.827,49.606,30.827z M42.452,36.192c-1.481,0-2.683-1.202-2.683-2.683  c0-1.481,1.201-2.683,2.683-2.683c1.481,0,2.683,1.201,2.683,2.683C45.135,34.991,43.933,36.192,42.452,36.192z M37.086,30.827  c-1.481,0-2.683-1.202-2.683-2.683s1.202-2.683,2.683-2.683s2.683,1.202,2.683,2.683S38.567,30.827,37.086,30.827z M29.933,30.827  c-1.481,0-2.683-1.202-2.683-2.683s1.202-2.683,2.683-2.683c1.481,0,2.683,1.202,2.683,2.683S31.414,30.827,29.933,30.827z   M31.721,46.923c2.47,0,4.471,2.002,4.471,4.472s-2.001,4.471-4.471,4.471s-4.471-2.001-4.471-4.471S29.251,46.923,31.721,46.923z   M29.933,59.442c1.481,0,2.683,1.201,2.683,2.683s-1.201,2.683-2.683,2.683c-1.481,0-2.683-1.201-2.683-2.683  S28.452,59.442,29.933,59.442z M29.933,70.173c1.481,0,2.683,1.202,2.683,2.683c0,1.481-1.201,2.683-2.683,2.683  c-1.481,0-2.683-1.201-2.683-2.683C27.25,71.375,28.452,70.173,29.933,70.173z M30.827,38.875c0-2.47,2.001-4.471,4.471-4.471  c2.47,0,4.472,2.001,4.472,4.471s-2.002,4.471-4.472,4.471C32.829,43.346,30.827,41.345,30.827,38.875z M38.875,57.654  c2.47,0,4.471,2.001,4.471,4.471s-2.001,4.471-4.471,4.471s-4.471-2.001-4.471-4.471S36.405,57.654,38.875,57.654z M38.875,68.385  c1.481,0,2.683,1.201,2.683,2.683s-1.202,2.683-2.683,2.683s-2.683-1.201-2.683-2.683S37.394,68.385,38.875,68.385z M46.923,57.654  c-3.95,0-7.153-3.203-7.153-7.154c0-3.951,3.203-7.154,7.153-7.154c3.951,0,7.154,3.203,7.154,7.154  C54.077,54.451,50.874,57.654,46.923,57.654z M49.606,59.442c2.469,0,4.471,2.001,4.471,4.471s-2.002,4.472-4.471,4.472  c-2.47,0-4.471-2.002-4.471-4.472S47.136,59.442,49.606,59.442z M47.817,70.173c1.481,0,2.683,1.202,2.683,2.683  c0,1.481-1.202,2.683-2.683,2.683s-2.683-1.201-2.683-2.683C45.135,71.375,46.336,70.173,47.817,70.173z M58.548,46.923  c1.481,0,2.683,1.202,2.683,2.683c0,1.481-1.201,2.683-2.683,2.683c-1.48,0-2.683-1.201-2.683-2.683  C55.865,48.125,57.067,46.923,58.548,46.923z M56.76,68.385c1.48,0,2.683,1.201,2.683,2.683S58.24,73.75,56.76,73.75  c-1.481,0-2.683-1.201-2.683-2.683S55.278,68.385,56.76,68.385z M37.981,14.73c-4.939,0-5.366,0-8.942,0V9.365  c0,0,0-5.365,5.365-5.365h25.039c5.365,0,5.365,5.365,5.365,5.365v5.365c-3.577,0-4.003,0-8.942,0H37.981z M55.865,86.27  c4.939,0,5.365,0,8.942,0v5.365c0,0,0,5.365-5.365,5.365H34.404c-5.365,0-5.365-5.365-5.365-5.365V86.27c3.577,0,4.003,0,8.942,0  H55.865z"/>
</svg>